<svg id="Layer_1" data-name="Layer 1" xmlns="http://www.w3.org/2000/svg" viewBox="0 0 1920 1080"><defs><style>.cls-1{fill:#37a6de;}.cls-2{fill:none;}</style></defs><path class="cls-1" d="M789.55,694.38a683.41,683.41,0,0,1-66.7-56.92c-62.88-8.31-72.54-9.59-78.43-4.42-8.61-11.46-15.43-22.41-19.69-31.94l.11.24,1.86,4c4.22,8.93,10.64,19.06,18.61,29.63,4.22-5.22,16.72-3.5,76.77,4.78a677,677,0,0,0,65.23,55.57c48.45,36,87.26,52.82,108,49.68h0l3.65-.59C878.12,747.91,838.77,730.92,789.55,694.38Z"/><path class="cls-1" d="M780.73,698.09a653.06,653.06,0,0,1-60.85-51.57c-64.71-9.87-68.59-10.46-71.76-5.87A184.42,184.42,0,0,1,633,617.83l2.19,3.93a184.33,184.33,0,0,0,13.92,20.66c1.64-4.61,8.12-3.58,70.07,6.26a646.91,646.91,0,0,0,59.4,50.25c45.32,33.65,81.86,49.88,102.19,47.94l2.71-.27h0l1-.11C864,748.75,826.89,732.36,780.73,698.09Z"/><path class="cls-1" d="M772.18,701.21a623.37,623.37,0,0,1-55.07-46.34c-60.39-10.58-60.39-10.58-64.71-8.75l-.2,1.33c-3.12-4-6-8-8.51-11.8l1.37,2,2.11,3.08c1.89,2.7,3.93,5.46,6.1,8.25,0-.28-.13-.64-.18-.92,2.61-2.34,2.61-2.34,63.35,8.74a613.71,613.71,0,0,0,53.63,45c41.91,31.12,76,46.66,95.75,46h0l3.73-.17C849.61,748.68,814.93,733,772.18,701.21Z"/><path class="cls-1" d="M714.46,662.45c-56.16-11.21-56.16-11.21-58.4-10.43.09.31.19.73.27,1l.88,1.1c0-.3,0-.69,0-1,2.54-.26,2.54-.26,56.59,11.06a582.73,582.73,0,0,0,48,40c38.5,28.58,70,43.35,89.1,43.76l3.71.05c-19.27-.16-51.43-15.14-90.77-44.35A586.08,586.08,0,0,1,714.46,662.45Z"/><path class="cls-1" d="M712,669.24c-51.85-11.89-51.85-11.89-52.11-11.87l.88,1.06c1.2-.23,1.32-.25,13.14,2.9,18.76,5,23.48,6.12,37.49,9.48A543.72,543.72,0,0,0,753.87,706c34.91,25.92,63.76,39.84,82,41.29h0l3.87.27c-18.45-1.16-48-15.3-83.91-41.94A556,556,0,0,1,712,669.24Z"/><path class="cls-1" d="M1032.05,347.53a17.27,17.27,0,0,0-1-2.64c-.65-1.45-1.44-3.05-2-4q-1-2.06-2.06-4.07,1,2,2,4C1031.77,347.36,1031.92,347.46,1032.05,347.53Z"/><path class="cls-1" d="M1032.69,347.9a20.15,20.15,0,0,0-1.2-2.74c-.73-1.5-1.62-3.15-2.17-4.13q-1.12-2.13-2.31-4.21,1.15,2.07,2.25,4.18C1032.44,347.76,1032.54,347.82,1032.69,347.9Z"/><path class="cls-1" d="M1033.3,348.23a26.32,26.32,0,0,0-1.35-2.83c-.81-1.53-1.78-3.23-2.39-4.24q-1.24-2.19-2.55-4.34,1.27,2.13,2.49,4.31C1033.08,348.12,1033.15,348.15,1033.3,348.23Z"/><path class="cls-1" d="M1033.89,348.53a29.43,29.43,0,0,0-1.5-2.91c-.89-1.58-2-3.32-2.6-4.35-.91-1.49-1.83-3-2.78-4.45q1.4,2.19,2.72,4.43C1033.7,348.44,1033.73,348.45,1033.89,348.53Z"/><path class="cls-1" d="M1034.46,348.79c-.31-.7-1.07-2-1.65-3h0c-1-1.59-2.1-3.37-2.81-4.43l-3-4.55q1.5,2.25,2.94,4.53C1034.3,348.72,1034.3,348.72,1034.46,348.79Z"/><path class="cls-1" d="M1063,608.28c.55-2,.42-3-.42-3.24-2.69.34-5.42,6.38-5.08,8.34.23,1.3,1.68,1.56,4.07-2,8.53.54,15.29-1,20-4.61a149,149,0,0,1-7.17,17.89l1.95-3.4a151.12,151.12,0,0,0,6.84-17.77C1078.49,607.23,1071.67,608.83,1063,608.28Z"/><path class="cls-1" d="M1057,620.52c.65-2,.56-2.91-.3-3.17-2.83.32-5.82,6.16-5.56,8.13.17,1.28,1.64,1.54,4.25-2,8,.5,14.43-.76,19.17-3.82-2.18,7-2.18,7-8.58,18.28l2.2-3.29c3.59-5.53,3.59-5.53,8.21-18.19C1071.66,619.7,1065.12,621,1057,620.52Z"/><path class="cls-1" d="M1050.34,632.44c.75-2,.7-2.84-.16-3.1-2.85.3-6.23,6-6,7.92.13,1.23,1.62,1.49,4.43-1.9,7.36.46,13.46-.56,18.12-3.08-2.79,7.55-2.79,7.55-10.08,18.63l2.44-3.2c4.34-5.88,4.44-6.12,9.69-18.53C1064.05,631.83,1057.86,632.91,1050.34,632.44Z"/><path class="cls-1" d="M1070.62,375.36c-.41-.68-.84-1.37-1.3-2.09Z"/><path class="cls-1" d="M1020.35,317.57l-1.07-.89h0c.71,2.8,3.53,9.8,7.74,20.15C1020.19,319.35,1020.31,318.06,1020.35,317.57Z"/><path class="cls-1" d="M1023.75,321l.77.13-1-.9,0,0-.56.11c.09,3.32.81,5.91,4.12,16.49C1023.32,324.64,1023.55,322.71,1023.75,321Z"/><path class="cls-1" d="M1027,336.82c.1-.78.19-1.46.28-2.07C1027.2,335.33,1027.11,336,1027,336.82Z"/><path class="cls-1" d="M1081.4,397.43h0c-2.39-7.55-4.52-11.55-9.18-19.52l-1.6-2.55c6.16,10,7.88,15.23,9.28,19.48,1.19,4.2,1.4,7.56.75,10.1-20-30.83-41.07-54.17-53.64-68.12,29.45,32.73,42.89,52.38,55.13,71.24C1082.87,405.41,1082.66,401.87,1081.4,397.43Z"/><path class="cls-1" d="M1075.09,387.16c-2.28-8.06-8.26-18.4-16.57-29.4l-.78-1h0c-1.37-1.8-3.26-4.15-4.66-5.92,15.49,19.13,18.88,29.42,20.33,33.82a18.11,18.11,0,0,1,.76,8c-18.21-25.12-34.94-42.88-47.16-55.85,27.13,28.82,38.67,44.79,48.85,58.87A18.52,18.52,0,0,0,1075.09,387.16Z"/><path class="cls-1" d="M1068.06,377.22c-3.91-13.83-21-35.78-41.12-53.82a3.18,3.18,0,0,0-.69-.18c-1.42,1.83-1.17,3.89.76,13.6-1.67-8.92-1.24-10.43-.63-12.52l1.13-.25c18.93,17.05,35,37.69,38.68,50.73a15.63,15.63,0,0,1,.7,6.1c-14.63-18.15-25.29-29.23-39.88-44.06a527.15,527.15,0,0,1,41.77,47A16.18,16.18,0,0,0,1068.06,377.22Z"/><path class="cls-1" d="M1060.28,367.59h0c-3.7-11.35-14.87-26.09-31.45-41.51h0c-2.36.92-2.19,4-1.82,10.74-.42-7.9.43-8.61,2.13-10.05,14.27,13,26.28,28.58,29.08,38.48a13,13,0,0,1,.58,4.33c-12.5-14-20.59-21.87-31.79-32.76,17,16.59,22.67,22.92,33.88,35.53A13.62,13.62,0,0,0,1060.28,367.59Z"/><path class="cls-1" d="M1052.23,361.48a10.46,10.46,0,0,0-.46-3.13c-2.14-7.57-11.23-19.41-22.1-29.42-1.58,1.38-1.86,2-2.38,5.82.36-2.37.76-2.93,2.42-5.09,9.76,9,17.89,19.64,19.82,26.44a9.78,9.78,0,0,1,.42,2.76c-8.46-8.57-9.56-9.59-22.94-22C1038.71,347.71,1040.77,349.81,1052.23,361.48Z"/><path class="cls-1" d="M1042.53,349.5c-.64-2.14-3.19-8.13-13.08-17.57a20.51,20.51,0,0,0-2.44,4.89,25.35,25.35,0,0,1,2.21-4.1c2.64,2.48,9,8.87,10.86,14.62a5.56,5.56,0,0,1,.24,1.39c-4-3.62-9.3-8.35-13.31-11.91,4.8,4.26,11.09,10.05,15.8,14.39A7,7,0,0,0,1042.53,349.5Z"/><path class="cls-1" d="M1032.53,341.06c-.43-1.53-2.22-3.9-4.39-6l-1.13,1.72.63-.9a8.47,8.47,0,0,1,2.28,3.1,2.56,2.56,0,0,1,0,.27l-3-2.47,5.62,4.76A2.25,2.25,0,0,0,1032.53,341.06Z"/><path class="cls-1" d="M955.24,708.87c5.11-12.59,6.18-16.25,9.58-32.64q2.46-2.28,4.91-4.65c66-64,98.45-156.53,90.59-238.18-5.09-14.59-5.32-15.23-17.29-48.79a146.24,146.24,0,0,1-13.26-8.86,209.68,209.68,0,0,1-36.22-34.42l.87-1.26c-3.62-1.17-5.32.24-6.33,1.09a5.49,5.49,0,0,0,3.06.93,245.16,245.16,0,0,0,38.4,35.93,156.94,156.94,0,0,0,13.64,9.14C1056,424,1056,424,1059.5,434.28c6.76,81-26.13,172.74-91.79,236.4-2,1.92-4,3.79-6,5.63a138.81,138.81,0,0,1-10,34.16c17,5,30.06,5,38.29,0l3.15-2C985.08,713.61,972.1,713.71,955.24,708.87Z"/><path class="cls-1" d="M941.24,715c6.43-13.68,7.87-20.62,11.11-38.67q4.62-4.12,9.17-8.53c64.61-62.64,98.78-151.82,95.29-231-4.47-14-9-28-13.52-41.94-4.54-2.72-9.44-6-14.6-9.85-24.57-18.24-48.44-43.75-60.83-64.48l1.64-.7s-4.2-3-8.41-.68a19,19,0,0,0,3.38,1.15c13.47,21.55,38.3,48.09,63.86,67.07,5.25,3.9,10.23,7.25,14.86,10q6.32,20.09,12.65,40.17c2.42,78.54-32.17,166.88-96.43,229.18q-5.07,4.92-10.24,9.48c-3.54,21.74-5.44,26.62-11.48,40.17,17.36,5.51,30.86,6,39.49,1.41l3.27-1.78C971.92,720.75,958.52,720.37,941.24,715Z"/><path class="cls-1" d="M927,720.32c7.89-14.5,10-28.44,12.43-44.57q6.81-5.87,13.45-12.3c63.2-61.28,99-147.08,99.75-223.66-6.45-22-6.45-22-10.15-34.74-4.85-3-10-6.48-15.45-10.52A275.41,275.41,0,0,1,977,346.47l.4-1.54c-2.91-1.37-5-.24-6.64.92,0,.49.09,1.14.14,1.63a10.31,10.31,0,0,0,3.18.33A336.27,336.27,0,0,0,1026.58,397c5.47,4.06,10.69,7.61,15.58,10.63,2.72,9.63,3.87,13.64,9.38,32.88-1.78,75.91-38,160.87-100.82,221.81q-7.17,7-14.54,13.24c-3.08,25-6.84,33.78-12.71,46,17.7,6,31.55,7,40.54,2.86l3.32-1.57C958.43,727.08,944.66,726.22,927,720.32Z"/><path class="cls-1" d="M912.74,724.85c8.07-15.14,10.56-26.33,13.51-50.27q9-7.49,17.74-16c61.8-59.92,99.12-142.36,103.93-216.23-2.18-8.13-5.05-19-7.2-27.11-5-3.14-10.28-6.76-15.8-10.87-32.34-24-63.75-57.58-80.23-84.94l1.59-1.24c-1.14-1.23-3.75-1.66-7.75-1.27l-1,1.51a16.16,16.16,0,0,0,3.66,1.13c17.54,28.06,49.87,62.61,83.14,87.31,5.52,4.11,10.81,7.74,15.82,10.91,1.94,7.55,4.54,17.6,6.51,25.14-5.8,73.19-43.47,154.79-104.92,214.37q-9.29,9-18.81,16.88c-3,26.24-5.54,35.9-13.75,51.68,17.88,6.48,32,8,41.3,4.31l3.42-1.38C944.63,732.58,930.58,731.23,912.74,724.85Z"/><path class="cls-1" d="M898.36,728.63c10.63-17.14,12.53-36.82,14.36-55.86q11.12-9,22-19.56c60.4-58.56,99.12-137.65,107.82-208.72-1.39-5.73-3.21-13.38-4.58-19.11q-7.5-4.81-15.68-10.89c-23.18-17.2-45.92-38.81-63.28-61.14,0-.49,0-1.14,0-1.63a5.58,5.58,0,0,0-7.46,1.72l.56,1.58a10.54,10.54,0,0,0,3.58.39,421.44,421.44,0,0,0,65.87,61.65c5.4,4,10.61,7.62,15.58,10.83,1.17,5.12,2.78,11.94,4,17.06-9.64,70.36-48.69,148.61-108.73,206.84q-11.39,11-23,20.44c-2.79,36.36-8.5,46.5-14.54,57.23,18,6.9,32.27,8.84,41.85,5.71l3.48-1.17C930.56,737.26,916.31,735.43,898.36,728.63Z"/><path class="cls-1" d="M884,731.66c9.7-16,12.63-28,14.94-61.28q13.2-10.51,26.18-23.07c59-57.2,99-133,111.38-201.17l-2.33-10.75q-7.25-4.75-15.07-10.55c-39.63-29.43-78.13-70.59-98-104.38.29-.47.68-1.09,1-1.55,0,0-3.76-3-9.11-.27.13.5.29,1.17.42,1.67a16.62,16.62,0,0,0,3.56.84c21.36,34.17,60.73,76.25,101.25,106.33q7.68,5.7,14.84,10.42l1.83,8.57c-13.3,67.49-53.57,142.42-112.22,199.28q-13.49,13.07-27.23,23.93c-1.75,40.87-8.81,52.42-15,62.62,18,7.27,32.38,9.65,42.18,7l1.28-.35h0l2.26-.62C916.37,741.11,902,738.84,884,731.66Z"/><path class="cls-1" d="M1089,424.1c-9.71-17.38-13.4-23.05-26.34-41.82a6.4,6.4,0,0,1-2.31.72c-1.51-2.48-1.8-2.73-2.08-3,0,.08,3.65,8.51,5,8.87A16.34,16.34,0,0,0,1062,386a6.67,6.67,0,0,0,2.36-.73c13.9,20.54,17,26.06,25.79,42.05,1.22-3.3,1.08-7.9-.59-13.82-.93-3.21-1-3.46-3.68-9.8h0l-2-4.31a71.89,71.89,0,0,1,4.46,11.42C1089.93,416.5,1090.09,420.91,1089,424.1Z"/><path class="cls-1" d="M1096.9,450.65c-7.75-17.78-10.88-23.69-22.06-43.44a12,12,0,0,1-4,.7c-1.22-2.62-1.55-2.89-1.9-3.16-.38,1.32,2.41,8.1,3.5,9.4l.32-.13a9.78,9.78,0,0,0-.66-2.94,12.32,12.32,0,0,0,4-.68c12,21.61,14.56,27.29,21.55,43.66,2.72-6.08,1.88-10.52,0-18.48-.28-.95-.56-1.89-.86-2.82C1099.07,440.71,1099,446.66,1096.9,450.65Z"/><path class="cls-1" d="M1079.55,420.08a12.94,12.94,0,0,1-2.08.45c-1.13-2.64-1.46-2.88-1.81-3.14-.36.39,1.56,8.16,3.34,9.66.19-.3.36-.59-.39-3.3a12.94,12.94,0,0,0,2-.41c11.09,22.09,13.36,27.84,19.52,44.39,2.65-4,3.15-10.12,1.17-18.39l-.85-3.62c2.1,8.35,1.71,14.53-.85,18.58C1092.75,446.32,1089.88,440.29,1079.55,420.08Z"/><path class="cls-1" d="M1097.68,435.58l-.27-.94-1.25-4.06c.24.73.46,1.46.66,2.18C1097.12,433.69,1097.4,434.63,1097.68,435.58Z"/><path class="cls-1" d="M1093.46,423.07l-.51-1.37c2.23,8.27,1.64,11.39.41,15.54-8.7-17.6-12.11-23.39-24.17-42.67a10.66,10.66,0,0,1-5.39.72c-1.29-2.57-1.61-2.85-2-3.14-.15.76,2.53,8.19,4.08,9.29,0-.51,0-.87-.78-3a11.25,11.25,0,0,0,5.53-.71c13,21.09,15.79,26.69,23.65,42.88,2.05-5.1,1.21-9.45-.34-16.13h0c-.49-1.71-1.31-3.95-1.88-5.64l-1.46-3.81a69.72,69.72,0,0,1,2.31,6.71Z"/><path class="cls-1" d="M917.85,292.43c.31,1.09.66,2.21,1.06,3.36,24.63,9.11,24.63,9.11,79,30,5.83,9.39,16,20.68,26.94,29.79a78.38,78.38,0,0,0,2.16-18.74,76,76,0,0,1-2.2,16.66c-10-8.34-19.14-18.61-24.41-27.14-44.82-17.71-52.86-20.84-78.27-30.46-.34-1-.64-2-.91-2.91-4-14.05.18-21.12,10.27-21.43,33,9.89,53,24.08,64.94,32.56.48.16,1,.34,1.47.54a15.13,15.13,0,0,0,2.69,2s-4.31-4.35-6.27-5.09c.4.37.95.86,1.37,1.22-.48-.19-.94-.36-1.4-.52-25.39-18.83-50.59-27-65.65-31.81C918.1,270.64,913.74,277.89,917.85,292.43Z"/><path class="cls-1" d="M1010.33,329.29c-39.36-17.48-56.9-24.75-75.46-32.45-.14-.44-.27-.89-.4-1.32-3.44-12.17-.07-18.48,8.32-19.13C975,287.76,993.74,303,1005,312a32.43,32.43,0,0,1,4.63,2c1.43,1.48,1.43,1.48,2,1.82,0,0-3.37-4.21-5-5,.33.38.77.88,1.11,1.24a36.86,36.86,0,0,0-4.94-2.1c-23.7-20.07-48.22-29.33-62.87-34.85-8.81.57-12.36,7.08-8.78,19.71.15.56.32,1.12.51,1.69,17.87,7.24,34.75,14.09,76.18,31.95,3.65,6,10,13.27,17.06,19.31a69,69,0,0,0,2.08-10.95,66.17,66.17,0,0,1-2,9.23A76.75,76.75,0,0,1,1010.33,329.29Z"/><path class="cls-1" d="M1020.1,333.29c-31.36-15.69-49.85-24.2-72.55-34.51l0-.06c-2.92-10.33-.26-15.86,6.58-16.74,31.32,12.92,47.51,27.89,59.33,38.81.39.12.8.27,1.23.44a28.71,28.71,0,0,0,2.18,2.31c0-.05-3.71-4.84-5.85-6.49.36.46.51.65,1.67,1.95-.47-.18-.91-.34-1.34-.47-22-21.37-45.83-31.79-60.05-38-7.22.83-10,6.56-7,17.35,0,.11.06.23.1.34,22.39,9.95,40.76,18.2,73.28,34a42.73,42.73,0,0,0,8,9.27c.53-1.62,1-3.17,1.34-4.64-.3,1.06-.65,2.16-1.06,3.3A31.57,31.57,0,0,1,1020.1,333.29Z"/><path class="cls-1" d="M1026.85,336.6h0l.16.22c-.3-.44-.6-.88-.91-1.3C1026.34,335.89,1026.6,336.24,1026.85,336.6Z"/><path class="cls-1" d="M973.87,293.53c-4.16,1-5.85,4.61-4.36,11,24.64,13.09,37,20,57.5,32.25-18.15-11.1-30.36-18.09-54.4-31.17-1.34-5.94.24-9.35,4.07-10.3,27.11,15.78,36.34,25.56,50.33,41.47C1009.19,316.19,999.76,308.51,973.87,293.53Z"/><path class="cls-1" d="M985.08,301.11c-2.92.86-4.15,3.57-3.24,8.15,22.85,13.29,28.63,16.95,45.17,27.56-18.44-12.12-26.36-16.84-42.13-26.24-.79-4.16.33-6.64,3-7.48,18,11.94,23.45,16.67,39.15,33.72C1010.47,318.55,1005.11,314.36,985.08,301.11Z"/><path class="cls-1" d="M726.24,704.29l-.38.37c.45,1.59,4,2.69,4.94,2.84,1.17.19,1.36,0,1.7-.34-.22-.64-.22-.64-.87-1.2a10,10,0,0,0-3.79-1.63c-7.5-5.74-14.93-11.85-22.22-18.21-24-8.64-29.81-12.31-34-15.6l.92,1c5.89,5.39,22.58,11.72,32.56,15.5C712,693,719.1,698.83,726.24,704.29Z"/><path class="cls-1" d="M714.08,702.63l-.17.21c.85,1.26,4.1,2.49,4.13,2.5,1,.35,1.22.29,1.56.16-.14-.41-.14-.41-.68-.86a13.56,13.56,0,0,0-3.25-1.67c-4.85-3.71-9.68-7.61-14.43-11.65-14.08-6.81-16.57-8.82-22-13.2l1,1c5.61,4.95,11.85,8.17,20.49,12.63C705.18,695.48,709.7,699.14,714.08,702.63Z"/><path class="cls-1" d="M724,710.88c-.76-.46-1.44-.84-2.91-1.56q-3.72-2.57-7.63-5.46c-4.83-3.59-9.64-7.4-14.38-11.37-9-5.26-10.62-6.21-15.83-10.57l.64.58.42.38a85.65,85.65,0,0,0,14.25,9.75q6.67,5.58,13.5,10.65,3.78,2.81,7.39,5.3a5.31,5.31,0,0,0-.56-.2c.41.63,3.79,2.32,3.83,2.34h0c1.48.73,1.74.75,2,.77A2.13,2.13,0,0,0,724,710.88Z"/><path class="cls-1" d="M1098.77,547.76c-4.11,3.21-10,4.57-17.51,4.1,0-.8.16-3.24-.94-3.44-.2,0-5.4,7.41-2.1,9.9.72-.23,1.34-.43,2.35-3.16,7.72.48,13.78-1,18-4.35,6.34-22.21,6.82-31.55,7.85-52a58.89,58.89,0,0,0,.68-8.28l-.23-3.81a26.62,26.62,0,0,1-.71,9.19C1105.71,519.7,1103.54,528.49,1098.77,547.76Z"/><path class="cls-1" d="M1106.85,507.43c-1.32,24.18-3.84,33-9.38,52.46-6.76,6.24-19,6.86-35.63,2a297.63,297.63,0,0,0,11.4-59.1c1.31-1.75,2-7.55-.23-9.64-2.54.69-2.47,7.4-1.23,9.52a282.4,282.4,0,0,1-12.42,62c17.68,5.45,30.7,4.9,37.66-1.8,7.24-22.36,8.07-31.84,9.89-52.62a28,28,0,0,0,.48-5.2v-3.6A27.53,27.53,0,0,1,1106.85,507.43Z"/><path class="cls-1" d="M1052.85,573.29c.11-.82.46-3.33-1.07-4-2.27-1-5.64,5-4.68,8.23.37,1.27,2,2.77,4.55-1.08,20.8,7,35.82,6.5,43.13-1.8,6.65-18.44,8.64-28.23,10.56-42.77-2.07,15.4-4.91,24.26-9.93,39.86C1088.08,579.74,1073.27,580.19,1052.85,573.29Z"/><path class="cls-1" d="M1105.57,530.11c-.08.6-.15,1.2-.23,1.79C1105.42,531.31,1105.5,530.71,1105.57,530.11Z"/><path class="cls-1" d="M1105.57,530.11c.35-2.68.7-5.5,1.08-8.59.08-.65.15-1.31.19-2l.22-3.62q-.07,1.47-.27,2.82C1106.41,523,1106,526.68,1105.57,530.11Z"/><path class="cls-1" d="M1104.09,542.91l.12-.78c-.07.44-.15.85-.22,1.29C1104,543.24,1104.06,543.08,1104.09,542.91Z"/><path class="cls-1" d="M1104,543.42c-1.27,6.1-2.22,10.62-3.06,14.34C1102.07,553.38,1103.07,548.75,1104,543.42Z"/><path class="cls-1" d="M1104.21,542.13c.39-2.35.76-4.84,1.13-7.51Z"/><path class="cls-1" d="M1070.21,590.84c.12-.65.45-2.37-.1-3-1.74-2-5.46,5.7-4.9,8.31.22,1,1.48,2,3.8-2.11,10.57.66,18.33-2,22.75-7.9,5.33-14.07,6.92-18.46,9.17-28.35-2.15,8.23-4.81,15.65-8.34,25.52C1088.17,589,1080.54,591.49,1070.21,590.84Z"/><path class="cls-1" d="M1010,696.72c15.28-14.73,19.3-23.29,25.19-45.08a91.79,91.79,0,0,1-15.33-3c.87-2,.78-3-.31-3.48-3.31-.41-7,4.24-7.22,6.53-.22,2,1.84,2.9,5.43-.29a92.63,92.63,0,0,0,14.78,3c-6.32,22.74-10.88,30.67-25.63,44.66.59-.36,1.16-.74,1.7-1.14h0l3-2.26C1011.07,696,1010.54,696.37,1010,696.72Z"/><path class="cls-1" d="M949.13,407.34c-42.08-41.62-75.76-87.52-84.38-118-6.26-22.13,1.88-31.88,20.06-29.7l-3.82-.4c-18-1.88-25.94,8.06-19.67,30.23,8.65,30.56,42.1,76.38,84.06,118.21-42.73,38.93-95.27,88.3-145.7,137.19-9.88,9.58-19.3,18.77-28.91,27.23-1.64-.16-5.46-.53-6.14,3.53a5.17,5.17,0,0,0,7.69,5.26c2.61-2,2-4.26,1.56-6.11q13.39-13.1,28.24-27.49"/><path class="cls-1" d="M729,621.68c2.3,3.53,5.53,2.68,6.27,2.25.95-.54,3-2.88,0-6.33-3.21-2.66-5.9-1.53-6.81.89-63.77-6.37-78.92-7.88-89.9-1.92-12.11-16.65-20.89-32.23-24.67-44.76l1.24,4C619,588,627.59,603,639.24,618.89,643.83,615.91,650.77,611.4,729,621.68Z"/><path class="cls-1" d="M717.15,609.56c2.24,3.52,5.18,2.77,6,2.22,0,0,3.38-2.42,0-6.55-3.11-2.69-5.69-1.47-6.54,1-53.44-4.57-68.33-5.11-80.59.6-12.65-17.7-21.71-34.18-25.44-47.39-.25-.88-.47-1.73-.67-2.56l.87,3.67c.15.56.3,1.14.47,1.72,3.7,13.1,12.74,29.47,25.35,47.05C641.56,606.7,650.75,601.74,717.15,609.56Z"/><path class="cls-1" d="M847.62,290.43c8.68,30.69,41,75.93,82.22,118.31-42.77,35.83-92.73,80.78-139.78,126.39a19.59,19.59,0,0,1-5,3.85c-5.19-.76-6.36,2.8-6.6,3.91a5.14,5.14,0,0,0,7.79,5.33c2.1-1.35,2.75-3.54,1.93-6.5l4.26-4.14c47.89-46.44,98.52-92.46,141.36-129.05-41.46-42.29-74.08-87.71-82.77-118.4-6.3-22.26,1.15-32.71,18.39-31.76l-2.87-.14-.95,0C848.59,257.53,841.31,268.14,847.62,290.43Z"/><path class="cls-1" d="M632.76,588.38c6.42-2.49,18.37-7.1,65.38-3.23,2.08,3.67,4.86,2.73,5.67,2.11,0,0,3.15-2.71,0-6.9-2.89-2.71-5.39-1.44-6.13,1.36-39.61-1.83-51.8-1.11-65.23,3.87-12.59-18.32-21.6-35.29-25.51-49.13a56.4,56.4,0,0,1-1.93-9.68l.41,3.83a57.32,57.32,0,0,0,1.82,8.75C611.1,553.15,620.13,570.1,632.76,588.38Z"/><path class="cls-1" d="M820.28,294.23c8.53,30.16,37.74,73,76.16,115.09a1257.3,1257.3,0,0,0-125,106.11,19.82,19.82,0,0,1-5,3.85c-5-.78-6.24,2.8-6.5,3.92a4.94,4.94,0,0,0,7.45,5.4c2.09-1.37,2.77-3.58,2-6.55q2.1-2.07,4.25-4.15a1344.09,1344.09,0,0,1,127-108.55c-38.85-42.2-68.5-85.45-77.07-115.73-6.41-22.65,0-34.25,16-35.14l-3.72.25C820.19,259.85,813.87,271.57,820.28,294.23Z"/><path class="cls-1" d="M630.86,565.16c12.11-4,22.1-4.92,44.19-5.32,1.39,3.45,4,3.57,5.26,2.32,0,0,2.83-3,0-7.19-2.62-2.68-4.78-1.1-5.48,1.76-24.6.43-31.85,1.6-44,5.39-12-18.23-20.63-35.07-24.59-49a54.34,54.34,0,0,1-2.36-15.34l0,3.65A54,54,0,0,0,606.11,516C610.07,530,618.75,546.88,630.86,565.16Z"/><path class="cls-1" d="M631.13,540.14c10.49-2.95,13.89-3.39,26.63-4.78,1,3.13,3.28,3.68,4.69,2.08a6.58,6.58,0,0,0,.07-7.43c-2.51-2.8-4.45-.36-5,2.17-14.49,1.56-16.51,2.11-26.23,4.73-11-17.53-19-33.71-22.86-47.38-2.33-8.25-3.05-15.11-2.29-20.59l-.48,3.54c-.66,5.36.07,12,2.32,20C611.9,506.2,619.94,522.49,631.13,540.14Z"/><path class="cls-1" d="M637.27,510.65c17.33-3.7,30.21-4.58,57.8-5.21a450.23,450.23,0,0,1,35.55-38.52,419.11,419.11,0,0,1,44.55-37.87,6,6,0,0,0,4.4-.51s4.73-2.9,2.21-7.17a6.36,6.36,0,0,0-.63-.64c-2.35-1.91-9-.66-8.42,5.66a528.62,528.62,0,0,0-44,38.11,440.39,440.39,0,0,0-34.68,37.58c-29.63.66-39.09,1.76-56.23,5.19-10.64-17.44-18.33-33.54-22.23-47.3-3.14-11.11-3.59-19.9-1.64-26.4L613,437c-1.82,6.43-1.34,15,1.73,25.88C618.63,476.75,626.44,493,637.27,510.65Z"/><path class="cls-1" d="M639.84,497.05c16.64-3.76,32.76-4.37,51.42-5.09a416.53,416.53,0,0,1,32.07-34.7q8.17-7.92,16.76-15.48a4.8,4.8,0,0,0,4.87-.39c3.08-2,3.83-6.22,1.46-8.19-2.85-2.37-9,.5-8.08,6.19q-8.58,7.55-16.77,15.48a408,408,0,0,0-31.2,33.73c-27.5.82-36.85,2.58-49.79,5-9.88-16.61-17.05-32-20.8-45.22-3.45-12.17-3.74-21.64-1.25-28.43l-1.22,3.38c-2.34,6.73-2,16,1.36,27.93C622.46,464.67,629.76,480.22,639.84,497.05Z"/><path class="cls-1" d="M651.59,455.48c11.17-2,14.17-2.22,30.8-3.68q9.86-11.49,21.44-22.74A385.23,385.23,0,0,1,748.51,392a4.92,4.92,0,0,0,4.77-.17h0c.05,0,4.81-2.69,2.94-6.74a5.89,5.89,0,0,0-.51-.61c-2.42-2.19-8.84.27-8.61,5.31a379.4,379.4,0,0,0-44.72,37q-11.05,10.73-20.53,21.72c-12.54,1-13.16,1.06-29,3.48-7.41-13.61-12.9-26.25-16.08-37.47-4.3-15.2-4-26.43.34-33.73L635.28,384c-4.14,7.28-4.41,18.37-.18,33.33C638.33,428.71,644,441.6,651.59,455.48Z"/><path class="cls-1" d="M1012.26,459.9c-1.48-.83-2.33-.1-3.63,1l-2.74-2A532.18,532.18,0,0,1,964,424.18c-37.35,44.29-86.72,97.26-137.43,146.42q-8,7.8-15.79,15.14c.88,33.51,3.67,67,3.84,100.5a7.8,7.8,0,0,0-3,2.06c.67,4.35,6.58,5.59,9.89,2.08-.32-2.24-.38-2.64-3.26-3.91-.33-33.16-2.91-66.23-3.91-99.37q7.26-6.87,14.79-14.17C879,524.59,927.26,472.28,963.88,428c13.2,12,26.93,23.39,40.78,33.67a9.18,9.18,0,0,1,2.69,2.75c.3,3.23.66,3.41,2.63,4.37a6.23,6.23,0,0,0,2.83-1.94h0C1014.61,463.45,1013.31,461.48,1012.26,459.9Z"/><path class="cls-1" d="M978.89,492c2.6.46,7.36-4.13,3.51-8.86-1.79-.89-2.42-1-4.56.46q-6.66-5.22-13.25-10.68A885.86,885.86,0,0,1,857.82,597.86l-3.46,3.33c.68,25.44.68,25.44.54,39.77a4.55,4.55,0,0,0-2.61,3c-.71,3.53,4,6.55,8.54,4.31h0c3-1.66,3.57-5.93-1.48-7.68-.67-17.52-.67-17.52-1.3-38.23l2.41-2.33A845.37,845.37,0,0,0,964.85,477.27q5.63,4.62,11.31,9.08C975.44,490.92,977.83,491.85,978.89,492Z"/><path class="cls-1" d="M1027.18,337l-.17-.2c.73.88,1.42,1.78,2.18,2.64C1029,339.22,1028.31,338.35,1027.18,337Z"/><path class="cls-1" d="M1081.39,448.76,1048.21,376a10.24,10.24,0,0,0-1.61-2.85l-.08,0c0,.33,2,7.81,3.52,8.26,17.53,35.84,25.4,55.13,31.71,70.62a22.42,22.42,0,0,0,6.09-.32c.75,2.41,1,2.63,1.53,3.12.2-.4.52-1.07-.13-4.19a20.16,20.16,0,0,0-1.87-5.41h-.58a11,11,0,0,0,.26,3.15A21.71,21.71,0,0,1,1081.39,448.76Z"/><path class="cls-1" d="M1016.67,314.67a19.06,19.06,0,0,0-2.19-1.89l-1.3-1,0,0-.08-.06-1.47-1.14c1.61,1.26,3.12,2.63,4.71,3.91C1016.6,314.67,1016.6,314.67,1016.67,314.67Z"/><path class="cls-1" d="M942.05,273c5.6,2.17,5.68,2.19,6.25,2.32,11.81,4.71,13.12,5.4,29.1,13.83a110.43,110.43,0,0,1,14.45,7.67,119.94,119.94,0,0,0-16.52-9c-17.7-9.68-34-15.43-35.39-15.68l2.11.82Z"/><path class="cls-1" d="M998.48,301.16c-2.28-1.56-4.49-3-6.63-4.31.77.49,1.55,1,2.34,1.51Z"/><path class="cls-1" d="M833.9,292c8.65,30.56,39.53,74.8,79.56,117.26a1701.52,1701.52,0,0,0-132.82,116c-9.88,9.58-19.21,18.87-28.62,27.51-1.57-.16-5.26-.52-6,3.62s3.41,7.68,7.39,5.35c1.92-1.26,2.44-3.37,1.56-6.25q13.13-13.38,28-27.77c44.5-43.15,92.32-85,134.64-118.58-40.37-42.48-71.63-87-80.29-117.62C831,269.06,837.9,258,854.49,258l-3.71,0C834.35,258.26,827.52,269.46,833.9,292Z"/><path class="cls-1" d="M806.71,297.08c8.35,29.51,35.69,70.7,72.13,111.9a997,997,0,0,0-116.26,96.55c-9.89,9.58-19.12,19-28.33,27.79-4.62-.82-5.61,2.65-5.8,3.73-.71,4,3.16,7.75,7,5.36,1.86-1.29,2.41-3.43,1.63-6.34q12.85-13.65,27.7-28.05a1052.76,1052.76,0,0,1,118.5-98.91c-37-41.45-64.8-83.1-73.21-112.8-6.4-22.64-.49-34.7,14.62-36.49l-3.63.45C806.11,262.25,800.3,274.41,806.71,297.08Z"/><path class="cls-1" d="M780,304.66c7.79,27.51,31,64.49,62.56,102.71a712,712,0,0,0-96.89,78.41c-9.89,9.58-19,19.06-28.06,28.08a4.49,4.49,0,0,0-5.64,3.83c-.76,4.08,2.86,7.76,6.59,5.3,1.8-1.33,2.37-3.49,1.69-6.42q12.63-13.92,27.46-28.33a738.5,738.5,0,0,1,99.46-80.63c-32.25-38.68-56-76.23-63.84-104-6.4-22.64-1.35-35.43,12.47-38.65l-3.62.88C778.56,269.19,773.62,282.06,780,304.66Z"/><path class="cls-1" d="M643.07,483.26c15.18-2.95,22-3.54,44.77-4.77a386.77,386.77,0,0,1,28.57-30.78,449.85,449.85,0,0,1,44.32-37.64,5.09,5.09,0,0,0,4.91-.18c.05,0,4.78-2.8,2.57-7a6.64,6.64,0,0,0-.57-.62c-2.16-1.85-8.69-.65-8.52,5.48a439.76,439.76,0,0,0-44.37,37.56,381.91,381.91,0,0,0-27.7,29.8c-23.13,1.15-30.21,2.4-43.06,4.66-9.08-15.69-15.71-30.21-19.29-42.86-3.75-13.25-3.85-23.36-.77-30.38l-.77,1.78-.65,1.53c-2.93,7-2.78,16.93.89,29.91C627,452.59,633.79,467.33,643.07,483.26Z"/><path class="cls-1" d="M684.88,465.11a363.19,363.19,0,0,1,25-26.8q8.18-7.94,16.82-15.4a4.61,4.61,0,0,0,4.69-.42c3.08-2,4-6.11,1.86-8-2.6-2.28-8.69.58-8.1,6.13q-8.64,7.45-16.83,15.39-13.15,12.75-24.15,25.78c-19.43,1.4-22,1.82-36.14,4.15-26.66-48.25-20.79-64.55-18-72.39l-1.63,3.23c-9.21,21,9.51,55.89,18.5,72.64C660.45,467.14,663.66,466.6,684.88,465.11Z"/><path class="cls-1" d="M657,441.56c7-1.05,16.42-2.17,23.48-2.9q8.3-9.44,17.78-18.64,8.19-7.93,16.87-15.32a4.37,4.37,0,0,0,4.5-.48c3-2,4.23-6,2.29-7.79-2.33-2.17-8.32.69-8.11,6.05q-8.68,7.38-16.88,15.32-9,8.68-16.86,17.6c-6.5.66-15.15,1.78-21.62,2.7C651.82,425.63,646.91,414,644,403.6c-4.57-16.13-4-27.84,1-35.2l-2,3.05c-4.81,7.35-5.33,18.95-.83,34.86C645.11,416.92,650.16,428.8,657,441.56Z"/><path class="cls-1" d="M663,427.74c4.78-.74,11.19-1.46,16-2q6.65-7.33,14-14.5a339,339,0,0,1,45-36.61,4.81,4.81,0,0,0,4.58-.22h0s4.82-2.62,3.35-6.48a6.17,6.17,0,0,0-.44-.57c-2.16-2.08-8.52.32-8.68,5.14a333.79,333.79,0,0,0-45,36.55q-6.87,6.64-13.08,13.46c-4.24.45-9.85,1.28-14.08,1.83a176.81,176.81,0,0,1-12.77-31.37c-4.81-17-4-29.14,1.68-36.5l-2.23,3c-5.47,7.36-6.26,19.39-1.51,36.18A178.68,178.68,0,0,0,663,427.74Z"/><path class="cls-1" d="M708,330.26a8.6,8.6,0,0,0-2.41,3.32c-.58,2.1,1.61,2.18,3.94.92a10.57,10.57,0,0,0,4.6-4.66c.4-1.12.25-2.86-3.22-1.5-2.88-16,.41-26.57,8.82-31.8l-3.14,2C708.3,303.83,705.09,314.37,708,330.26Z"/><path class="cls-1" d="M744.22,339.78c-5.05,4.27-3.43,7.78.09,8a9.59,9.59,0,0,0,3.57-.69h0c2.84-1.16,7.45-4.91,5.25-8.36-1.41-1.25-3-1.41-5.84-.59a142.28,142.28,0,0,1-6.21-17.2c-6.21-21.95-2.51-35.39,9-40.53l-3.37,1.53c-11.33,5.27-14.92,18.73-8.74,40.59A143.74,143.74,0,0,0,744.22,339.78Zm5.42.44c1.78.7.8,3.25-1.72,4.45-1,.48-2.89.94-3.62-.36C743.49,342,747.55,339.39,749.64,340.22Z"/><path class="cls-1" d="M701.32,355.65a8.46,8.46,0,0,0-1.83,3.16c-.63,2.63,1.57,3.54,4.45,1.84h0a9.28,9.28,0,0,0,3.86-4.45c.68-2,0-4.16-3.68-2.66q-1.53-4.28-2.67-8.31c-5.81-20.51-3.36-33.93,5.79-40.42l-3,2.19c-9,6.56-11.33,19.95-5.57,40.33C699.41,350,700.3,352.8,701.32,355.65Z"/><path class="cls-1" d="M687.07,351.3a11.7,11.7,0,0,0,4.25-5.21c.36-1.19.19-3-3.05-1.28-2.7-15-.08-25.27,7-31l-2.92,2.38c-6.94,5.74-9.47,16-6.8,30.83a9.42,9.42,0,0,0-2.19,3.61C682.88,352.87,684.93,352.77,687.07,351.3Z"/><path class="cls-1" d="M996.78,488.34c.52,3.59,3.88,4.36,6.09,1.4a5.68,5.68,0,0,0-.44-7.22c-1.84-.59-2.28-.73-4.14.82q-1.53-1.11-3.06-2.25c-10.57-7.84-21.07-16.28-31.37-25.12-31.69,43.13-72.63,90.38-116.58,133-2.57,2.48-5.11,4.93-7.65,7.33.54,19.45,1.44,38.89,1.91,58.33-1.08.47-2.72,1.17-3.1,2.91-.73,3.45,4.59,6.18,8.38,4.3,1.95-1,4.5-5-1.43-7.22-1.56-39.89-1.56-39.89-2.08-57q3.29-3.14,6.61-6.35C893,549.43,933,503,964,460.19c9.78,8.33,19.75,16.29,29.76,23.72a10.3,10.3,0,0,1,3,3A13.4,13.4,0,0,0,996.78,488.34Z"/><path class="cls-1" d="M824.73,666.81c-.69,3,3.92,5.91,8.17,4.27,1.93-1,4.43-4.5-1.37-6.82-.93-23.94-2.08-47.87-2.8-71.82q5.31-5,10.73-10.28c46.48-45.07,90.45-94.59,124.2-138.47,8.3,7.31,16.76,14.36,25.3,21-.58,4.26,1.33,5.19,2.52,5.36,2.33.33,6.55-4.26,3-8.65-1.79-.87-2.32-.52-4.08.62-9.06-7.09-18-14.59-26.79-22.37C929.21,483.74,884.2,534,836.87,579.87q-5.94,5.76-11.75,11.26c.33,12.58.33,12.58,2.9,73C826.79,664.54,825.12,665.17,824.73,666.81Z"/><path class="cls-1" d="M773.3,726.18c-.15-.42-.15-.42-.66-.77-2.6-1.4-6.4-1.94-7.44-1.34-.07,1.23,3.74,2.09,4.9,2.32,23.15,13.77,34.56,16.34,42.12,18L816,745c-11.22-1.81-26.07-8-43.56-18.47C773,726.49,773,726.49,773.3,726.18Z"/><path class="cls-1" d="M794.4,740.13l-.31-.14a68.9,68.9,0,0,0-8.66-2,28.84,28.84,0,0,0,4.56,1.32,72.14,72.14,0,0,0,7.12,2.07l2.23.5,1.7.37a71.45,71.45,0,0,1-8.23-2.32C794.16,740.21,794.23,740.19,794.4,740.13Z"/><path class="cls-1" d="M760.32,726.91c0-.23,0-.23-.46-.49a22.26,22.26,0,0,0-7.09-2.15l-.14.15c.67.66,3.3,1.55,4.4,1.91a127.69,127.69,0,0,0,23.79,10.75l4,1.18c-7.3-2.14-15.89-5.93-25.53-11.35A2,2,0,0,0,760.32,726.91Z"/><path class="cls-1" d="M765.45,731.92h0l6.66,2.37.1,0-.23-.09C769.8,733.45,767.62,732.71,765.45,731.92Z"/><path class="cls-1" d="M738.83,715.46a16,16,0,0,0-3.73-1.66q-4.62-3.18-9.44-6.76c-7.5-5.56-14.95-11.56-22.25-17.85-16.95-7.06-22.57-10.42-28.11-14.89l.78.77.17.16c5.69,5.16,14.23,9.12,26.62,14.58,7,6,14,11.67,21.19,17q4.71,3.5,9.21,6.6h-.45c0,.11,0,.26,0,.38A15.57,15.57,0,0,0,737.3,716c1.36.41,1.42.39,2.15.16A3.47,3.47,0,0,0,738.83,715.46Z"/><path class="cls-1" d="M631.54,577c6-2.35,20-7.84,78.21-3.36,2.14,3.9,5.33,2.7,6.07,2.17,0,0,3.51-2.85.19-7.24-3-2.75-5.75-1.42-6.68,1.45-49.57-2.2-63.53-.86-78,4-12.36-18.35-21.21-35.33-25.16-49.3A54.79,54.79,0,0,1,604,512.31l.17,3.66a55.45,55.45,0,0,0,2.15,11.76C610.23,541.68,619.12,558.67,631.54,577Z"/><path class="cls-1" d="M630.71,552.86c12.76-4,27.23-6.26,59.87-5.07,1.91,3.9,4.79,2.74,5.65,2,0,0,3.33-3.07.3-7.49-2.47-2.45-5.24-1.68-6.29,1.76-39.7-.1-48.43,2.43-59.48,5.63-11.58-18-19.89-34.52-23.81-48.4-2-7.13-2.78-13.18-2.37-18.15l-.22,2.83-.05.74c-.32,4.83.44,10.67,2.38,17.52C610.62,518.17,619,534.83,630.71,552.86Z"/><path class="cls-1" d="M1026.74,358c-1.68.79-2.24,7.78-.64,8,.55.07,1.09-.88,1.37-2.41a11.51,11.51,0,0,0-.26-5.18,83.62,83.62,0,0,0-.2-21.54A82.6,82.6,0,0,1,1026.74,358Zm.26,4.53c-.1.62-.39,1.6-.83,1.33-.74-.74-.12-4,.47-3.94.38,0,.56,1.35.36,2.61Z"/><path class="cls-1" d="M885.11,289.36a84.16,84.16,0,0,0,3.37,9.55c5.08,1.49,11.86,3.46,16.95,5-1.82,1.7,2.19,3.07,5.87,3.31h0c2.23.15,8.14-.15,6.39-2.38-2.73-2-7.51-1.92-8-1.91-2.71.06-2.71.06-18-4.49a83.52,83.52,0,0,1-3.11-8.9c-4.95-17.49.25-26.26,12.87-26.58L916.57,266c.08,0,8.14,2.48,10.4,2.86-1-1.15-11.25-3.85-28.43-6.56C885.46,262.45,880,271.39,885.11,289.36Zm29,15.24c1,.46.89,1-.14,1.31a7.79,7.79,0,0,1-2.27.22h0c-1-.05-3-.33-3.46-1.13C907.86,303.73,912.2,303.65,914.15,304.6Zm3.76-38.51a39.7,39.7,0,0,1,6.14,1.77,39.69,39.69,0,0,1-4.17-1.06,15.92,15.92,0,0,1-2.06-.69A.13.13,0,0,1,917.91,266.09Z"/><path class="cls-1" d="M1011.25,321.62c.39.41.65.66,3,2.84,1.53,1.39,3,2.8,4.58,4.19q4.14,4,8.15,8.17-4-4.2-8.1-8.19A86.63,86.63,0,0,0,1011.25,321.62Z"/><path class="cls-1" d="M1023.4,333.35c.41.39.83.77,1.24,1.17l-.37-.36C1024,333.88,1023.69,333.62,1023.4,333.35Z"/><path class="cls-1" d="M1024.64,334.52l2.37,2.3-1.64-1.61C1025.13,335,1024.88,334.75,1024.64,334.52Z"/><path class="cls-1" d="M1010.63,322c1,1,7.84,6.81,7.91,6.87,1.64,1.48,3.25,3,4.86,4.52-1.6-1.53-3.2-3.07-4.83-4.55A90.19,90.19,0,0,0,1010.63,322Z"/><path class="cls-1" d="M1003.77,319.37c-1.31-1-7.67-5.36-8.56-5.28a32.09,32.09,0,0,0,3.5,2.37c.15.1,3.64,2.3,5.06,3.06A251.74,251.74,0,0,1,1025,335.17l2,1.65-3.13-2.6Q1014.15,326.26,1003.77,319.37Z"/><path class="cls-1" d="M1018.73,328.7a92,92,0,0,0-7.81-6.93c.41.41.67.66,3.11,2.82,1.55,1.37,3.09,2.76,4.66,4.14q4.23,3.93,8.32,8.09C1024.3,334,1021.53,331.34,1018.73,328.7Z"/><path class="cls-1" d="M995.25,315a29.16,29.16,0,0,0,3.52,2.3c.37.23,3.66,2.22,5,2.91,3.38,2.22,7.21,4.91,11,7.66q-5.39-3.71-11-7.12c-1.35-1-7.75-5-8.48-4.78a25.18,25.18,0,0,0,3.53,2.23c.15.09,3.58,2.08,5,2.74,4.85,2.93,9.6,6.07,14.25,9.35,3.13,2.29,6.17,4.55,8.85,6.55A246.56,246.56,0,0,0,1003.79,320C1002.45,319,996.06,314.81,995.25,315Z"/><path class="cls-1" d="M1082,487c-1.77-5.68-4.12-13.27-6-18.93.41-4.3-1-10.48-2.78-10.33-2.32,2.11-.53,12.74,1.3,13.17.4.1.59-.16.84-.48,1.93,5.94,4.5,13.87,6.27,19.86,8.9,1.47,15.57.24,19.52-3.75l2,7.7c0,1.1.13,6.7.92,8.82l.31.07c.56-1.47.44-5.25.39-6.37a25.87,25.87,0,0,0-1-6.63l-.31-.08a4.68,4.68,0,0,0-.27,1.48c-.68-2.53-1.58-5.92-2.26-8.46C1097.21,487.06,1090.73,488.36,1082,487Zm-7.61-19.39c-1.37-.62-1.45-6.22-.66-6.59.58-.27,1.3,1.72,1.41,3.87h0C1075.22,465.93,1075.12,467.67,1074.43,467.6ZM1104,493.31a8.31,8.31,0,0,1,.5,3h0a12.42,12.42,0,0,1-.17,3.51c-.28.31-.49-1.64-.56-2.71C1103.59,495.14,1103.67,493,1104,493.31Z"/><path class="cls-1" d="M1081.6,520.59c.47.08,1.64-.24,2.46-4.79,6.08.63,11.09,0,14.89-1.92.18,3.14.48,4,.91,4.35,1.2-.17,1.39-5.86,1.4-6.11h0c0-.6.14-6-1-7.25H1100l-.19.22c-.4.87-.69,2.09-.88,5.44-3.74,1.9-8.68,2.53-14.69,1.9-.3-6-2-5.54-2.55-4.89C1079.64,509.79,1079,520.17,1081.6,520.59ZM1100,508.35c.11-.2.28-.31.45.22a10.6,10.6,0,0,1,.28,2.95h0c0,1-.15,3-.59,3.37C1099.27,515.17,1099.46,509.28,1100,508.35Zm-17.83,2.19c.73-.35,1.24,1.58,1,3.83-.1,1.06-.49,2.86-1.27,2.87C1080.4,516.78,1081.17,511,1082.15,510.54Z"/><path class="cls-1" d="M971.84,533.93a3.71,3.71,0,0,0,2.8,2.17c3.06.47,8-4.32,3.77-9.19-4.83-2-6.53,2.44-6.93,3.84-9.06,2.23-21.23,4.84-30.38,6.67a686.25,686.25,0,0,1-50.66,58.94c.77,17.1.77,17.1,1.42,37.9q6.46,4.63,12.71,8.9a384.63,384.63,0,0,1-30.87,26c-5.06-.88-6.83,1.49-7.25,2.24-2,3.47,3.42,6.41,7.77,4.25,3.29-1.63,2.29-4,2-4.81a377,377,0,0,0,33.46-28.35q-6.95-4.66-14.17-9.84c-.33-10.58-.88-24.69-1.36-35.26a660.41,660.41,0,0,0,48.57-56.92C951.49,538.72,963.13,536.05,971.84,533.93Z"/><path class="cls-1" d="M939.34,603.24c-.61,4.28,4.39,6.24,8,3.14h0a5,5,0,0,0,1.39-6.27c33.86-41.92,59.45-88.92,74-133.68,0-.21-3.74-21.63-2.92-23.57a5.58,5.58,0,0,0-.94-5.76,2.81,2.81,0,0,0-2,0c-1.84,1.09-3.8,7.5.34,8.51,1,6.27,2.42,14.63,3.48,20.9-15,44.13-40.73,90.46-74.41,131.92C940.15,598.05,939.37,603,939.34,603.24Z"/><path class="cls-1" d="M660.78,354c2.09-2.12,5-5.91,4.47-6.6-.38,0-.83.26-2,1.31a21.79,21.79,0,0,1,5-9.68l-2.54,2.78a21.84,21.84,0,0,0-4.83,9.47c-2.35,2.95-2.64,3.9-2.63,4.4l.14.09C658.68,355.66,659.23,355.53,660.78,354Z"/><path class="cls-1" d="M793.85,680.17a3.67,3.67,0,0,0,1.78-1.31c1.34-2.24-1.9-5.84-6.77-5.07q-8.21-6.51-16.3-13.36c-2.78-37.52-2.78-37.52-3.79-53q7.93-7.38,16.43-15.4a6.34,6.34,0,0,0,2.25.54c3.4.08,7.14-3.72,3.28-8.15a8,8,0,0,0-1.72-1.11c-3.65-1.48-8.42,1.49-6.27,6.39q-8.94,8.49-17.25,16.28c1,16.36,1,16.36,4,55q8.49,7.22,17.13,14.07c-.07.14-.18.31-.24.46C785.28,678.43,790.14,681.43,793.85,680.17Z"/><path class="cls-1" d="M878.57,688a5.55,5.55,0,0,0-2.46-1.94c-6.87-2.09-12.48,2.37-10.76,5.61.11.2.31.44.44.63a246.19,246.19,0,0,1-32.25,16.5q9.62,6.12,18.54,11.07c-3.47,2.38,0,3.8,1.66,4.14a15.79,15.79,0,0,0,6.19-.14c3.84-.92,5.15-3.08,2.71-4.44-.82-.45-3.22-1.42-7.88-.55q-8-4.44-16.53-9.8a247.35,247.35,0,0,0,29.87-15.32C875.05,695.68,880.37,691.21,878.57,688Zm-7.08-.21c2.74-.42,4.82,1.2,3.63,2.86a3.16,3.16,0,0,1-1.1.91,5.14,5.14,0,0,1-4.66,0C867.43,690.19,869,688.17,871.49,687.77Zm-15.33,32.37c2.47-.5,5,.36,4.31,1.49a3,3,0,0,1-1.58,1,6.77,6.77,0,0,1-4.37-.17C853,721.52,854.47,720.49,856.16,720.14Z"/><path class="cls-1" d="M988.71,700.65A241.66,241.66,0,0,0,1009,683c1.4-1.37,2.79-2.74,4.16-4.14a13.19,13.19,0,0,0,4.23-2.86s4.06-4,2.07-4.62c-2.83.21-8.24,5.36-7.72,7.35q-2.06,2.09-4.16,4.14-8.55,8.26-17.6,15.49a88.32,88.32,0,0,1-12.07-2.21c1.85-5,3.5-12,5.35-17.06.2-.57.83-.56,1.22-.87,1.64-1.34,2.68-3,2.6-4.1-.19-2.6-5.3-1.18-8.17,2.27-1.81,2.18-1.74,4.29,1.25,4-1.44,5.39-3.77,12.46-5.61,17.74A86.16,86.16,0,0,0,988.71,700.65Z"/><path class="cls-1" d="M1054.5,644c-2.28,1-6.94,7.34-6.16,8.43.35,0,.45,0,1.25-.57-5.71,13-9.62,18.64-19,27.62l2.88-2.75h0l3.87-3.85c3.34-3.9,7.92-9.15,10.06-13.77,1.31-2.83,2.7-6.79,4.37-9.43.59-.94,1.39-1.73,2-2.67,1.35-2.24,1.26-2.69,1-3Z"/><path class="cls-1" d="M1038.18,672l-.86.86h0Z"/><path class="cls-1" d="M707.83,681.79h0c1.51-.27,2.51-2.11-.88-4.82-3.12-2-5.14-1.46-5.52,0-27.59-8.44-34.15-11.58-35.61-12.71l.89,1c6.25,4.11,28.39,11.1,35,13.14A6.8,6.8,0,0,0,707.83,681.79Zm-3.57-4.53c1.66,0,3.63,2,2.76,2.81a1,1,0,0,1-.34.2h0a3,3,0,0,1-2.61-.87C702.87,678.24,703.18,677.28,704.26,677.26Z"/><path class="cls-1" d="M732.08,599.29c2.28,3.74,5.53,2.86,6.49,2.26,0,0,3.73-2.63.2-6.9-3.24-2.75-6.22-1.53-7.13,1.19-62.8-4.5-81.75-5.86-97.65.68-12.69-18.11-21.77-34.92-25.62-48.5a61,61,0,0,1-1.39-6l.65,3.76c.31,1.62.72,3.34,1.23,5.14,3.82,13.5,12.91,30.25,25.6,48.27C640.15,596.26,650.75,590.87,732.08,599.29Z"/><path class="cls-1" d="M824.15,406.24a622.12,622.12,0,0,0-86.46,69.7c-1.43,1.39-2.85,2.77-4.25,4.16-5.39-1.84-6.86,3.47-6.93,3.7-1.1,4.17,2.48,7.88,6.61,5.32,2-1.39,2.8-3.61,2.28-6.58,1.4-1.38,2.82-2.77,4.25-4.15a642.28,642.28,0,0,1,89.11-71.86c-29.54-36.7-51-71.85-58.56-98.38-6.37-22.49-1.75-35.55,11.34-39.43l-3.49,1.06c-12.94,4-17.45,17.15-11.1,39.6C774.36,335.57,795.32,370.09,824.15,406.24Z"/><path class="cls-1" d="M793.3,300.56c8.1,28.62,33.41,67.83,67.56,107.73A831.15,831.15,0,0,0,754,495.64a20.54,20.54,0,0,1-4.92,3.86c-4.86-.78-6.13,2.82-6.4,3.94-1,4.1,2.91,7.89,7.06,5.4,2-1.39,2.78-3.6,2.14-6.58q2.1-2.07,4.25-4.15a867.13,867.13,0,0,1,109.29-89.62c-34.75-40.27-60.58-80-68.75-108.86-6.43-22.7-.93-35.16,13.58-37.68l-3.61.67C792.27,265.31,786.88,277.86,793.3,300.56Z"/><g id="Layer_2" data-name="Layer 2"><polygon class="cls-1" points="932.48 390.19 924.09 403.37 923.94 449.73 924.17 589.74 951.93 589.74 951.93 390.19 932.48 390.19"/></g><g id="Layer_3" data-name="Layer 3"><polygon class="cls-1" points="923.94 403.95 852.22 518.23 852.22 548.92 861.83 548.89 923.98 449.71 923.94 403.95"/></g><g id="Layer_6" data-name="Layer 6"><polygon class="cls-1" points="780.35 403.37 771.96 390.19 752.5 390.19 752.5 589.74 780.27 589.74 780.5 449.73 780.35 403.37"/></g><g id="Layer_7" data-name="Layer 7"><polygon class="cls-1" points="780.5 403.95 780.46 449.71 842.61 548.89 852.22 548.92 852.22 518.23 780.5 403.95"/></g><path class="cls-1" d="M1192.75,789.42V723.13a4.37,4.37,0,0,1,4.43-4.31h0a5.56,5.56,0,0,1,4.71,2.58l31.93,51.05h-5.13l32.08-51.29a5,5,0,0,1,4.28-2.34h0a4.65,4.65,0,0,1,4.71,4.59v67.25a5.29,5.29,0,0,1-5.36,5.22h0a5.29,5.29,0,0,1-5.36-5.22V737.14l2.51.67-25,39.93a5.11,5.11,0,0,1-4.34,2.37h0a8.35,8.35,0,0,1-7.1-3.89l-24-38.41,2.4-.67V791.9a4,4,0,0,1-4.09,4h0A6.56,6.56,0,0,1,1192.75,789.42Z"/><path class="cls-1" d="M1299.42,797a24.37,24.37,0,0,1-12-3,21.09,21.09,0,0,1-8.28-8.16,24.11,24.11,0,0,1-3-12.1V743.14h10.27v30.2a16.92,16.92,0,0,0,1.54,7.49,10.81,10.81,0,0,0,4.5,4.83,14,14,0,0,0,7,1.67q6,0,9.47-3.72t3.43-10.27v-30.2h10.26v30.64a24.11,24.11,0,0,1-3,12.1,21.32,21.32,0,0,1-8.16,8.16A24,24,0,0,1,1299.42,797Z"/><path class="cls-1" d="M1346.77,797a30.88,30.88,0,0,1-8.61-1.17,29,29,0,0,1-7.48-3.33,25.18,25.18,0,0,1-5.93-5.16l6.62-6.44a18.89,18.89,0,0,0,6.84,5.27,21.15,21.15,0,0,0,8.68,1.72c3.19,0,5.66-.53,7.41-1.61a5,5,0,0,0,2.62-4.5,5.31,5.31,0,0,0-2.11-4.49,18,18,0,0,0-5.41-2.67q-3.32-1.05-7-2.11a39.76,39.76,0,0,1-7-2.72,14.83,14.83,0,0,1-5.42-4.55,12.67,12.67,0,0,1-2.11-7.66,14.26,14.26,0,0,1,2.4-8.27,15.39,15.39,0,0,1,6.67-5.39,25.62,25.62,0,0,1,10.33-1.88,28.19,28.19,0,0,1,11.35,2.16,19.82,19.82,0,0,1,8.16,6.5l-6.62,6.44a15.07,15.07,0,0,0-5.65-4.44,17.8,17.8,0,0,0-7.58-1.56c-3,0-5.24.5-6.79,1.5a5,5,0,0,0-.29,8.27,18.66,18.66,0,0,0,5.42,2.44c2.24.67,4.58,1.35,7,2.06a35.43,35.43,0,0,1,7,2.83,15.53,15.53,0,0,1,5.43,4.77,13.49,13.49,0,0,1,2.11,7.89,14.28,14.28,0,0,1-5.42,11.77Q1355.91,797,1346.77,797Z"/><path class="cls-1" d="M1366.39,752.24v-9.1h37v9.1Zm13.35,43.64V721H1390v74.84Z"/><path class="cls-1" d="M1430.17,797a25.7,25.7,0,0,1-13.46-3.61,26,26,0,0,1-9.53-9.83,29.86,29.86,0,0,1,0-28,26.58,26.58,0,0,1,9.47-9.88,25.4,25.4,0,0,1,13.52-3.66,23.8,23.8,0,0,1,11,2.49,20.74,20.74,0,0,1,7.81,6.89,19.85,19.85,0,0,1,3.31,10.16v15.87a20.07,20.07,0,0,1-11,17A24,24,0,0,1,1430.17,797Zm1.71-9.44a16,16,0,0,0,12.32-5q4.68-5.06,4.68-12.94a20.34,20.34,0,0,0-2.11-9.49,15.55,15.55,0,0,0-6-6.33,18.86,18.86,0,0,0-18.09.06,16.47,16.47,0,0,0-6.15,6.38,18.86,18.86,0,0,0-2.23,9.27,19.11,19.11,0,0,0,2.23,9.38,16.44,16.44,0,0,0,6.21,6.39A17.82,17.82,0,0,0,1431.88,787.55Zm16.32,8.33V781.66l1.93-12.87L1448.2,756V743.14h10.38v52.74Z"/><path class="cls-1" d="M1487.55,797a26,26,0,0,1-23.1-13.44,29.86,29.86,0,0,1,0-28,26.43,26.43,0,0,1,9.53-9.88,25.47,25.47,0,0,1,13.46-3.66,24,24,0,0,1,11.12,2.49,19.9,19.9,0,0,1,11,17.05v15.87a20.35,20.35,0,0,1-3.25,10.11,20.1,20.1,0,0,1-7.76,6.94A23.74,23.74,0,0,1,1487.55,797Zm1.6-9.44a16,16,0,0,0,12.32-5q4.68-5.06,4.68-12.94a20.22,20.22,0,0,0-2.11-9.49,15.68,15.68,0,0,0-5.93-6.33,17.18,17.18,0,0,0-9-2.28,17.4,17.4,0,0,0-9.07,2.34,16.94,16.94,0,0,0-6.22,6.38,18.57,18.57,0,0,0-2.28,9.27,18.8,18.8,0,0,0,2.28,9.38,17,17,0,0,0,6.22,6.39A17.49,17.49,0,0,0,1489.15,787.55ZM1505.58,818V782.66l1.83-12.88L1505.58,757V743.14h10.27V818Z"/><path class="cls-1" d="M1524.06,795.88V716.6h10.27V756l-1.94,12.77,1.94,12.87v14.22Zm28.52,1.11a24.47,24.47,0,0,1-11.12-2.5,20.39,20.39,0,0,1-7.93-6.94,20,20,0,0,1-3.31-10.11V761.57a19.54,19.54,0,0,1,3.37-10.16,21,21,0,0,1,8-6.89,24.21,24.21,0,0,1,11-2.49,25.19,25.19,0,0,1,13.41,3.66,26.19,26.19,0,0,1,9.41,9.88,30.32,30.32,0,0,1,0,28,25.77,25.77,0,0,1-9.41,9.83A25.43,25.43,0,0,1,1552.58,797Zm-1.71-9.44a16.72,16.72,0,0,0,15.18-8.72,20.33,20.33,0,0,0,0-18.71,16.65,16.65,0,0,0-6.16-6.38,17.26,17.26,0,0,0-8.9-2.28,17.5,17.5,0,0,0-9,2.28,15.81,15.81,0,0,0-6,6.38,21.52,21.52,0,0,0-.06,18.71,15.77,15.77,0,0,0,6.05,6.39A17.26,17.26,0,0,0,1550.87,787.55Z"/><path class="cls-1" d="M1608.94,797a25.73,25.73,0,0,1-13.46-3.61,26.08,26.08,0,0,1-9.53-9.83,29.86,29.86,0,0,1,0-28,26.66,26.66,0,0,1,9.47-9.88,25.4,25.4,0,0,1,13.52-3.66,23.74,23.74,0,0,1,11,2.49,20.77,20.77,0,0,1,7.82,6.89,19.84,19.84,0,0,1,3.3,10.16v15.87a20.09,20.09,0,0,1-11,17A24.07,24.07,0,0,1,1608.94,797Zm1.71-9.44a16,16,0,0,0,12.33-5q4.66-5.06,4.67-12.94a20.22,20.22,0,0,0-2.11-9.49,15.49,15.49,0,0,0-6-6.33,18.84,18.84,0,0,0-18.08.06,16.43,16.43,0,0,0-6.16,6.38,18.86,18.86,0,0,0-2.23,9.27,19.11,19.11,0,0,0,2.23,9.38,16.39,16.39,0,0,0,6.22,6.39A17.78,17.78,0,0,0,1610.65,787.55Zm16.32,8.33V781.66l1.94-12.87L1627,756V743.14h10.38v52.74Z"/><path class="cls-1" d="M1647.73,795.88V716.6H1658v79.28Z"/><path class="cls-2" d="M902.81,773.79s.58-40,43.44-23.91c3.22-16.21,14.22-25.49,31-26.11s35.9,23.07,35.9,23.07,4.48-11.18,15.37-11.91,17.07,14.45,17.07,14.45l-16.58,26.68L1003.44,802l-44.6,4.28-17.41-3.17"/><path class="cls-1" d="M1001.64,891.85h-.92c-9.24-.21-16.14-2.71-22.81-5.13-7-2.52-13.54-4.9-22-4-5.65.58-10.12,1.38-13.72,2-7.24,1.29-12,2.15-17.87-.23-16.25-6.63-22.72-20.86-28.43-33.41-2.48-5.45-4.81-10.59-7.7-14.38-10.74-14.14-14.83-24.88-3.94-37.93,11.49-13.78,33-8.23,33.94-8l-1,3.4c-.2,0-20.18-5.18-30.17,6.8-8.51,10.21-7.53,18.37,4,33.61,3.12,4.11,5.54,9.42,8.1,15,5.43,12,11.6,25.5,26.52,31.58,4.83,2,8.73,1.28,15.81,0,3.65-.65,8.2-1.46,14-2.06,9.28-1,16.23,1.56,23.62,4.23,6.39,2.32,13,4.71,21.62,4.91,7.75.19,12.21-2.18,16.9-4.68,6.12-3.27,12.45-6.65,25.67-3.55,2,.47,3.9.93,5.67,1.36,17.87,4.34,23.26,5.65,36.39-8.25,3.21-3.4,6-6.56,8.53-9.35,9.47-10.57,15.72-17.56,27.61-20.79,13.8-3.76,23.55-15.82,27.46-34,3.85-17.94-4-33.72-4.13-33.88l-.51-1,.7-.88c.09-.1,8.44-10.5,16.4-19.92,8.27-9.79-1.83-34.65-6.45-42.6a74.94,74.94,0,0,1-3.81-8.61c-4.1-10.28-9.73-24.36-20.48-29.49l1.59-3.17c12,5.73,18,20.56,22.28,31.38a71.82,71.82,0,0,0,3.58,8.15c3.91,6.73,16.4,34.37,6.09,46.58-6.62,7.83-13.5,16.34-15.65,19,1.77,3.94,7.52,18.5,3.94,35.14-4.2,19.5-14.86,32.51-30,36.64-10.83,2.95-16.48,9.26-25.84,19.71-2.51,2.81-5.36,6-8.6,9.42-14.59,15.44-22,13.64-39.94,9.28l-5.64-1.35c-11.85-2.78-17,0-23.08,3.21C1014.71,889.25,1009.83,891.85,1001.64,891.85Z"/><path class="cls-1" d="M1099.62,845.05l-2.69-.59c-1.77-.4-4.37-1-7.7-1.86a89.84,89.84,0,0,1-11.92-4,43.82,43.82,0,0,1-14-9.3,73.93,73.93,0,0,1-6.09-7.47,53.46,53.46,0,0,0-6.85-7.3,110.86,110.86,0,0,1-8-7.85c-2.6-2.86-5.1-5.92-7.58-9.07-5-6.3-10.11-12.85-15.45-19.8a56.71,56.71,0,0,1-7.19-11.79c-1.87-4.41-2.88-9.69-1.52-14.82a24.06,24.06,0,0,1,8.23-12.57,32.81,32.81,0,0,1,12.94-6.49,34.83,34.83,0,0,1,13.94-.5,50.21,50.21,0,0,1,12.49,3.74,58.57,58.57,0,0,1,10.62,6,56.79,56.79,0,0,1,4.57,3.62l4.06,3.66c5.29,4.8,10.2,9.27,14.74,13.27,9.08,8,16.75,14.16,22.19,18.25s8.51,6.26,8.51,6.26-3.27-1.89-9-5.59-13.89-9.34-23.46-16.91c-4.79-3.77-9.94-8-15.44-12.57l-4.19-3.46a53.65,53.65,0,0,0-4.38-3.21,56.16,56.16,0,0,0-10-5.26c-7.12-2.88-15.49-4.53-23.26-2.44a28,28,0,0,0-10.77,5.56,19.06,19.06,0,0,0-6.45,9.84,18.26,18.26,0,0,0,1.22,11.62,53.48,53.48,0,0,0,6.43,10.79l14.9,20.09c2.36,3.2,4.69,6.26,7.08,9.1s4.89,5.37,7.45,7.92a55,55,0,0,1,6.85,8,76.6,76.6,0,0,0,5.49,7.53,42.31,42.31,0,0,0,12.7,9.56,92.72,92.72,0,0,0,11.41,4.76c3.24,1.12,5.78,1.89,7.51,2.43Z"/><path class="cls-1" d="M1135.09,705.2h-.87c-.57,0-1.41,0-2.48.06a38,38,0,0,0-8.76,1.57,39.84,39.84,0,0,0-11.45,5.63,59.23,59.23,0,0,0-10.76,11.11,66,66,0,0,0-8.28,13.06,42.1,42.1,0,0,0-3,12.22c-.38,3.67-.44,6.72-.49,8.82s-.07,3.28-.07,3.28-.31-1.13-.78-3.2a63.77,63.77,0,0,1-1.38-8.93,36.6,36.6,0,0,1,1.34-13.68,50.09,50.09,0,0,1,8.27-14.77A47.49,47.49,0,0,1,1109,708.71a36.2,36.2,0,0,1,13.41-4.48,32.56,32.56,0,0,1,9.38.19c1.08.21,1.91.39,2.46.55Z"/><path class="cls-1" d="M1120.64,695.5s-.2,1.1-.63,2.58a20,20,0,0,1-2.13,5,20.69,20.69,0,0,1-3.61,4.18c-1.15,1.05-2.06,1.73-2.06,1.73a9.47,9.47,0,0,1-.48-2.69,10.44,10.44,0,0,1,1.5-6,11,11,0,0,1,4.73-4.06A10.36,10.36,0,0,1,1120.64,695.5Z"/><path class="cls-1" d="M1114.32,780.61l.36.3c.27.23.72.6,1.47,1.16s1.81,1.27,3.28,2.27c.73.5,1.55,1.08,2.44,1.82s1.76,1.91,2.74,2.16c-.09-.27.42-.19,1.21-.69.45-.24,1.13-.74,2-1.3s1.73-1.23,2.72-2c4-3,8.92-8,14.06-13.72,3.82-4.2,7.54-8,10.67-11.69a68.1,68.1,0,0,0,7.48-10.21,27.35,27.35,0,0,0,3.19-7.87,17.24,17.24,0,0,0,.42-2.32l.12-.83.11.82a13.53,13.53,0,0,1,.2,2.41,24.49,24.49,0,0,1-1.55,8.86,50.88,50.88,0,0,1-6.3,11.83,125.68,125.68,0,0,1-10.28,12.52,86.79,86.79,0,0,1-8.07,7.92,47.12,47.12,0,0,1-7.84,5.49,33.76,33.76,0,0,1-3.33,1.6,14.89,14.89,0,0,1-2.75.9,3.61,3.61,0,0,1-2.09-.14c-.4-.18-.48-.34-.31-.39a4.33,4.33,0,0,1-1.85-1.37c-.42-.48-.8-.88-1.2-1.27-.79-.76-1.56-1.4-2.23-1.95-1.36-1.12-2.36-2-3-2.6a14.43,14.43,0,0,1-1.3-1.36Z"/><path class="cls-1" d="M1017.23,872.28l-1.08-2.12c-.37-.69-.92-1.49-1.51-2.46s-1.43-2-2.43-3.1a68.84,68.84,0,0,0-7.79-7.5c-3.22-2.76-7.07-5.75-11-9.55a50.5,50.5,0,0,1-5.65-6.56,56.59,56.59,0,0,1-4.53-8.13c-2.6-5.68-5.39-11.75-8.32-18.14l-9-20.09L961.2,784c-1.59-3.62-3.14-7.27-4.9-10.79a62.45,62.45,0,0,0-6-9.88c-2.29-3.17-4.91-6.85-5.7-11.26a21.26,21.26,0,0,1,1.37-12.36,26.09,26.09,0,0,1,6.87-9.55,24.72,24.72,0,0,1,9.92-5.43,34.27,34.27,0,0,1,10.39-1.18,49.6,49.6,0,0,1,17.81,4,40.13,40.13,0,0,1,12.36,8.24,67.31,67.31,0,0,1,7.1,8.39l5.45,7.51s-2.21-2.48-6.12-7a72.14,72.14,0,0,0-7.6-7.67,39.39,39.39,0,0,0-12.21-7,48.26,48.26,0,0,0-16.81-2.81c-6.09.1-12.53,1.67-17.15,6.24-4.66,4.34-7.68,11.25-6.28,17.65.6,3.16,2.64,6.07,5,9.24,1.17,1.58,2.42,3.31,3.51,5.1s2.1,3.63,3,5.49c1.87,3.73,3.42,7.46,5,11.08l4.54,10.72c2.93,7.05,5.76,13.84,8.45,20.32s5.16,12.66,7.51,18.43a53.93,53.93,0,0,0,3.84,7.88,47.89,47.89,0,0,0,4.91,6.44c3.53,3.88,7.15,7.13,10.19,10.14a65,65,0,0,1,7.29,8.22c.92,1.2,1.56,2.37,2.18,3.35s1,1.89,1.29,2.61Z"/><path class="cls-1" d="M966.17,877l-1.83-.63a16.31,16.31,0,0,1-2.17-.86,26.1,26.1,0,0,1-2.88-1.42,44.61,44.61,0,0,1-14.78-13.91,75.06,75.06,0,0,1-6.84-12.25,134,134,0,0,1-5.47-15c-3.37-10.57-6.3-22.41-12.58-33a54.22,54.22,0,0,0-5.26-7.39c-2-2.31-4.09-4.56-6.12-6.93a44.83,44.83,0,0,1-5.48-7.69,20.44,20.44,0,0,1,3.52-24.78,26,26,0,0,1,12.58-7.51,32.49,32.49,0,0,1,11.92-.75,39.79,39.79,0,0,1,8.64,2,50,50,0,0,1,5.13,2.13l1.7.89-1.8-.68a51.1,51.1,0,0,0-5.27-1.54,41.06,41.06,0,0,0-8.53-1.1,31.4,31.4,0,0,0-11,1.61,23.24,23.24,0,0,0-10.55,7.33,18.49,18.49,0,0,0-4.42,13.08,18.06,18.06,0,0,0,2.42,7.07,41.73,41.73,0,0,0,5.1,6.68c2,2.2,4.15,4.42,6.28,6.87a55.57,55.57,0,0,1,5.83,8.08A82.67,82.67,0,0,1,932,814.91c1.86,5.85,3.26,11.51,4.67,16.84a154.24,154.24,0,0,0,4.51,14.84,77.66,77.66,0,0,0,5.69,12.19,45,45,0,0,0,12.93,14.61,28.22,28.22,0,0,0,2.65,1.69,17.74,17.74,0,0,0,2,1.09Z"/><path class="cls-1" d="M1021.07,871.37l-10.33-9.24-10.27-9.3a40.52,40.52,0,0,1,3.64,2,49.5,49.5,0,0,1,14.67,13.2A39.13,39.13,0,0,1,1021.07,871.37Z"/><path class="cls-1" d="M1092.19,848.69l-6.09-4.7-6-4.75a13.59,13.59,0,0,1,2.3.56,16.66,16.66,0,0,1,5,2.64,16.22,16.22,0,0,1,3.74,4.19A12.62,12.62,0,0,1,1092.19,848.69Z"/><path class="cls-1" d="M1017.59,763.59s.24.32.69.95,1.14,1.52,2.08,2.63a43.12,43.12,0,0,0,26.23,14.47,18.48,18.48,0,0,0,10.25-1.27c3.19-1.49,5.91-4.44,6.15-8a12.63,12.63,0,0,0-3.94-9.62,21.28,21.28,0,0,0-9.12-4.94,57,57,0,0,0-9.65-1.75,38.08,38.08,0,0,0-8.53,0,40,40,0,0,0-6.87,1.67,14.38,14.38,0,0,0-4.73,2.32,7.36,7.36,0,0,0-2.09,2.55,9.19,9.19,0,0,0-.47,1.07,9.2,9.2,0,0,1,.39-1.11,7.51,7.51,0,0,1,1.95-2.75,14.74,14.74,0,0,1,4.73-2.67,38.77,38.77,0,0,1,6.93-2.06,37.78,37.78,0,0,1,8.81-.33,55.63,55.63,0,0,1,10,1.48,22.73,22.73,0,0,1,10,5.22,14.33,14.33,0,0,1,4.6,11.13,10.62,10.62,0,0,1-2.43,5.87,13.84,13.84,0,0,1-4.92,3.71,19.94,19.94,0,0,1-11.33,1.22,41.63,41.63,0,0,1-17.3-7.24,40.74,40.74,0,0,1-8.94-8.7c-.88-1.17-1.51-2.12-1.91-2.78Z"/><path class="cls-1" d="M958.33,765.39a7.48,7.48,0,0,0,.38.92,11.22,11.22,0,0,0,1.57,2.35c1.56,1.92,4.38,4.16,8.05,6.73a55.11,55.11,0,0,0,6.08,3.92,18.91,18.91,0,0,0,7.7,2.35,10.89,10.89,0,0,0,8-2.54,21.89,21.89,0,0,0,5.45-7.58,9.56,9.56,0,0,0,.81-4.39,6.09,6.09,0,0,0-1.61-3.77,7.47,7.47,0,0,0-3.75-1.81c-1.47-.34-3-.62-4.44-.87A55.82,55.82,0,0,0,971,760a33.18,33.18,0,0,0-10.18,2.72c-1.12.55-2,1-2.55,1.34l-.87.51.82-.58a28.82,28.82,0,0,1,2.46-1.55A32.17,32.17,0,0,1,970.83,759a53,53,0,0,1,16,0c1.5.2,3,.44,4.59.76a9.29,9.29,0,0,1,4.72,2.24c2.74,2.71,2.75,7,1.3,10.23a24.09,24.09,0,0,1-2.6,4.52,19.16,19.16,0,0,1-3.48,3.77,12.24,12.24,0,0,1-4.53,2.37,13.76,13.76,0,0,1-4.87.39,20,20,0,0,1-8.26-2.84,51.59,51.59,0,0,1-6-4.32c-3.52-2.76-6.25-5.25-7.68-7.32a11.26,11.26,0,0,1-1.39-2.51A7.07,7.07,0,0,1,958.33,765.39Z"/><path class="cls-1" d="M921.44,790.51a7.38,7.38,0,0,0,.51,1,10.36,10.36,0,0,0,2,2.38,13.88,13.88,0,0,0,4.24,2.5,21.49,21.49,0,0,0,6.44,1.23,47,47,0,0,0,8-.29,13.25,13.25,0,0,0,4.09-1.2,14.13,14.13,0,0,0,3.59-2.68,21.9,21.9,0,0,0,5.26-8.07,12.84,12.84,0,0,0,.75-4.87c-.12-1.62-.45-3.54-1.58-3.84-1.23-.45-3.26,0-5,.22s-3.57.61-5.31,1c-3.49.71-6.88,1.47-10.17,2-6.62,1-12.6.76-17.43,1.5-1.17.14-1.69.91-1.27,1.85a7.6,7.6,0,0,0,1.8,2.32,37.71,37.71,0,0,1,3.36,3.74,17.14,17.14,0,0,1,1.67,2.68c.33.64.47,1,.47,1s-.17-.34-.55-1a18.38,18.38,0,0,0-1.84-2.53,39.93,39.93,0,0,0-3.56-3.48,8.38,8.38,0,0,1-2.12-2.46,2.11,2.11,0,0,1,0-2,2.67,2.67,0,0,1,1.81-1.12c5-1,11-1,17.34-2.18,3.2-.58,6.54-1.41,10-2.18,1.76-.38,3.56-.75,5.41-1.05.93-.15,1.86-.28,2.83-.39a7.14,7.14,0,0,1,3.28.27,3.67,3.67,0,0,1,1.55,1.12,5,5,0,0,1,.8,1.53,12.73,12.73,0,0,1,.49,2.94,14.6,14.6,0,0,1-.92,5.57,22.88,22.88,0,0,1-5.9,8.65,15.49,15.49,0,0,1-4.11,2.86,14.6,14.6,0,0,1-4.6,1.18,47.09,47.09,0,0,1-8.27-.07,21.63,21.63,0,0,1-6.61-1.64,13.84,13.84,0,0,1-4.21-2.86,10.07,10.07,0,0,1-1.87-2.56A6.81,6.81,0,0,1,921.44,790.51Z"/><path class="cls-1" d="M891.74,830.2l-2.22-1.94-1.19-1a2.3,2.3,0,0,1-.61-.79,1.47,1.47,0,0,1,0-1.16,2.45,2.45,0,0,1,2-1.31,23.27,23.27,0,0,1,2.51,0,47.92,47.92,0,0,0,11.74-1.51l6.92-1.61c1.22-.26,2.44-.51,3.75-.73a6.78,6.78,0,0,1,2.26,0,3.64,3.64,0,0,1,2.23,1.32c1.9,2.74,1.24,5.87-.1,8.13a11.89,11.89,0,0,1-5.87,4.66,20.86,20.86,0,0,1-19.65-2.75,17.1,17.1,0,0,1-1.67-1.43l-.55-.53.6.47a20.74,20.74,0,0,0,9.22,4,20,20,0,0,0,11.36-1.28,10.36,10.36,0,0,0,4.87-4.06,6.91,6.91,0,0,0,.93-3.06,4.5,4.5,0,0,0-.74-2.9c-.49-.67-1.39-.75-2.59-.58s-2.45.42-3.64.65l-7,1.39a44,44,0,0,1-12.16.86c-.88-.06-1.69-.23-2.37-.21a1.76,1.76,0,0,0-1.53.79c-.3.47-.08,1,.32,1.35l1.07,1.15Z"/><path class="cls-1" d="M1132.12,779.67a10,10,0,0,0,.74-.84,19.9,19.9,0,0,0,1.77-2.64,44.43,44.43,0,0,0,4.16-10.81,68.63,68.63,0,0,0,2.31-16.89,22.17,22.17,0,0,0-2.32-9.47,16.79,16.79,0,0,0-3-4.16,11.65,11.65,0,0,0-4.27-2.86,3.73,3.73,0,0,0-4.17.78,5.46,5.46,0,0,0-1.21,4.29,19,19,0,0,0,1.42,4.75c.62,1.61,1.2,3.21,1.68,4.79a62.44,62.44,0,0,1,2.77,17.2c.15,5-.56,8.93-.48,11.66a16.6,16.6,0,0,0,.31,3.13,10.88,10.88,0,0,0,.27,1.07,9.79,9.79,0,0,1-.35-1,16,16,0,0,1-.55-3.14c-.27-2.77.18-6.76-.22-11.63a67,67,0,0,0-3.39-16.74c-.51-1.53-1.11-3.06-1.77-4.63a19.8,19.8,0,0,1-1.63-5.2,7.25,7.25,0,0,1,1.65-5.81,5.22,5.22,0,0,1,3-1.66,6.8,6.8,0,0,1,3.34.31,13.29,13.29,0,0,1,5.06,3.38,18.11,18.11,0,0,1,3.29,4.69,23.26,23.26,0,0,1,2.28,10.28,63.88,63.88,0,0,1-3,17.18,41.9,41.9,0,0,1-4.87,10.7,20.11,20.11,0,0,1-2,2.54A10.42,10.42,0,0,1,1132.12,779.67Z"/><path class="cls-1" d="M1108.11,819.26s-.22.47-.67,1.3a23.09,23.09,0,0,1-2.21,3.34,26.33,26.33,0,0,1-10.7,8.07,27.09,27.09,0,0,1-13.41,1.77,25.23,25.23,0,0,1-4-.8c-.92-.27-1.41-.45-1.41-.45l1.47.14a34.54,34.54,0,0,0,4,.12,35.88,35.88,0,0,0,12.57-2.61,35.06,35.06,0,0,0,10.72-6.89,34.66,34.66,0,0,0,2.71-2.86Z"/><path class="cls-1" d="M1102.8,828.51a9.24,9.24,0,0,1-1,1.86,11.32,11.32,0,0,1-3.81,3.44,11.54,11.54,0,0,1-5,1.39,9,9,0,0,1-2.15-.12l1.91-.84c1.15-.52,2.64-1.28,4.24-2.16s3-1.72,4.08-2.41Z"/><path class="cls-1" d="M1107.77,828.71a8.18,8.18,0,0,1-.63,1.46,9.52,9.52,0,0,1-2.39,2.91,9.82,9.82,0,0,1-3.38,1.74,8.14,8.14,0,0,1-1.59.32s.4-.48,1-1.16a28.79,28.79,0,0,1,2.62-2.43,29.53,29.53,0,0,1,2.94-2C1107.2,829,1107.77,828.71,1107.77,828.71Z"/><path class="cls-1" d="M1050.79,835.63s-.35.47-1.06,1.29a25.21,25.21,0,0,1-3.36,3.14,34.87,34.87,0,0,1-13.91,6.38,62.06,62.06,0,0,1-15.27,1.24c-3.9-.13-6.31-.37-6.31-.37l6.27-.63a121.85,121.85,0,0,0,14.84-2.17,47.5,47.5,0,0,0,13.79-5.26,31.12,31.12,0,0,0,3.72-2.56Z"/><path class="cls-1" d="M1045.53,843.21a17.14,17.14,0,0,1-2.31,2.12,21.19,21.19,0,0,1-6.81,3.5,21.86,21.86,0,0,1-7.65.82,9.33,9.33,0,0,0-2.21.06,4.2,4.2,0,0,0-.81.21,3.38,3.38,0,0,1,.69-.5,7.38,7.38,0,0,1,2.25-.76,72.29,72.29,0,0,0,7.13-1.73,66.4,66.4,0,0,0,6.88-2.45C1044.44,843.73,1045.53,843.21,1045.53,843.21Z"/><path class="cls-1" d="M1046.16,846.28a9,9,0,0,1-1.07,1.29,10.64,10.64,0,0,1-3.24,2.26,11,11,0,0,1-3.89.91,8.75,8.75,0,0,1-1.69-.06s.54-.38,1.39-.89A32.84,32.84,0,0,1,1041,848a32.16,32.16,0,0,1,3.55-1.31C1045.51,846.43,1046.16,846.28,1046.16,846.28Z"/><path class="cls-1" d="M986.84,851.28a141.86,141.86,0,0,1-15.59,6.21l-3.33.92a18.41,18.41,0,0,1-3.17.65,29.47,29.47,0,0,1-5.46,0c-3.07-.27-4.92-.64-4.92-.64l4.92-.36a44.16,44.16,0,0,0,5.19-.69,23.29,23.29,0,0,0,2.95-.84l3.16-1A142.77,142.77,0,0,1,986.84,851.28Z"/><path class="cls-1" d="M978.65,857.85a12.05,12.05,0,0,1-1.6,1.29,14.66,14.66,0,0,1-4.45,2.11,15,15,0,0,1-4.92.52,12.47,12.47,0,0,1-2.06-.26s.75-.31,1.91-.72,2.75-.95,4.51-1.44,3.38-.85,4.6-1.11S978.65,857.85,978.65,857.85Z"/><path class="cls-1" d="M983.07,860.45a9.69,9.69,0,0,1-1.36,1,11.45,11.45,0,0,1-3.69,1.48,11.89,11.89,0,0,1-4,.13,10.61,10.61,0,0,1-1.66-.36A27.35,27.35,0,0,1,977.6,861,27.69,27.69,0,0,1,983.07,860.45Z"/><path class="cls-1" d="M931.3,858.9l-3.26,1A60.31,60.31,0,0,1,920.1,862a19.25,19.25,0,0,1-8.41-.29,12.66,12.66,0,0,1-2.37-.93c-.52-.29-.8-.47-.8-.47l.91.17a18.2,18.2,0,0,0,2.43.26,38,38,0,0,0,7.9-.7c3.07-.53,6-1,8.09-1.15A22.07,22.07,0,0,1,931.3,858.9Z"/><path class="cls-1" d="M931.3,864.25a71.45,71.45,0,0,1-7.82,1.32,70.18,70.18,0,0,1-7.93.37,17.51,17.51,0,0,1,2.16-1,22.31,22.31,0,0,1,5.54-1.35,22.07,22.07,0,0,1,5.71.15A18.74,18.74,0,0,1,931.3,864.25Z"/><path class="cls-1" d="M1110.76,786s-7.35-5.16-16.18-11.67-15.9-12-15.9-12,2,1,5.21,2.75a112.28,112.28,0,0,1,22.74,16.81C1109.25,784.31,1110.76,786,1110.76,786Z"/><path class="cls-1" d="M1096.2,780.91a14.4,14.4,0,0,1-4.4-2.85,14,14,0,0,1-3-4.27,14.32,14.32,0,0,1,4.4,2.86A13.87,13.87,0,0,1,1096.2,780.91Z"/><path class="cls-1" d="M1095.61,783.64a10.52,10.52,0,0,1-4.22-1.29,10.11,10.11,0,0,1-3.18-3,10.37,10.37,0,0,1,4.22,1.28A10,10,0,0,1,1095.61,783.64Z"/><path class="cls-1" d="M1135.64,794.66s-1.5-.42-3.83-1.32a56,56,0,0,1-16.6-9.9c-1.88-1.62-2.94-2.73-2.94-2.73s5.45,2.89,11.86,6.7S1135.64,794.66,1135.64,794.66Z"/><path class="cls-1" d="M1146.15,810.05s-.08.56-.21,1.57a25.71,25.71,0,0,1-1,4.26,30.74,30.74,0,0,1-2.54,6,35.68,35.68,0,0,1-4.71,6.56,36,36,0,0,1-6.2,5.26,33.52,33.52,0,0,1-5.88,3.1,29.76,29.76,0,0,1-4.25,1.39l-1.59.37,1.48-.67a35.1,35.1,0,0,0,3.9-2,45.61,45.61,0,0,0,5.32-3.56,52.21,52.21,0,0,0,5.7-5.24,51.23,51.23,0,0,0,4.75-6.07,44,44,0,0,0,3.07-5.53,38.52,38.52,0,0,0,1.61-4Z"/><path class="cls-1" d="M1129.66,827.94l1.71-2.19c1-1.35,2.39-3.2,3.83-5.27s2.69-4,3.58-5.43l1.44-2.37a15.46,15.46,0,0,1-.5,2.75,20.19,20.19,0,0,1-2.83,6.16,20.46,20.46,0,0,1-4.8,4.86A16.34,16.34,0,0,1,1129.66,827.94Z"/><path class="cls-1" d="M1126.21,822.79l1.48-1.69c.91-1,2.13-2.39,3.52-3.85s2.69-2.77,3.66-3.74l1.6-1.57a12.74,12.74,0,0,1-.75,2.12,16.08,16.08,0,0,1-3,4.53,16.4,16.4,0,0,1-4.39,3.29A14.18,14.18,0,0,1,1126.21,822.79Z"/><path class="cls-1" d="M1123.35,817a18.64,18.64,0,0,1,8.06-7.46,13.38,13.38,0,0,1-3.2,4.58A13.82,13.82,0,0,1,1123.35,817Z"/><path class="cls-1" d="M1120.52,812.53a8.74,8.74,0,0,1,2.06-3.53,9.18,9.18,0,0,1,3.54-2.15,9,9,0,0,1-2.06,3.53A9.33,9.33,0,0,1,1120.52,812.53Z"/><path class="cls-1" d="M1117.06,806.94a1.64,1.64,0,0,1,.14-1.81,1.77,1.77,0,0,1,1.87-.13s0,1.13-.43,1.54S1117.08,806.92,1117.06,806.94Z"/><path class="cls-1" d="M993,786.6a11.1,11.1,0,0,1-2.14,1.33,13.94,13.94,0,0,1-12,.14,10.82,10.82,0,0,1-2.18-1.28s1,.16,2.46.33a51.1,51.1,0,0,0,11.42-.14C992.07,786.78,993,786.6,993,786.6Z"/><path class="cls-1" d="M921.22,875.26a11.77,11.77,0,0,1-1.35-.34,15,15,0,0,1-3.49-1.59c-2.83-1.65-6-4.94-8.65-9a71.78,71.78,0,0,1-5.93-10.74c-1.27-2.86-1.88-4.7-1.88-4.7l2.79,4.24c1.73,2.6,4.1,6.17,6.73,10.11s5.16,7.28,7.54,9.25a17.92,17.92,0,0,0,3,2.1C920.77,875.06,921.22,875.26,921.22,875.26Z"/><path class="cls-1" d="M931.44,876.1a4.7,4.7,0,0,1-1.36.84,6.34,6.34,0,0,1-3.89.36,6.26,6.26,0,0,1-3.33-2A4.5,4.5,0,0,1,922,874s.58.25,1.43.54a32.33,32.33,0,0,0,3.19.88,33,33,0,0,0,3.26.59C930.81,876.07,931.44,876.1,931.44,876.1Z"/><path class="cls-1" d="M943.06,876.5a10.08,10.08,0,0,1-8,.65,7.62,7.62,0,0,1,8-.65Z"/><path class="cls-1" d="M1000.49,883.2a13.13,13.13,0,0,1-2.34.72,17.25,17.25,0,0,1-5.93.28,16.86,16.86,0,0,1-5.63-1.8,14.06,14.06,0,0,1-2.07-1.3l2.4.36,5.58.77,5.59.7Z"/><path class="cls-1" d="M1009.9,882.84a4.43,4.43,0,0,1-.79.89,5.2,5.2,0,0,1-5.25,1,4.35,4.35,0,0,1-1.09-.51s.43-.22,1.07-.48a12.73,12.73,0,0,1,2.39-.76,14,14,0,0,1,2.5-.22C1009.42,882.81,1009.9,882.84,1009.9,882.84Z"/><path class="cls-1" d="M1014.78,881.49a2.88,2.88,0,0,1-1.63,1.39,3,3,0,0,1-2.09-.54,2.92,2.92,0,0,1,1.63-1.39A3,3,0,0,1,1014.78,881.49Z"/><path class="cls-1" d="M1081.42,866.51s-.33.57-1,1.54a29.88,29.88,0,0,1-3.26,3.87,30.68,30.68,0,0,1-6,4.68,15.78,15.78,0,0,1-4.31,1.84,11,11,0,0,1-5.16,0c-6.39-1.62-12.07-2.77-16.33-3.43s-6.87-1-6.87-1a66.29,66.29,0,0,1,7,0,83,83,0,0,1,16.64,2.48,10,10,0,0,0,4.3.1,16.13,16.13,0,0,0,3.9-1.45,37.16,37.16,0,0,0,6.16-3.95,39.25,39.25,0,0,0,3.7-3.33Z"/><path class="cls-1" d="M1090,859.25a5.13,5.13,0,0,1-.44,1.07,5.68,5.68,0,0,1-1.7,2,6.1,6.1,0,0,1-2.45,1,6,6,0,0,1-1.18.08,9.53,9.53,0,0,1,2.42-2.67A9.82,9.82,0,0,1,1090,859.25Z"/><path class="cls-1" d="M1095.94,854.53a2.88,2.88,0,0,1-1,1.9,3.06,3.06,0,0,1-2.18.29,2.89,2.89,0,0,1,1-1.91A3.07,3.07,0,0,1,1095.94,854.53Z"/><path class="cls-1" d="M1105.34,847a6.49,6.49,0,0,1-2.34,2.89,6.78,6.78,0,0,1-3.62,1.06,8.42,8.42,0,0,1,2.47-2.7A8.73,8.73,0,0,1,1105.34,847Z"/><path class="cls-1" d="M989.3,832.26s-.63-2.17-1.65-5.65-2.58-8.21-4.45-13.38-3.73-9.8-5.16-13.14l-2.35-5.41s1.37,1.82,3.26,5a75.1,75.1,0,0,1,6.17,12.93,74.05,74.05,0,0,1,3.53,13.83C989.2,830,989.3,832.26,989.3,832.26Z"/><path class="cls-1" d="M993.5,827.3a58.34,58.34,0,0,1-5.5-11.67,57.48,57.48,0,0,1-2.78-12.55s2.44,5.28,4.72,11.92S993.5,827.3,993.5,827.3Z"/><path class="cls-1" d="M997.61,819.19a30.23,30.23,0,0,1-4-6.71A29.73,29.73,0,0,1,991.6,805a30.82,30.82,0,0,1,3.95,6.71A30.2,30.2,0,0,1,997.61,819.19Z"/><path class="cls-1" d="M1003,817.56a16.26,16.26,0,0,1-3.79-5.08,15.77,15.77,0,0,1-1.46-6.12,27.07,27.07,0,0,1,3.32,5.29A26.71,26.71,0,0,1,1003,817.56Z"/><path class="cls-1" d="M1007.63,815.29a13.27,13.27,0,0,1-2.41-4.45,13,13,0,0,1-.45-5,13.27,13.27,0,0,1,2.41,4.45A13,13,0,0,1,1007.63,815.29Z"/><path class="cls-1" d="M1005,748s-1.8-1.46-4.83-3.61a71.68,71.68,0,0,0-12.42-7.17A47.34,47.34,0,0,0,974,733.4a40.38,40.38,0,0,0-4.41-.23l-1.64,0s.56-.15,1.6-.35a28.36,28.36,0,0,1,4.49-.45,34.63,34.63,0,0,1,14.59,3,44.66,44.66,0,0,1,12.24,8.22A47.53,47.53,0,0,1,1005,748Z"/><path class="cls-1" d="M996,746.73s-1-.76-2.58-1.81a41.94,41.94,0,0,0-6.49-3.46c-2.61-1.15-5.14-1.79-7.05-2.44a14.75,14.75,0,0,1-2.94-1.31s1.22.2,3.16.34a22.23,22.23,0,0,1,7.65,1.6,18.25,18.25,0,0,1,6.35,4.53A14.09,14.09,0,0,1,996,746.73Z"/><path class="cls-1" d="M991.2,748.19l-1.61-.64-3.65-1.36-3.65-1.34-1.64-.56a6.92,6.92,0,0,1,1.74-.42,9,9,0,0,1,4.28.47,8.79,8.79,0,0,1,3.52,2.41A6.41,6.41,0,0,1,991.2,748.19Z"/><path class="cls-1" d="M1055.88,747.92l-.8-.57c-.52-.36-1.29-.85-2.26-1.39a35.87,35.87,0,0,0-8-3.06c-3.24-.86-6.3-1.39-8.54-1.79l-3.65-.67s1.42-.22,3.72-.32a30.77,30.77,0,0,1,9,.86,20,20,0,0,1,8.05,4.18,14.47,14.47,0,0,1,1.88,2C1055.69,747.63,1055.88,747.92,1055.88,747.92Z"/><path class="cls-1" d="M1049.93,749l-6.82-2.33-6.83-2.26a11.41,11.41,0,0,1,2.2-.31,14.2,14.2,0,0,1,5.3.7,14,14,0,0,1,4.61,2.63A11.34,11.34,0,0,1,1049.93,749Z"/><path class="cls-1" d="M1045.63,749.38a16.66,16.66,0,0,1-4.54-.38,16.43,16.43,0,0,1-4.21-1.74,7.1,7.1,0,0,1,1.39-.32,8.83,8.83,0,0,1,3.31.13,8.44,8.44,0,0,1,3,1.39A6.83,6.83,0,0,1,1045.63,749.38Z"/><path class="cls-1" d="M1093.13,761.4l-.21-1.69c-.11-1.09-.25-2.68-.29-4.65a45.34,45.34,0,0,1,2.22-15.29,31.5,31.5,0,0,1,8.28-13.2,15.61,15.61,0,0,1,4-2.64,11.17,11.17,0,0,1,1.65-.61,13.44,13.44,0,0,0-1.49.88,17.27,17.27,0,0,0-3.44,3.06,40.36,40.36,0,0,0-7.08,13.14,70.66,70.66,0,0,0-3.13,14.7c-.21,1.93-.33,3.51-.41,4.6S1093.13,761.4,1093.13,761.4Z"/><path class="cls-1" d="M1098.1,750.21a13.74,13.74,0,0,1-.51-2.65,16.76,16.76,0,0,1,3.7-12.29,14.15,14.15,0,0,1,1.9-2s-.4,1-1,2.47-1.32,3.57-2,5.85-1.22,4.41-1.55,6Z"/><path class="cls-1" d="M1102.88,747.87a8.29,8.29,0,0,1-.45-1.61,10,10,0,0,1,.09-3.94,9.87,9.87,0,0,1,1.69-3.58,8.05,8.05,0,0,1,1.12-1.25s0,.65-.17,1.62-.32,2.27-.65,3.66-.74,2.62-1.06,3.56S1102.88,747.87,1102.88,747.87Z"/><path class="cls-1" d="M1108,746.38a3.79,3.79,0,0,1-.71-1,4.39,4.39,0,0,1-.41-2.78,4.45,4.45,0,0,1,1.4-2.45,4,4,0,0,1,1-.67s0,.47-.11,1.13-.13,1.49-.29,2.35-.41,1.66-.58,2.3Z"/><path class="cls-1" d="M922.6,815.24s-.9-.51-2.26-1.41l-5.16-3.49a35.85,35.85,0,0,0-5.26-3.05c-.73-.32-1.34-.57-1.78-.71l-.68-.24.72-.07a11.14,11.14,0,0,1,2,.06,14.24,14.24,0,0,1,6.15,2.37,22,22,0,0,1,4.69,4.4A25.16,25.16,0,0,1,922.6,815.24Z"/><path class="cls-1" d="M919.7,808.05s-.64-.32-1.58-.83-2.21-1.2-3.53-2-2.51-1.61-3.4-2.22l-1.46-1a8.44,8.44,0,0,1,1.83.09,10.84,10.84,0,0,1,4.11,1.45,10.63,10.63,0,0,1,3.14,3A8.83,8.83,0,0,1,919.7,808.05Z"/><path class="cls-1" d="M919.18,799.94l-1.08-.41a21.51,21.51,0,0,1-2.22-1,18.53,18.53,0,0,1-2-1.3l-.94-.67a3.84,3.84,0,0,1,1.17-.29,4.83,4.83,0,0,1,2.79.52,4.72,4.72,0,0,1,1.94,2A3.7,3.7,0,0,1,919.18,799.94Z"/><path class="cls-1" d="M1116.83,658.76l2,.56c1.29.4,3.15,1,5.4,1.88a37.74,37.74,0,0,1,7.62,4.09,29.05,29.05,0,0,1,7.4,7.75,77.17,77.17,0,0,1,4.9,8.88c1.33,2.77,2.44,5.32,3.33,7.49,1.77,4.33,2.63,7.13,2.63,7.13s-2-2.14-5-5.82c-1.48-1.83-3.18-4.05-5-6.57s-3.6-5.41-5.47-8.21a43.54,43.54,0,0,0-5.83-7.26,70.81,70.81,0,0,0-6-5.2l-4.42-3.42Z"/><path class="cls-2" d="M846.47,782.52s-.58-40-43.44-23.92c-3.22-16.2-14.22-25.48-31-26.1s-35.9,23.07-35.9,23.07-4.48-11.18-15.37-11.91-17.07,14.45-17.07,14.45l16.58,26.68,25.61,25.91,44.6,4.28,17.41-3.17"/><path class="cls-1" d="M747.65,900.58h.91c9.24-.21,16.14-2.71,22.81-5.13,7-2.52,13.54-4.9,22-4,5.64.58,10.11,1.38,13.71,2,7.24,1.29,12,2.15,17.87-.23,16.25-6.63,22.72-20.86,28.43-33.41,2.48-5.45,4.81-10.59,7.7-14.38,10.74-14.14,14.83-24.88,4-37.93-11.5-13.78-33-8.23-34-8l1,3.4c.2,0,20.18-5.18,30.17,6.8,8.51,10.21,7.53,18.37-4,33.61-3.12,4.11-5.54,9.42-8.1,15.05-5.43,11.95-11.59,25.5-26.51,31.58-4.83,2-8.74,1.28-15.82,0-3.65-.65-8.2-1.46-14-2.06-9.28-1-16.23,1.56-23.62,4.23-6.39,2.32-13,4.71-21.62,4.91-7.75.18-12.21-2.18-16.9-4.68-6.12-3.27-12.45-6.65-25.67-3.55-2,.47-3.9.93-5.67,1.36-17.87,4.34-23.26,5.65-36.39-8.25-3.21-3.4-6-6.56-8.53-9.35C645.85,862,639.6,855,627.71,851.78c-13.8-3.76-23.55-15.82-27.46-34-3.85-17.94,4-33.72,4.13-33.88l.51-1-.7-.88c-.09-.1-8.44-10.5-16.4-19.92-8.27-9.8,1.83-34.66,6.45-42.6a74.94,74.94,0,0,0,3.81-8.61c4.1-10.28,9.73-24.36,20.48-29.49l-1.59-3.17c-12,5.73-18,20.56-22.27,31.38a73.41,73.41,0,0,1-3.59,8.15c-3.91,6.73-16.4,34.37-6.09,46.58,6.62,7.83,13.51,16.34,15.66,19-1.78,3.94-7.53,18.5-3.95,35.14,4.2,19.5,14.86,32.51,30,36.64,10.83,3,16.48,9.26,25.84,19.71,2.51,2.81,5.36,6,8.6,9.42,14.59,15.44,22,13.64,39.94,9.28l5.64-1.35c11.85-2.78,17,0,23.08,3.21C734.57,898,739.45,900.58,747.65,900.58Z"/><path class="cls-1" d="M649.66,853.78l2.69-.59c1.77-.4,4.37-1,7.7-1.86a89.84,89.84,0,0,0,11.92-4,43.82,43.82,0,0,0,14-9.3,73.93,73.93,0,0,0,6.09-7.47,54.09,54.09,0,0,1,6.85-7.3,108.85,108.85,0,0,0,8-7.85c2.6-2.86,5.1-5.92,7.59-9.07,4.95-6.3,10.1-12.85,15.44-19.8a56.71,56.71,0,0,0,7.19-11.79c1.87-4.41,2.88-9.7,1.52-14.82a24.06,24.06,0,0,0-8.23-12.57,32.75,32.75,0,0,0-12.94-6.49,34.79,34.79,0,0,0-13.93-.5,50.16,50.16,0,0,0-12.5,3.74,58,58,0,0,0-10.62,6,56.79,56.79,0,0,0-4.57,3.62l-4.06,3.66c-5.29,4.8-10.19,9.27-14.74,13.27-9.07,8-16.75,14.16-22.19,18.25s-8.51,6.26-8.51,6.26,3.27-1.89,9-5.59,13.89-9.34,23.46-16.91c4.79-3.77,9.94-8,15.45-12.57l4.18-3.46a53.65,53.65,0,0,1,4.38-3.21,56.16,56.16,0,0,1,10-5.26c7.12-2.88,15.5-4.53,23.26-2.44a28,28,0,0,1,10.77,5.56,19.06,19.06,0,0,1,6.45,9.84,18.26,18.26,0,0,1-1.22,11.62,53.48,53.48,0,0,1-6.43,10.79c-5.16,7-10.15,13.69-14.9,20.09-2.36,3.2-4.68,6.26-7.08,9.1s-4.89,5.37-7.45,7.92a55,55,0,0,0-6.85,8,75,75,0,0,1-5.49,7.53,42.31,42.31,0,0,1-12.7,9.56,92.72,92.72,0,0,1-11.41,4.76c-3.23,1.12-5.78,1.89-7.51,2.43Z"/><path class="cls-1" d="M614.19,713.93h.87c.57,0,1.41,0,2.48.06a38.09,38.09,0,0,1,8.77,1.57,39.79,39.79,0,0,1,11.44,5.63,59.23,59.23,0,0,1,10.76,11.11,66,66,0,0,1,8.28,13.06,42.1,42.1,0,0,1,3,12.22c.38,3.67.44,6.72.49,8.82s.07,3.28.07,3.28.32-1.13.78-3.2a63.77,63.77,0,0,0,1.38-8.93,36.6,36.6,0,0,0-1.34-13.68,50.09,50.09,0,0,0-8.27-14.77,47.49,47.49,0,0,0-12.57-11.65,36.21,36.21,0,0,0-13.4-4.48,32.62,32.62,0,0,0-9.39.19c-1.08.2-1.91.39-2.46.55Z"/><path class="cls-1" d="M628.64,704.23s.2,1.1.63,2.58a20,20,0,0,0,2.13,5.05A20.69,20.69,0,0,0,635,716c1.15,1.05,2.06,1.73,2.06,1.73a9.47,9.47,0,0,0,.48-2.69,10.44,10.44,0,0,0-1.5-6,11,11,0,0,0-4.73-4.06A10.36,10.36,0,0,0,628.64,704.23Z"/><path class="cls-1" d="M635,789.34l-.36.3c-.27.23-.72.6-1.47,1.16s-1.81,1.27-3.28,2.27c-.73.5-1.55,1.08-2.44,1.81s-1.76,1.92-2.73,2.17c.08-.27-.43-.19-1.22-.69-.45-.24-1.13-.74-2-1.3s-1.73-1.23-2.72-2c-4-3-8.92-8-14.06-13.71-3.82-4.2-7.54-8-10.67-11.69a68.1,68.1,0,0,1-7.48-10.21,27.65,27.65,0,0,1-3.19-7.87,17.24,17.24,0,0,1-.42-2.32l-.12-.83-.11.82a14.45,14.45,0,0,0-.2,2.41,24.49,24.49,0,0,0,1.55,8.86,50.88,50.88,0,0,0,6.3,11.83,125.68,125.68,0,0,0,10.28,12.52,88,88,0,0,0,8.07,7.92,47.12,47.12,0,0,0,7.84,5.49,33.76,33.76,0,0,0,3.33,1.6,14.89,14.89,0,0,0,2.75.9,3.61,3.61,0,0,0,2.09-.14c.4-.18.48-.34.31-.39a4.43,4.43,0,0,0,1.86-1.37c.42-.48.79-.88,1.19-1.27.79-.76,1.56-1.4,2.23-2,1.36-1.11,2.36-1.94,3-2.59a14.43,14.43,0,0,0,1.3-1.36Z"/><path class="cls-1" d="M732.05,881l1.08-2.13c.37-.68.92-1.48,1.51-2.45s1.43-2,2.43-3.1a68.84,68.84,0,0,1,7.79-7.5c3.22-2.76,7.07-5.75,11-9.55a50.5,50.5,0,0,0,5.65-6.56,56.59,56.59,0,0,0,4.53-8.13c2.6-5.68,5.39-11.75,8.32-18.14l9-20.09,4.7-10.65c1.59-3.62,3.14-7.27,4.9-10.79a62,62,0,0,1,6-9.88c2.29-3.17,4.91-6.85,5.7-11.26a21.26,21.26,0,0,0-1.37-12.36,26.21,26.21,0,0,0-6.87-9.56,24.75,24.75,0,0,0-9.92-5.42,34.27,34.27,0,0,0-10.39-1.18,49.6,49.6,0,0,0-17.81,4A40.25,40.25,0,0,0,746,744.48a68.19,68.19,0,0,0-7.1,8.39c-3.51,4.83-5.44,7.51-5.44,7.51s2.2-2.48,6.11-7a72.14,72.14,0,0,1,7.6-7.67,39.39,39.39,0,0,1,12.21-7,48.3,48.3,0,0,1,16.81-2.81c6.09.1,12.53,1.67,17.15,6.24,4.66,4.34,7.68,11.25,6.28,17.65-.6,3.16-2.63,6.07-5,9.24-1.17,1.58-2.42,3.31-3.51,5.1s-2.1,3.63-3,5.49c-1.87,3.73-3.42,7.46-5,11.08l-4.54,10.72c-2.93,7.05-5.76,13.84-8.45,20.32s-5.16,12.66-7.51,18.43a55,55,0,0,1-3.83,7.88,48.79,48.79,0,0,1-4.92,6.44c-3.53,3.88-7.15,7.12-10.19,10.14a66.65,66.65,0,0,0-7.29,8.22c-.92,1.2-1.56,2.37-2.18,3.35s-1,1.89-1.29,2.61Z"/><path class="cls-1" d="M783.11,885.73l1.83-.63a16.93,16.93,0,0,0,2.18-.86,27.18,27.18,0,0,0,2.87-1.43,44.27,44.27,0,0,0,14.78-13.9,75.06,75.06,0,0,0,6.84-12.25,133.42,133.42,0,0,0,5.47-15c3.37-10.56,6.3-22.4,12.58-33a54.22,54.22,0,0,1,5.26-7.39c2-2.31,4.09-4.56,6.12-6.94a44.36,44.36,0,0,0,5.48-7.68A20.44,20.44,0,0,0,843,761.88a26,26,0,0,0-12.58-7.51,32.45,32.45,0,0,0-11.91-.75,39.75,39.75,0,0,0-8.65,2,49.61,49.61,0,0,0-5.12,2.13l-1.71.88,1.8-.67a51.1,51.1,0,0,1,5.27-1.54,41.06,41.06,0,0,1,8.53-1.1,31.4,31.4,0,0,1,11,1.61,23.24,23.24,0,0,1,10.55,7.33,18.49,18.49,0,0,1,4.42,13.08,18.06,18.06,0,0,1-2.42,7.07,42.24,42.24,0,0,1-5.09,6.68c-2,2.2-4.16,4.42-6.29,6.87A55.57,55.57,0,0,0,825,806a82.46,82.46,0,0,0-7.63,17.63c-1.86,5.85-3.26,11.51-4.67,16.84a154.24,154.24,0,0,1-4.51,14.84,77.66,77.66,0,0,1-5.69,12.19,45,45,0,0,1-12.93,14.61,28.22,28.22,0,0,1-2.65,1.69,17.74,17.74,0,0,1-2,1.09Z"/><path class="cls-1" d="M728.21,880.1l10.33-9.24,10.27-9.3a40.52,40.52,0,0,0-3.64,2,49.5,49.5,0,0,0-14.67,13.2C729,878.75,728.21,880.1,728.21,880.1Z"/><path class="cls-1" d="M657.09,857.42l6.09-4.7,6-4.75a13.59,13.59,0,0,0-2.3.56,16.66,16.66,0,0,0-5,2.64,16.22,16.22,0,0,0-3.74,4.19A12.62,12.62,0,0,0,657.09,857.42Z"/><path class="cls-1" d="M731.69,772.32s-.24.32-.69.95-1.14,1.52-2.08,2.63a43.12,43.12,0,0,1-26.23,14.47,18.48,18.48,0,0,1-10.25-1.27c-3.19-1.49-5.91-4.44-6.15-8a12.6,12.6,0,0,1,4-9.62,21.19,21.19,0,0,1,9.11-4.94,56.24,56.24,0,0,1,9.65-1.75,38.08,38.08,0,0,1,8.53,0,40,40,0,0,1,6.87,1.67,14.54,14.54,0,0,1,4.74,2.32,7.42,7.42,0,0,1,2.08,2.55,9.19,9.19,0,0,1,.47,1.07,9.2,9.2,0,0,0-.39-1.11,7.51,7.51,0,0,0-1.95-2.75,14.63,14.63,0,0,0-4.73-2.67,38.77,38.77,0,0,0-6.93-2.06,37.76,37.76,0,0,0-8.81-.33,55.63,55.63,0,0,0-10,1.48,22.73,22.73,0,0,0-10,5.22,14.33,14.33,0,0,0-4.6,11.13,10.62,10.62,0,0,0,2.43,5.87,13.84,13.84,0,0,0,4.92,3.71A19.94,19.94,0,0,0,702.93,792a41.63,41.63,0,0,0,17.3-7.24,40.74,40.74,0,0,0,8.94-8.7c.88-1.18,1.51-2.12,1.91-2.78Z"/><path class="cls-1" d="M791,774.12a7.48,7.48,0,0,1-.38.92,11.22,11.22,0,0,1-1.57,2.35c-1.56,1.92-4.38,4.16-8,6.73a56.24,56.24,0,0,1-6.09,3.92,18.91,18.91,0,0,1-7.7,2.35,10.91,10.91,0,0,1-8-2.54,21.83,21.83,0,0,1-5.44-7.58,9.44,9.44,0,0,1-.82-4.39,6,6,0,0,1,1.62-3.77,7.43,7.43,0,0,1,3.74-1.81c1.47-.34,3-.62,4.44-.87a56.24,56.24,0,0,1,15.6-.71,33.43,33.43,0,0,1,10.18,2.73c1.12.55,2,1,2.55,1.34l.87.51-.82-.58a27.28,27.28,0,0,0-2.46-1.55,32.17,32.17,0,0,0-10.17-3.43,52.66,52.66,0,0,0-16,0c-1.5.2-3,.44-4.59.76a9.29,9.29,0,0,0-4.72,2.24c-2.74,2.7-2.75,7-1.3,10.23a24.09,24.09,0,0,0,2.6,4.52,19.16,19.16,0,0,0,3.48,3.77,12.39,12.39,0,0,0,4.53,2.37,13.76,13.76,0,0,0,4.87.39,20,20,0,0,0,8.26-2.84,51.59,51.59,0,0,0,6-4.32c3.52-2.76,6.25-5.25,7.68-7.32a11.26,11.26,0,0,0,1.39-2.51A7.07,7.07,0,0,0,791,774.12Z"/><path class="cls-1" d="M827.85,799.24a8.69,8.69,0,0,1-.52,1,10.36,10.36,0,0,1-2,2.38,13.88,13.88,0,0,1-4.24,2.5,21.43,21.43,0,0,1-6.44,1.23,48,48,0,0,1-8-.29,13.25,13.25,0,0,1-4.09-1.2,14.13,14.13,0,0,1-3.59-2.68,21.9,21.9,0,0,1-5.26-8.07,13,13,0,0,1-.75-4.87c.12-1.62.45-3.54,1.58-3.84,1.23-.45,3.27,0,5,.22s3.57.61,5.32,1c3.48.71,6.87,1.47,10.16,2,6.62,1,12.6.76,17.43,1.5,1.17.14,1.69.91,1.27,1.85a7.6,7.6,0,0,1-1.8,2.32,37.71,37.71,0,0,0-3.36,3.74,17.14,17.14,0,0,0-1.67,2.68c-.32.64-.46,1-.46,1s.17-.34.54-1a17.79,17.79,0,0,1,1.85-2.53,38.35,38.35,0,0,1,3.55-3.48,8.23,8.23,0,0,0,2.12-2.46,2.11,2.11,0,0,0,0-2,2.63,2.63,0,0,0-1.81-1.12c-5-1-11-1-17.34-2.18-3.2-.58-6.54-1.41-10.05-2.18-1.76-.38-3.56-.75-5.41-1.05-.93-.15-1.86-.28-2.82-.39a7.18,7.18,0,0,0-3.29.27,3.73,3.73,0,0,0-1.55,1.12,5,5,0,0,0-.8,1.53,12.73,12.73,0,0,0-.49,2.94,14.6,14.6,0,0,0,.92,5.57,23,23,0,0,0,5.9,8.65,15.65,15.65,0,0,0,4.11,2.86,14.66,14.66,0,0,0,4.61,1.18,47,47,0,0,0,8.26-.07,21.55,21.55,0,0,0,6.61-1.64,13.72,13.72,0,0,0,4.21-2.86,10.07,10.07,0,0,0,1.87-2.56A6.4,6.4,0,0,0,827.85,799.24Z"/><path class="cls-1" d="M857.54,838.93l2.22-1.94,1.19-1a2.3,2.3,0,0,0,.61-.79,1.43,1.43,0,0,0,0-1.16,2.43,2.43,0,0,0-2-1.31,23.27,23.27,0,0,0-2.51,0,47.92,47.92,0,0,1-11.74-1.51l-6.92-1.61c-1.22-.26-2.44-.51-3.75-.73a6.78,6.78,0,0,0-2.26,0,3.66,3.66,0,0,0-2.23,1.32c-1.9,2.74-1.24,5.87.1,8.13a11.89,11.89,0,0,0,5.87,4.66,20.89,20.89,0,0,0,19.66-2.75,17.1,17.1,0,0,0,1.67-1.43l.54-.53-.6.47a20.74,20.74,0,0,1-9.22,4,20,20,0,0,1-11.36-1.28,10.36,10.36,0,0,1-4.87-4.06,7,7,0,0,1-.93-3.06,4.5,4.5,0,0,1,.74-2.9c.49-.67,1.39-.75,2.59-.58s2.45.42,3.64.65l7,1.39a44.31,44.31,0,0,0,12.15.86c.88-.06,1.69-.23,2.37-.21a1.76,1.76,0,0,1,1.53.79c.3.47.08,1-.32,1.35l-1.07,1.15Z"/><path class="cls-1" d="M617.16,788.4a9.19,9.19,0,0,1-.73-.84,19,19,0,0,1-1.77-2.64,44,44,0,0,1-4.17-10.81,68.63,68.63,0,0,1-2.31-16.89,22.32,22.32,0,0,1,2.32-9.47,16.79,16.79,0,0,1,3-4.16,11.65,11.65,0,0,1,4.27-2.86,3.73,3.73,0,0,1,4.17.78,5.42,5.42,0,0,1,1.21,4.29,18.55,18.55,0,0,1-1.42,4.75c-.62,1.61-1.2,3.21-1.68,4.79a62.82,62.82,0,0,0-2.77,17.2c-.15,5,.56,8.93.48,11.66a16.6,16.6,0,0,1-.31,3.13,10.88,10.88,0,0,1-.27,1.07,9.79,9.79,0,0,0,.35-1,16,16,0,0,0,.55-3.14c.27-2.77-.18-6.76.22-11.63a66.57,66.57,0,0,1,3.4-16.74c.51-1.53,1.11-3.06,1.76-4.63a19.8,19.8,0,0,0,1.63-5.2,7.25,7.25,0,0,0-1.65-5.81,5.22,5.22,0,0,0-3-1.66,6.8,6.8,0,0,0-3.34.31,13.29,13.29,0,0,0-5.06,3.38,18.36,18.36,0,0,0-3.29,4.69,23.26,23.26,0,0,0-2.28,10.28,64.35,64.35,0,0,0,3,17.18,41.9,41.9,0,0,0,4.87,10.7,20.11,20.11,0,0,0,2,2.54A10.42,10.42,0,0,0,617.16,788.4Z"/><path class="cls-1" d="M641.17,828s.22.47.67,1.3a23.09,23.09,0,0,0,2.21,3.34,26.33,26.33,0,0,0,10.7,8.07,27.09,27.09,0,0,0,13.41,1.77,25.23,25.23,0,0,0,4-.8c.92-.27,1.41-.45,1.41-.45l-1.47.14a34.44,34.44,0,0,1-4,.12,35.8,35.8,0,0,1-12.57-2.61,34.71,34.71,0,0,1-13.44-9.75Z"/><path class="cls-1" d="M646.48,837.24a9,9,0,0,0,1,1.86,11.28,11.28,0,0,0,3.8,3.44,11.54,11.54,0,0,0,5,1.39,9,9,0,0,0,2.15-.12l-1.91-.84c-1.15-.52-2.64-1.29-4.23-2.16s-3-1.73-4.09-2.41Z"/><path class="cls-1" d="M641.52,837.44a7.61,7.61,0,0,0,.62,1.46,9.52,9.52,0,0,0,2.39,2.91,9.82,9.82,0,0,0,3.38,1.74,8.14,8.14,0,0,0,1.59.32s-.4-.48-1-1.16a27.43,27.43,0,0,0-2.62-2.43,29.53,29.53,0,0,0-2.94-2C642.08,837.74,641.52,837.44,641.52,837.44Z"/><path class="cls-1" d="M698.49,844.36s.35.47,1.06,1.29a25.21,25.21,0,0,0,3.36,3.14,35,35,0,0,0,13.91,6.38,62.06,62.06,0,0,0,15.27,1.24c3.9-.13,6.31-.37,6.31-.37l-6.27-.63a121.85,121.85,0,0,1-14.84-2.17A47.5,47.5,0,0,1,703.5,848a31.12,31.12,0,0,1-3.72-2.56Z"/><path class="cls-1" d="M703.75,851.93a16.73,16.73,0,0,0,2.31,2.13,21.15,21.15,0,0,0,6.82,3.5,21.8,21.8,0,0,0,7.64.82,10,10,0,0,1,2.21,0,4.6,4.6,0,0,1,.81.22,2.7,2.7,0,0,0-.69-.5,7.38,7.38,0,0,0-2.25-.76,72.29,72.29,0,0,1-7.13-1.73,67.27,67.27,0,0,1-6.88-2.45C704.84,852.46,703.75,851.93,703.75,851.93Z"/><path class="cls-1" d="M703.13,855a8.18,8.18,0,0,0,1.06,1.28,10.48,10.48,0,0,0,3.24,2.27,11,11,0,0,0,3.89.91,8.67,8.67,0,0,0,1.69-.06s-.54-.38-1.39-.89a32.84,32.84,0,0,0-3.34-1.76,32.16,32.16,0,0,0-3.55-1.31C703.77,855.16,703.13,855,703.13,855Z"/><path class="cls-1" d="M762.44,860A141.86,141.86,0,0,0,778,866.22l3.33.92a18.41,18.41,0,0,0,3.17.65,29.47,29.47,0,0,0,5.46,0c3.07-.27,4.92-.64,4.92-.64l-4.92-.36a44.16,44.16,0,0,1-5.19-.69,23.29,23.29,0,0,1-2.95-.84l-3.16-1A142.77,142.77,0,0,0,762.44,860Z"/><path class="cls-1" d="M770.63,866.58a12.05,12.05,0,0,0,1.6,1.29,14.66,14.66,0,0,0,4.45,2.11,15,15,0,0,0,4.92.52,12.47,12.47,0,0,0,2.06-.26s-.74-.31-1.91-.72-2.75-.95-4.5-1.45-3.39-.84-4.61-1.1S770.63,866.58,770.63,866.58Z"/><path class="cls-1" d="M766.21,869.18a9.69,9.69,0,0,0,1.36,1,11.68,11.68,0,0,0,3.69,1.48,12,12,0,0,0,4,.13,10.63,10.63,0,0,0,1.65-.36,27.4,27.4,0,0,0-5.21-1.71A27.81,27.81,0,0,0,766.21,869.18Z"/><path class="cls-1" d="M818,867.63l3.26,1a60.31,60.31,0,0,0,7.94,2.13,19.25,19.25,0,0,0,8.41-.29,12.66,12.66,0,0,0,2.37-.93c.53-.29.8-.47.8-.47l-.91.17a18.2,18.2,0,0,1-2.43.26,38,38,0,0,1-7.9-.7c-3.07-.53-6-1-8.09-1.15A22.07,22.07,0,0,0,818,867.63Z"/><path class="cls-1" d="M818,873a71.45,71.45,0,0,0,7.82,1.32,70.18,70.18,0,0,0,7.93.37,16.64,16.64,0,0,0-2.16-1,22.31,22.31,0,0,0-5.54-1.35,22.07,22.07,0,0,0-5.71.15A18.74,18.74,0,0,0,818,873Z"/><path class="cls-1" d="M638.52,794.69s7.36-5.16,16.19-11.67,15.89-12,15.89-12-2,1-5.21,2.75a115.91,115.91,0,0,0-11.92,7.7,118.16,118.16,0,0,0-10.82,9.11C640,793,638.52,794.69,638.52,794.69Z"/><path class="cls-1" d="M653.08,789.64a14.4,14.4,0,0,0,4.4-2.85,14,14,0,0,0,3-4.27,14.32,14.32,0,0,0-4.4,2.86A13.87,13.87,0,0,0,653.08,789.64Z"/><path class="cls-1" d="M653.67,792.37a10.52,10.52,0,0,0,4.22-1.29,10.11,10.11,0,0,0,3.18-3,10.37,10.37,0,0,0-4.22,1.28A10,10,0,0,0,653.67,792.37Z"/><path class="cls-1" d="M613.64,803.38s1.5-.41,3.83-1.31a56,56,0,0,0,16.6-9.9c1.88-1.62,2.94-2.73,2.94-2.73s-5.45,2.89-11.86,6.7S613.64,803.38,613.64,803.38Z"/><path class="cls-1" d="M603.13,818.78s.08.56.21,1.57a25.71,25.71,0,0,0,1,4.26,31.37,31.37,0,0,0,2.54,6,35.68,35.68,0,0,0,4.71,6.56,36,36,0,0,0,6.2,5.26,33.52,33.52,0,0,0,5.88,3.1,29.76,29.76,0,0,0,4.25,1.39l1.59.36-1.48-.66a35.1,35.1,0,0,1-3.9-2,45.61,45.61,0,0,1-5.32-3.56,47.32,47.32,0,0,1-10.45-11.31,44,44,0,0,1-3.07-5.53,38.52,38.52,0,0,1-1.61-4Z"/><path class="cls-1" d="M619.62,836.67l-1.71-2.19c-1-1.35-2.39-3.2-3.83-5.27s-2.69-4-3.58-5.43l-1.44-2.37a16.71,16.71,0,0,0,.5,2.75,20.19,20.19,0,0,0,2.83,6.16,20.46,20.46,0,0,0,4.8,4.86A16.34,16.34,0,0,0,619.62,836.67Z"/><path class="cls-1" d="M623.07,831.52l-1.48-1.69c-.91-1-2.13-2.39-3.52-3.85s-2.69-2.77-3.66-3.74l-1.6-1.57a12.74,12.74,0,0,0,.75,2.12,16.3,16.3,0,0,0,3,4.53,16.55,16.55,0,0,0,4.39,3.29A14.18,14.18,0,0,0,623.07,831.52Z"/><path class="cls-1" d="M625.93,825.69a18.69,18.69,0,0,0-8-7.46,13.44,13.44,0,0,0,3.19,4.58A14,14,0,0,0,625.93,825.69Z"/><path class="cls-1" d="M628.76,821.26a8.74,8.74,0,0,0-2.06-3.53,9,9,0,0,0-3.54-2.15,9,9,0,0,0,2.06,3.53A9.33,9.33,0,0,0,628.76,821.26Z"/><path class="cls-1" d="M632.22,815.67a1.64,1.64,0,0,0-.14-1.81,1.77,1.77,0,0,0-1.87-.13s0,1.13.43,1.54S632.2,815.65,632.22,815.67Z"/><path class="cls-1" d="M756.25,795.33a11.1,11.1,0,0,0,2.14,1.33,13.94,13.94,0,0,0,12,.14,10.82,10.82,0,0,0,2.18-1.28s-1,.16-2.46.33a46.91,46.91,0,0,1-5.71.25,47.39,47.39,0,0,1-5.71-.39C757.21,795.51,756.25,795.33,756.25,795.33Z"/><path class="cls-1" d="M828.06,884a11.77,11.77,0,0,0,1.35-.34,15,15,0,0,0,3.49-1.59c2.83-1.65,6-4.94,8.65-9a71.78,71.78,0,0,0,5.93-10.74c1.27-2.86,1.88-4.7,1.88-4.7l-2.78,4.24L839.84,872c-2.58,3.94-5.16,7.28-7.54,9.25a18.32,18.32,0,0,1-3,2.1C828.51,883.79,828.06,884,828.06,884Z"/><path class="cls-1" d="M817.84,884.83a4.7,4.7,0,0,0,1.36.84,6.34,6.34,0,0,0,3.89.36,6.22,6.22,0,0,0,3.33-2,4.64,4.64,0,0,0,.83-1.35s-.58.25-1.43.54a31.57,31.57,0,0,1-3.19.88,33,33,0,0,1-3.26.59C818.47,884.8,817.84,884.83,817.84,884.83Z"/><path class="cls-1" d="M806.23,885.23a10,10,0,0,0,8,.65,8,8,0,0,0-3.91-1.47A7.93,7.93,0,0,0,806.23,885.23Z"/><path class="cls-1" d="M748.79,891.93a13.09,13.09,0,0,0,2.35.72,16.68,16.68,0,0,0,11.55-1.52,14.06,14.06,0,0,0,2.07-1.3l-2.4.36-5.58.77-5.58.7Z"/><path class="cls-1" d="M739.38,891.57a4.43,4.43,0,0,0,.79.89,5.22,5.22,0,0,0,5.25,1,4.83,4.83,0,0,0,1.09-.51s-.43-.22-1.07-.48a12.86,12.86,0,0,0-2.38-.76,14.13,14.13,0,0,0-2.51-.22C739.86,891.54,739.38,891.57,739.38,891.57Z"/><path class="cls-1" d="M734.51,890.22a2.85,2.85,0,0,0,1.62,1.39,3,3,0,0,0,2.09-.54,2.92,2.92,0,0,0-1.63-1.39A3,3,0,0,0,734.51,890.22Z"/><path class="cls-1" d="M667.86,875.24s.33.57,1,1.54a28.86,28.86,0,0,0,3.25,3.87,30.68,30.68,0,0,0,6,4.68,15.78,15.78,0,0,0,4.31,1.84,11.15,11.15,0,0,0,5.17,0c6.39-1.62,12.06-2.77,16.32-3.43s6.87-1,6.87-1a66.29,66.29,0,0,0-7,0,83.05,83.05,0,0,0-16.64,2.48,10,10,0,0,1-4.3.1,16.13,16.13,0,0,1-3.9-1.45,37.16,37.16,0,0,1-6.16-4,40.57,40.57,0,0,1-3.7-3.33Z"/><path class="cls-1" d="M659.33,868a5.13,5.13,0,0,0,.44,1.07,5.68,5.68,0,0,0,1.7,2,6.08,6.08,0,0,0,2.46,1,5.88,5.88,0,0,0,1.17.08,9.53,9.53,0,0,0-2.42-2.67A9.82,9.82,0,0,0,659.33,868Z"/><path class="cls-1" d="M653.34,863.26a2.88,2.88,0,0,0,1,1.9,3.06,3.06,0,0,0,2.18.29,2.89,2.89,0,0,0-1-1.91A3.07,3.07,0,0,0,653.34,863.26Z"/><path class="cls-1" d="M643.94,855.71a6.57,6.57,0,0,0,2.34,2.89,6.78,6.78,0,0,0,3.62,1.06,8.42,8.42,0,0,0-2.47-2.7A8.73,8.73,0,0,0,643.94,855.71Z"/><path class="cls-1" d="M760,841s.63-2.17,1.65-5.65,2.58-8.21,4.45-13.38,3.73-9.8,5.16-13.14,2.36-5.41,2.36-5.41-1.37,1.82-3.27,5a75.1,75.1,0,0,0-6.17,12.93,73.92,73.92,0,0,0-3.52,13.83C760.08,838.73,760,841,760,841Z"/><path class="cls-1" d="M755.78,836a58.34,58.34,0,0,0,5.5-11.67,57.48,57.48,0,0,0,2.78-12.55s-2.44,5.28-4.72,11.92S755.78,836,755.78,836Z"/><path class="cls-1" d="M751.67,827.92a30.23,30.23,0,0,0,4-6.71,29.73,29.73,0,0,0,2.06-7.47,30.82,30.82,0,0,0-3.95,6.71A30.2,30.2,0,0,0,751.67,827.92Z"/><path class="cls-1" d="M746.31,826.29a16.26,16.26,0,0,0,3.79-5.08,15.77,15.77,0,0,0,1.46-6.12,27.07,27.07,0,0,0-3.32,5.29A26.71,26.71,0,0,0,746.31,826.29Z"/><path class="cls-1" d="M741.65,824a13.27,13.27,0,0,0,2.41-4.45,13,13,0,0,0,.45-5A13.27,13.27,0,0,0,742.1,819,13,13,0,0,0,741.65,824Z"/><path class="cls-1" d="M744.24,756.71s1.81-1.46,4.83-3.61a71.68,71.68,0,0,1,12.42-7.17,47.34,47.34,0,0,1,13.79-3.8,40.54,40.54,0,0,1,4.42-.23l1.63,0s-.56-.15-1.6-.35a28.36,28.36,0,0,0-4.49-.45,34.56,34.56,0,0,0-14.58,3,44.57,44.57,0,0,0-12.25,8.22A47.53,47.53,0,0,0,744.24,756.71Z"/><path class="cls-1" d="M753.26,755.46s1-.76,2.58-1.81a41.94,41.94,0,0,1,6.49-3.46c2.61-1.15,5.14-1.79,7-2.44a14.75,14.75,0,0,0,2.94-1.31s-1.21.2-3.16.34a22.28,22.28,0,0,0-7.65,1.6,18.25,18.25,0,0,0-6.35,4.53A14.09,14.09,0,0,0,753.26,755.46Z"/><path class="cls-1" d="M758.08,756.92l1.61-.64,3.65-1.36,3.65-1.34,1.64-.56a7,7,0,0,0-1.74-.43,9.15,9.15,0,0,0-4.28.48,8.79,8.79,0,0,0-3.52,2.41A6.87,6.87,0,0,0,758.08,756.92Z"/><path class="cls-1" d="M693.4,756.65l.8-.57c.52-.36,1.29-.85,2.26-1.39a35.87,35.87,0,0,1,8-3.06c3.24-.86,6.3-1.39,8.54-1.79l3.65-.67a37.11,37.11,0,0,0-3.72-.32,30.43,30.43,0,0,0-9,.86,20,20,0,0,0-8,4.18,14.47,14.47,0,0,0-1.88,2C693.59,756.36,693.4,756.65,693.4,756.65Z"/><path class="cls-1" d="M699.36,757.72l6.81-2.33,6.84-2.26a11.63,11.63,0,0,0-2.21-.31,14.2,14.2,0,0,0-5.3.7,14,14,0,0,0-4.61,2.63A10.82,10.82,0,0,0,699.36,757.72Z"/><path class="cls-1" d="M703.65,758.11A15,15,0,0,0,712.4,756a7.1,7.1,0,0,0-1.39-.32,8.63,8.63,0,0,0-3.31.13,8.44,8.44,0,0,0-3,1.39A6.83,6.83,0,0,0,703.65,758.11Z"/><path class="cls-1" d="M656.15,770.13l.21-1.69c.11-1.1.25-2.68.29-4.65a45.55,45.55,0,0,0-2.21-15.29,31.61,31.61,0,0,0-8.29-13.2,15.61,15.61,0,0,0-4-2.64,11.17,11.17,0,0,0-1.65-.61,13.44,13.44,0,0,1,1.49.88,17,17,0,0,1,3.44,3.06,40.18,40.18,0,0,1,7.08,13.14,70.66,70.66,0,0,1,3.13,14.7c.21,1.93.33,3.51.41,4.6Z"/><path class="cls-1" d="M651.18,758.94a13.74,13.74,0,0,0,.51-2.65,16.74,16.74,0,0,0-.62-6.5A17,17,0,0,0,648,744a14.51,14.51,0,0,0-1.89-2l1,2.47c.6,1.5,1.32,3.57,2,5.85s1.22,4.41,1.55,6Z"/><path class="cls-1" d="M646.4,756.6a8.29,8.29,0,0,0,.45-1.61,9.51,9.51,0,0,0-1.78-7.52,8.52,8.52,0,0,0-1.12-1.26s0,.66.18,1.63a36.15,36.15,0,0,0,.64,3.66c.33,1.38.74,2.62,1.06,3.56S646.4,756.6,646.4,756.6Z"/><path class="cls-1" d="M641.3,755.11a3.79,3.79,0,0,0,.71-1,4.39,4.39,0,0,0,.41-2.78,4.45,4.45,0,0,0-1.4-2.45,4,4,0,0,0-1-.67s0,.47.11,1.13.13,1.49.29,2.35.41,1.66.58,2.3S641.3,755.11,641.3,755.11Z"/><path class="cls-1" d="M826.69,824s.9-.51,2.26-1.41l5.15-3.49a35.85,35.85,0,0,1,5.26-3.05c.73-.32,1.34-.57,1.78-.71l.68-.24-.72-.07a11.14,11.14,0,0,0-2,.06,14.24,14.24,0,0,0-6.15,2.37,22,22,0,0,0-4.69,4.4A23.42,23.42,0,0,0,826.69,824Z"/><path class="cls-1" d="M829.59,816.78s.63-.32,1.57-.83,2.21-1.2,3.53-2,2.51-1.61,3.4-2.22,1.46-1,1.46-1a8.44,8.44,0,0,0-1.83.09,10.84,10.84,0,0,0-4.11,1.45,10.63,10.63,0,0,0-3.14,3A8.31,8.31,0,0,0,829.59,816.78Z"/><path class="cls-1" d="M830.1,808.67l1.08-.41a21.51,21.51,0,0,0,2.22-1,19.78,19.78,0,0,0,2-1.3l.93-.67a3.84,3.84,0,0,0-1.17-.29,4.83,4.83,0,0,0-2.79.52,4.72,4.72,0,0,0-1.94,2A3.7,3.7,0,0,0,830.1,808.67Z"/><path class="cls-1" d="M632.45,667.49l-2,.56c-1.29.39-3.15,1-5.4,1.88a38.16,38.16,0,0,0-7.62,4.08,29.41,29.41,0,0,0-7.4,7.76,75.51,75.51,0,0,0-4.89,8.88c-1.34,2.77-2.45,5.32-3.34,7.49-1.76,4.33-2.63,7.13-2.63,7.13s2.05-2.14,5-5.82c1.48-1.83,3.18-4.05,5-6.57s3.6-5.41,5.47-8.21a43.54,43.54,0,0,1,5.83-7.26,70.81,70.81,0,0,1,6-5.2l4.42-3.42Z"/></svg>