<svg id="Layer_1" data-name="Layer 1" xmlns="http://www.w3.org/2000/svg" viewBox="0 0 626 847.6"><defs><style>.cls-1,.cls-2{fill:#1d70b7;}.cls-1,.cls-3{stroke:#1d70b7;stroke-miterlimit:10;}.cls-3,.cls-4{fill:none;}</style></defs><path class="cls-1" d="M863.94,590.56a729.32,729.32,0,0,1-70.54-61.83c-66.48-9-76.69-10.43-82.92-4.81-9.11-12.46-16.32-24.35-20.82-34.7l.12.26,2,4.4c4.47,9.7,11.25,20.71,19.68,32.19,4.47-5.67,17.68-3.8,81.17,5.2a722,722,0,0,0,69,60.37c51.23,39.08,92.25,57.38,114.23,54h0l3.86-.64C957.59,648.72,916,630.26,863.94,590.56Z" transform="translate(-647 -115.95)"/><path class="cls-1" d="M854.61,594.6a698.07,698.07,0,0,1-64.35-56c-68.42-10.73-72.51-11.37-75.87-6.39a198.74,198.74,0,0,1-16-24.79l2.31,4.27a200.85,200.85,0,0,0,14.72,22.45c1.73-5,8.58-3.89,74.08,6.8a689.16,689.16,0,0,0,62.81,54.59c47.92,36.56,86.55,54.2,108,52.09l2.87-.29h0l1.06-.12C942.67,649.64,903.41,631.82,854.61,594.6Z" transform="translate(-647 -115.95)"/><path class="cls-1" d="M845.56,598a662.66,662.66,0,0,1-58.22-50.34c-63.86-11.5-63.86-11.5-68.43-9.51-.06.43-.14,1-.21,1.44-3.3-4.36-6.31-8.66-9-12.82l1.44,2.22,2.24,3.34c2,2.94,4.15,5.94,6.45,9-.06-.3-.13-.7-.19-1,2.76-2.55,2.76-2.55,67,9.49a654.39,654.39,0,0,0,56.71,49c44.31,33.8,80.31,50.69,101.24,50h0l3.95-.18C927.44,649.56,890.77,632.47,845.56,598Z" transform="translate(-647 -115.95)"/><path class="cls-1" d="M784.54,555.88c-59.38-12.19-59.38-12.19-61.75-11.34.09.34.2.79.29,1.13l.92,1.19c0-.32,0-.75,0-1.07,2.69-.28,2.69-.28,59.84,12a614.58,614.58,0,0,0,50.76,43.5c40.7,31.05,74,47.11,94.21,47.56l3.92,0c-20.38-.17-54.39-16.44-96-48.18A624.25,624.25,0,0,1,784.54,555.88Z" transform="translate(-647 -115.95)"/><path class="cls-1" d="M781.89,563.25c-54.83-12.92-54.83-12.92-55.11-12.89l.93,1.14c1.27-.24,1.4-.27,13.89,3.15,19.84,5.42,24.83,6.65,39.65,10.3a576.51,576.51,0,0,0,45,38.27c36.91,28.16,67.42,43.28,86.7,44.86h0l4.1.29c-19.51-1.25-50.79-16.62-88.73-45.57A589.39,589.39,0,0,1,781.89,563.25Z" transform="translate(-647 -115.95)"/><path class="cls-1" d="M1120.34,213.72a18.77,18.77,0,0,0-1.09-2.87c-.68-1.57-1.52-3.31-2.06-4.35-.7-1.48-1.43-3-2.18-4.41q1.1,2.16,2.12,4.37C1120,213.54,1120.21,213.64,1120.34,213.72Z" transform="translate(-647 -115.95)"/><path class="cls-1" d="M1121,214.12a24.19,24.19,0,0,0-1.27-3c-.77-1.62-1.71-3.42-2.3-4.48-.79-1.54-1.6-3.07-2.44-4.57q1.23,2.24,2.38,4.53C1120.76,214,1120.86,214,1121,214.12Z" transform="translate(-647 -115.95)"/><path class="cls-1" d="M1121.67,214.49a32,32,0,0,0-1.43-3.08c-.86-1.66-1.89-3.51-2.53-4.61-.88-1.59-1.77-3.16-2.7-4.71q1.35,2.31,2.63,4.68C1121.43,214.36,1121.5,214.4,1121.67,214.49Z" transform="translate(-647 -115.95)"/><path class="cls-1" d="M1122.29,214.81a34.63,34.63,0,0,0-1.59-3.17c-.94-1.71-2.06-3.6-2.75-4.72-1-1.63-1.93-3.24-2.94-4.83,1,1.58,1.94,3.18,2.88,4.8C1122.09,214.71,1122.11,214.72,1122.29,214.81Z" transform="translate(-647 -115.95)"/><path class="cls-1" d="M1122.89,215.09c-.33-.76-1.13-2.19-1.75-3.24h0c-1-1.74-2.21-3.67-3-4.82l-3.17-4.94q1.59,2.43,3.11,4.92C1122.72,215,1122.72,215,1122.89,215.09Z" transform="translate(-647 -115.95)"/><path class="cls-1" d="M1153.07,497c.58-2.22.45-3.24-.45-3.52-2.84.37-5.73,6.93-5.37,9.06.24,1.42,1.77,1.69,4.3-2.19,9,.58,16.18-1.08,21.17-5a165,165,0,0,1-7.58,19.44l2.07-3.69a167.81,167.81,0,0,0,7.22-19.31C1169.45,495.88,1162.23,497.61,1153.07,497Z" transform="translate(-647 -115.95)"/><polygon class="cls-1" points="518.14 398.84 518.14 398.84 518.14 398.84 518.14 398.84"/><path class="cls-1" d="M1146.73,510.32c.69-2.17.6-3.17-.32-3.45-3,.35-6.14,6.69-5.87,8.84.18,1.38,1.73,1.67,4.49-2.12,8.43.54,15.26-.83,20.27-4.15-2.31,7.65-2.31,7.65-9.07,19.86l2.32-3.58c3.8-6,3.8-6,8.69-19.76C1162.22,509.43,1155.31,510.87,1146.73,510.32Z" transform="translate(-647 -115.95)"/><path class="cls-1" d="M1139.68,523.26c.79-2.11.74-3.08-.17-3.36-3,.33-6.58,6.56-6.38,8.6.13,1.34,1.7,1.62,4.68-2.06,7.79.5,14.23-.61,19.16-3.34-3,8.2-3,8.2-10.66,20.23l2.58-3.47c4.59-6.39,4.69-6.65,10.25-20.14C1154.18,522.6,1147.63,523.78,1139.68,523.26Z" transform="translate(-647 -115.95)"/><path class="cls-1" d="M1161.13,244l-1.38-2.26Z" transform="translate(-647 -115.95)"/><path class="cls-1" d="M1108,181.17l-1.13-1h0c.75,3,3.73,10.65,8.18,21.9C1107.81,183.1,1107.93,181.7,1108,181.17Z" transform="translate(-647 -115.95)"/><path class="cls-1" d="M1111.57,184.91l.81.15-1.09-1,0-.05-.59.12c.09,3.62.85,6.43,4.35,17.93C1111.12,188.85,1111.35,186.76,1111.57,184.91Z" transform="translate(-647 -115.95)"/><path class="cls-1" d="M1115,202.09c.11-.85.21-1.59.29-2.25C1115.21,200.46,1115.12,201.17,1115,202.09Z" transform="translate(-647 -115.95)"/><path class="cls-1" d="M1172.53,267.94h0c-2.53-8.21-4.79-12.55-9.72-21.22l-1.68-2.77c6.51,10.88,8.33,16.56,9.8,21.18,1.26,4.55,1.49,8.21.8,11-21.18-33.49-43.43-58.85-56.72-74,31.15,35.55,45.35,56.9,58.3,77.4C1174.07,276.61,1173.85,272.76,1172.53,267.94Z" transform="translate(-647 -115.95)"/><path class="cls-1" d="M1165.85,256.78c-2.41-8.76-8.73-20-17.52-31.94l-.82-1.11h0c-1.45-1.95-3.45-4.5-4.94-6.43,16.39,20.78,20,32,21.5,36.75a20,20,0,0,1,.8,8.72c-19.25-27.3-36.94-46.6-49.86-60.68,28.69,31.31,40.89,48.66,51.66,64A20.71,20.71,0,0,0,1165.85,256.78Z" transform="translate(-647 -115.95)"/><path class="cls-1" d="M1158.42,246c-4.14-15-22.21-38.87-43.48-58.48a3,3,0,0,0-.73-.19c-1.5,2-1.23,4.23.8,14.78-1.77-9.7-1.3-11.34-.66-13.61l1.19-.27c20,18.52,37,40.95,40.9,55.12a17.47,17.47,0,0,1,.74,6.63c-15.47-19.73-26.74-31.76-42.17-47.87a568.44,568.44,0,0,1,44.17,51A18,18,0,0,0,1158.42,246Z" transform="translate(-647 -115.95)"/><path class="cls-1" d="M1150.19,235.52h0c-3.91-12.34-15.72-28.35-33.26-45.11h0c-2.49,1-2.31,4.35-1.92,11.68-.44-8.58.46-9.36,2.25-10.92,15.1,14.15,27.79,31.05,30.75,41.8a14.27,14.27,0,0,1,.61,4.71c-13.21-15.21-21.77-23.76-33.61-35.59,18,18,24,24.9,35.82,38.6A15,15,0,0,0,1150.19,235.52Z" transform="translate(-647 -115.95)"/><path class="cls-1" d="M1141.68,228.88a11.68,11.68,0,0,0-.49-3.4c-2.26-8.22-11.87-21.09-23.37-32-1.67,1.51-2,2.2-2.52,6.33.39-2.58.82-3.19,2.57-5.53,10.32,9.79,18.92,21.33,21,28.72a10.79,10.79,0,0,1,.44,3c-8.94-9.31-10.1-10.42-24.25-23.94C1127.38,213.92,1129.57,216.2,1141.68,228.88Z" transform="translate(-647 -115.95)"/><path class="cls-1" d="M1131.42,215.86c-.67-2.32-3.37-8.83-13.83-19.09a22.2,22.2,0,0,0-2.58,5.32,28.39,28.39,0,0,1,2.34-4.47c2.79,2.7,9.48,9.65,11.48,15.89a6.15,6.15,0,0,1,.25,1.51c-4.17-3.93-9.83-9.07-14.07-12.93,5.07,4.63,11.73,10.91,16.71,15.63A7.42,7.42,0,0,0,1131.42,215.86Z" transform="translate(-647 -115.95)"/><path class="cls-1" d="M1120.85,206.69c-.46-1.67-2.35-4.24-4.65-6.47l-1.19,1.87.67-1a9.29,9.29,0,0,1,2.41,3.38,2.74,2.74,0,0,1,.05.28l-3.13-2.67,5.94,5.17A2.63,2.63,0,0,0,1120.85,206.69Z" transform="translate(-647 -115.95)"/><path class="cls-1" d="M1039.12,606.31c5.41-13.68,6.54-17.66,10.13-35.47,1.74-1.65,3.48-3.34,5.2-5.05,69.79-69.54,104.1-170.07,95.78-258.78-5.38-15.84-5.62-16.54-18.28-53a154,154,0,0,1-14-9.62,225,225,0,0,1-38.3-37.39l.92-1.38c-3.83-1.26-5.62.27-6.69,1.19a5.7,5.7,0,0,0,3.24,1,262.6,262.6,0,0,0,40.6,39,167.61,167.61,0,0,0,14.42,9.93c13.52,40,13.52,40,17.25,51.19,7.14,88-27.63,187.68-97.06,256.84-2.09,2.09-4.2,4.12-6.32,6.12a154.38,154.38,0,0,1-10.54,37.12c17.94,5.41,31.78,5.42,40.48,0l3.34-2.14C1070.67,611.45,1057,611.57,1039.12,606.31Z" transform="translate(-647 -115.95)"/><path class="cls-1" d="M1024.33,613c6.79-14.87,8.32-22.41,11.74-42q4.89-4.47,9.7-9.26c68.31-68.06,104.44-164.95,100.75-251-4.73-15.2-9.53-30.37-14.29-45.56-4.81-3-10-6.54-15.44-10.71-26-19.82-51.21-47.53-64.32-70l1.74-.76s-4.45-3.26-8.9-.74a19.86,19.86,0,0,0,3.57,1.24c14.25,23.42,40.51,52.25,67.53,72.87,5.55,4.24,10.81,7.88,15.71,10.92q6.68,21.83,13.37,43.64c2.56,85.34-34,181.32-102,249q-5.35,5.34-10.82,10.3c-3.74,23.62-5.75,28.91-12.14,43.64,18.36,6,32.63,6.54,41.75,1.53l3.46-1.93C1056.76,619.21,1042.59,618.8,1024.33,613Z" transform="translate(-647 -115.95)"/><path class="cls-1" d="M1009.31,618.74c8.34-15.75,10.57-30.89,13.15-48.42q7.18-6.36,14.21-13.36c66.83-66.58,104.68-159.8,105.48-243-6.83-23.89-6.83-23.89-10.74-37.74q-7.7-4.86-16.34-11.43a295,295,0,0,1-53-52.22c.13-.5.3-1.17.42-1.67-3.07-1.5-5.23-.27-7,1,0,.53.1,1.23.15,1.76a10.06,10.06,0,0,0,3.37.36,358.56,358.56,0,0,0,55.54,53.41c5.78,4.42,11.3,8.27,16.47,11.56,2.88,10.46,4.09,14.81,9.92,35.72-1.88,82.47-40.15,174.78-106.6,241q-7.59,7.56-15.37,14.38c-3.27,27.2-7.24,36.71-13.44,50,18.71,6.55,33.35,7.62,42.86,3.1l3.51-1.7C1042.49,626.09,1027.94,625.15,1009.31,618.74Z" transform="translate(-647 -115.95)"/><path class="cls-1" d="M994.19,623.67c8.53-16.45,11.16-28.61,14.29-54.62q9.48-8.13,18.75-17.36c65.35-65.1,104.8-154.67,109.89-234.93-2.3-8.83-5.34-20.61-7.61-29.45-5.28-3.41-10.87-7.35-16.71-11.81-34.19-26.08-67.4-62.56-84.82-92.29l1.67-1.35c-1.2-1.33-4-1.79-8.19-1.38l-1.1,1.65a17.69,17.69,0,0,0,3.88,1.23c18.55,30.48,52.72,68,87.9,94.86q8.77,6.67,16.73,11.84c2.05,8.2,4.81,19.13,6.89,27.32-6.13,79.51-46,168.17-110.94,232.9q-9.81,9.78-19.88,18.35c-3.15,28.51-5.87,39-14.54,56.14,18.9,7.05,33.82,8.65,43.66,4.68l3.62-1.49C1027.91,632.06,1013.06,630.6,994.19,623.67Z" transform="translate(-647 -115.95)"/><path class="cls-1" d="M979,627.78c11.25-18.63,13.25-40,15.19-60.69q11.75-9.83,23.24-21.25c63.87-63.63,104.8-149.56,114-226.78-1.47-6.22-3.4-14.53-4.84-20.76q-7.92-5.24-16.59-11.82c-24.49-18.7-48.54-42.18-66.89-66.44,0-.53,0-1.23,0-1.76,0,0-4.33-2.77-7.89,1.86.18.51.41,1.2.59,1.71a10.54,10.54,0,0,0,3.78.43,450.26,450.26,0,0,0,69.66,67q8.57,6.54,16.47,11.77c1.24,5.56,2.94,13,4.21,18.53-10.2,76.45-51.48,161.47-115,224.72q-12,12-24.36,22.22c-2.95,39.5-9,50.52-15.37,62.18,19,7.49,34.12,9.6,44.25,6.2l3.67-1.27C1013,637.15,998,635.17,979,627.78Z" transform="translate(-647 -115.95)"/><path class="cls-1" d="M963.79,631.06c10.26-17.37,13.36-30.44,15.8-66.58q13.95-11.4,27.68-25.06C1069.65,477.27,1111.93,395,1125,320.86l-2.47-11.68q-7.66-5.18-15.93-11.47c-41.91-32-82.62-76.69-103.59-113.4l1-1.69s-4-3.23-9.63-.29c.14.54.31,1.27.45,1.81a17.31,17.31,0,0,0,3.77.92c22.58,37.12,64.2,82.84,107,115.52q8.13,6.21,15.7,11.33l1.93,9.31c-14,73.32-56.64,154.73-118.65,216.51a387.34,387.34,0,0,1-28.79,26c-1.85,44.4-9.32,56.95-15.9,68,19,7.9,34.24,10.48,44.61,7.65L1006,639h0l2.38-.67C998,641.34,982.82,638.87,963.79,631.06Z" transform="translate(-647 -115.95)"/><path class="cls-1" d="M1180.53,296.91c-10.26-18.88-14.16-25-27.84-45.44a6.67,6.67,0,0,1-2.45.79c-1.59-2.7-1.9-3-2.2-3.23,0,.08,3.87,9.25,5.26,9.64a18.2,18.2,0,0,0-1.29-3.11,7,7,0,0,0,2.5-.79c14.69,22.31,18,28.31,27.27,45.68,1.28-3.58,1.14-8.58-.63-15-1-3.49-1.09-3.76-3.89-10.65h0l-2.12-4.68a80.61,80.61,0,0,1,4.71,12.41C1181.54,288.66,1181.71,293.45,1180.53,296.91Z" transform="translate(-647 -115.95)"/><path class="cls-1" d="M1188.91,325.75c-8.19-19.31-11.5-25.73-23.33-47.19a12.22,12.22,0,0,1-4.26.76c-1.29-2.85-1.64-3.13-2-3.43-.41,1.43,2.54,8.8,3.7,10.22l.34-.15a11.39,11.39,0,0,0-.71-3.2,12.64,12.64,0,0,0,4.28-.73c12.7,23.48,15.4,29.65,22.79,47.44,2.87-6.61,2-11.44,0-20.09-.3-1-.6-2.05-.91-3.06C1191.21,315,1191.12,321.43,1188.91,325.75Z" transform="translate(-647 -115.95)"/><path class="cls-1" d="M1170.56,292.55a12.11,12.11,0,0,1-2.19.48c-1.2-2.86-1.55-3.12-1.92-3.4-.38.41,1.65,8.85,3.54,10.49.19-.33.37-.65-.42-3.59a12.94,12.94,0,0,0,2.08-.45c11.74,24,14.13,30.25,20.65,48.23,2.79-4.35,3.32-11,1.23-20l-.9-3.93c2.23,9.07,1.81,15.79-.89,20.18C1184.52,321.05,1181.49,314.5,1170.56,292.55Z" transform="translate(-647 -115.95)"/><path class="cls-1" d="M1189.74,309.38c-.09-.34-.19-.68-.29-1l-1.32-4.41c.25.8.48,1.59.7,2.37C1189.14,307.33,1189.44,308.36,1189.74,309.38Z" transform="translate(-647 -115.95)"/><path class="cls-1" d="M1185.28,295.79c-.18-.49-.36-1-.55-1.49,2.36,9,1.74,12.37.44,16.88-9.21-19.11-12.81-25.41-25.56-46.36a10.82,10.82,0,0,1-5.7.79c-1.36-2.79-1.7-3.09-2.06-3.41-.16.83,2.67,8.89,4.32,10.09,0-.55,0-1-.83-3.3a11.65,11.65,0,0,0,5.85-.77c13.69,22.91,16.7,29,25,46.58,2.17-5.54,1.28-10.26-.36-17.52h0c-.52-1.86-1.39-4.29-2-6.12l-1.54-4.15c1,2.53,1.8,5,2.44,7.29C1184.92,294.8,1185.1,295.3,1185.28,295.79Z" transform="translate(-647 -115.95)"/><path class="cls-1" d="M999.59,153.86c.33,1.19.7,2.4,1.12,3.64,26,9.91,26,9.91,83.53,32.58,6.17,10.2,16.89,22.47,28.49,32.36a87.59,87.59,0,0,0,2.28-20.35,84.25,84.25,0,0,1-2.33,18.1c-10.54-9.07-20.23-20.22-25.8-29.49-47.39-19.24-55.9-22.64-82.77-33.1-.35-1.07-.67-2.12-1-3.16-4.21-15.26.18-22.94,10.86-23.28,34.86,10.75,56,26.16,68.66,35.37.5.18,1,.38,1.55.59a16.38,16.38,0,0,0,2.84,2.17s-4.55-4.72-6.62-5.53c.43.41,1,.94,1.44,1.33l-1.47-.57c-26.85-20.45-53.49-29.28-69.41-34.56C999.86,130.18,995.24,138.06,999.59,153.86Z" transform="translate(-647 -115.95)"/><path class="cls-1" d="M1097.38,193.9c-41.63-19-60.17-26.89-79.8-35.25-.14-.49-.28-1-.41-1.44-3.64-13.21-.08-20.08,8.79-20.78,34,12.36,53.87,28.85,65.74,38.71a34.39,34.39,0,0,1,4.9,2.13c1.51,1.6,1.51,1.6,2.15,2,0-.05-3.57-4.57-5.26-5.41.35.41.82.95,1.18,1.35a37.58,37.58,0,0,0-5.22-2.29c-25.07-21.81-51-31.86-66.48-37.87-9.31.63-13.07,7.7-9.29,21.42.17.61.35,1.22.54,1.84,18.9,7.87,36.75,15.3,80.55,34.71,3.86,6.53,10.61,14.42,18,21a75.7,75.7,0,0,0,2.2-11.89,74.08,74.08,0,0,1-2.07,10C1106.51,206.39,1100.69,199.56,1097.38,193.9Z" transform="translate(-647 -115.95)"/><path class="cls-1" d="M1107.7,198.25C1074.55,181.2,1055,172,1031,160.76a.25.25,0,0,1,0-.07c-3.09-11.22-.28-17.23,7-18.19,33.12,14,50.24,30.3,62.73,42.17.42.13.85.29,1.31.47a26.51,26.51,0,0,0,2.3,2.51c0-.05-3.92-5.25-6.18-7,.38.5.54.7,1.76,2.11q-.74-.3-1.41-.51c-23.29-23.21-48.46-34.54-63.5-41.3-7.63.9-10.62,7.13-7.39,18.84,0,.13.07.25.1.38,23.68,10.8,43.1,19.77,77.49,36.92a45.92,45.92,0,0,0,8.45,10.08q.86-2.65,1.42-5c-.32,1.14-.69,2.34-1.11,3.58A33.9,33.9,0,0,1,1107.7,198.25Z" transform="translate(-647 -115.95)"/><path class="cls-1" d="M1114.85,201.84h0l.16.25c-.31-.48-.63-1-1-1.42C1114.3,201.07,1114.58,201.45,1114.85,201.84Z" transform="translate(-647 -115.95)"/><path class="cls-1" d="M1058.83,155.05c-4.4,1-6.19,5-4.61,12,26,14.22,39.11,21.75,60.79,35-19.19-12.06-32.1-19.66-57.52-33.88-1.41-6.45.25-10.15,4.31-11.18,28.66,17.14,38.42,27.76,53.21,45.06C1096.17,179.68,1086.19,171.32,1058.83,155.05Z" transform="translate(-647 -115.95)"/><path class="cls-1" d="M1070.68,163.28c-3.1.94-4.4,3.88-3.43,8.86,24.16,14.44,30.28,18.41,47.76,30-19.49-13.17-27.87-18.3-44.54-28.51-.84-4.53.34-7.22,3.15-8.13,19,13,24.79,18.11,41.39,36.64C1097.53,182.23,1091.85,177.68,1070.68,163.28Z" transform="translate(-647 -115.95)"/><path class="cls-1" d="M797,601.33l-.4.4c.48,1.73,4.25,2.92,5.22,3.08,1.24.21,1.44,0,1.8-.37-.23-.69-.23-.69-.92-1.29a10.39,10.39,0,0,0-4-1.78c-7.93-6.23-15.8-12.87-23.5-19.78-25.42-9.39-31.52-13.38-36-17l1,1c6.23,5.86,23.88,12.73,34.42,16.84C782,589.09,789.44,595.4,797,601.33Z" transform="translate(-647 -115.95)"/><path class="cls-1" d="M784.14,599.53l-.19.23c.9,1.37,4.34,2.7,4.38,2.71,1.08.39,1.28.31,1.64.18-.15-.45-.15-.45-.72-.94a14.28,14.28,0,0,0-3.44-1.82c-5.13-4-10.22-8.27-15.25-12.66-14.89-7.39-17.52-9.57-23.29-14.34l1.06,1c5.93,5.38,12.53,8.88,21.66,13.72C774.72,591.76,779.51,595.74,784.14,599.53Z" transform="translate(-647 -115.95)"/><path class="cls-1" d="M794.66,608.49a32.36,32.36,0,0,0-3.07-1.7q-3.95-2.79-8.06-5.93c-5.11-3.9-10.2-8-15.21-12.36-9.52-5.71-11.23-6.74-16.74-11.48l.67.63.45.42c6.72,5.44,7.58,6.14,15.06,10.59,4.71,4,9.49,7.92,14.28,11.58q4,3,7.82,5.75a4.63,4.63,0,0,0-.59-.21c.42.68,4,2.52,4,2.53h0c1.57.8,1.84.82,2.15.84C795.23,608.86,795.23,608.86,794.66,608.49Z" transform="translate(-647 -115.95)"/><path class="cls-1" d="M1190.89,431.26c-4.35,3.49-10.6,5-18.52,4.46,0-.87.17-3.52-1-3.73-.21,0-5.71,8-2.22,10.75.76-.25,1.41-.47,2.49-3.44,8.16.53,14.57-1,19-4.72,6.71-24.13,7.21-34.28,8.3-56.52a66,66,0,0,0,.73-9l-.25-4.15a29.89,29.89,0,0,1-.75,10C1198.23,400.77,1195.93,410.33,1190.89,431.26Z" transform="translate(-647 -115.95)"/><path class="cls-1" d="M1199.43,387.45c-1.39,26.27-4.06,35.89-9.92,57-7.15,6.78-20.13,7.45-37.67,2.16a332.06,332.06,0,0,0,12.06-64.21c1.38-1.9,2.16-8.2-.25-10.47-2.69.75-2.61,8-1.3,10.34a314.22,314.22,0,0,1-13.13,67.41c18.69,5.92,32.45,5.32,39.82-1.95,7.65-24.3,8.53-34.6,10.45-57.18a31,31,0,0,0,.51-5.64V381A31,31,0,0,1,1199.43,387.45Z" transform="translate(-647 -115.95)"/><path class="cls-1" d="M1142.33,459c.12-.89.49-3.61-1.13-4.31-2.4-1-6,5.4-5,8.94.4,1.38,2.16,3,4.82-1.17,22,7.64,37.87,7.06,45.59-2,7-20,9.14-30.67,11.18-46.47-2.19,16.74-5.2,26.36-10.51,43.31C1179.58,466,1163.93,466.5,1142.33,459Z" transform="translate(-647 -115.95)"/><path class="cls-1" d="M1198.08,412.08q-.12,1-.24,1.95Q1198,413.07,1198.08,412.08Z" transform="translate(-647 -115.95)"/><path class="cls-1" d="M1198.08,412.08c.37-2.9.73-6,1.13-9.33.1-.7.16-1.42.21-2.16l.23-3.93c-.05,1.06-.15,2.09-.29,3.07C1199,404.31,1198.54,408.36,1198.08,412.08Z" transform="translate(-647 -115.95)"/><path class="cls-1" d="M1196.52,426l.12-.85c-.08.48-.16.94-.23,1.41C1196.44,426.36,1196.48,426.18,1196.52,426Z" transform="translate(-647 -115.95)"/><path class="cls-1" d="M1196.41,426.55c-1.35,6.62-2.35,11.53-3.24,15.58C1194.38,437.37,1195.44,432.34,1196.41,426.55Z" transform="translate(-647 -115.95)"/><path class="cls-1" d="M1196.64,425.14c.41-2.55.81-5.25,1.19-8.15Z" transform="translate(-647 -115.95)"/><path class="cls-1" d="M1160.69,478.07c.13-.71.48-2.58-.11-3.29-1.83-2.22-5.77,6.19-5.18,9,.23,1.13,1.57,2.13,4-2.3,11.18.72,19.39-2.12,24.06-8.58,5.63-15.28,7.31-20.06,9.69-30.8-2.27,8.94-5.08,17-8.82,27.73C1179.68,476.06,1171.61,478.77,1160.69,478.07Z" transform="translate(-647 -115.95)"/><path class="cls-1" d="M1097,593.1c16.15-16,20.4-25.3,26.63-49a94.08,94.08,0,0,1-16.21-3.3c.93-2.11.83-3.21-.33-3.77-3.5-.45-7.36,4.6-7.63,7.08-.23,2.18,1.94,3.16,5.74-.3a96.33,96.33,0,0,0,15.63,3.24c-6.69,24.7-11.5,33.32-27.11,48.52.63-.39,1.23-.8,1.81-1.24h0l3.16-2.45C1098.16,592.32,1097.6,592.72,1097,593.1Z" transform="translate(-647 -115.95)"/><path class="cls-1" d="M1032.67,278.7c-44.49-45.22-80.11-95.08-89.23-128.2-6.62-24,2-34.62,21.22-32.25l-4-.44c-19-2-27.42,8.75-20.79,32.84,9.14,33.2,44.51,83,88.88,128.44C983.52,321.38,928,375,874.65,428.13c-10.45,10.41-20.41,20.4-30.58,29.59-1.72-.17-5.77-.58-6.49,3.84a5.5,5.5,0,0,0,8.14,5.71c2.76-2.13,2.14-4.63,1.65-6.64q14.16-14.22,29.86-29.87" transform="translate(-647 -115.95)"/><path class="cls-1" d="M799.87,511.57c2.43,3.84,5.84,2.91,6.62,2.46,1-.6,3.18-3.14,0-6.89-3.38-2.89-6.23-1.66-7.19,1-67.43-6.92-83.45-8.56-95.05-2.08-12.81-18.1-22.1-35-26.1-48.64l1.32,4.37c4.15,13.22,13.2,29.47,25.51,46.79C709.86,505.31,717.2,500.41,799.87,511.57Z" transform="translate(-647 -115.95)"/><path class="cls-1" d="M787.38,498.41c2.37,3.82,5.48,3,6.39,2.41,0,0,3.58-2.63,0-7.11-3.3-2.93-6-1.6-6.92,1.12-56.5-5-72.25-5.55-85.21.66-13.37-19.24-23-37.14-26.9-51.49-.27-.95-.5-1.88-.71-2.78l.93,4c.15.61.31,1.24.49,1.88,3.91,14.22,13.47,32,26.81,51.11C707.46,495.3,717.18,489.91,787.38,498.41Z" transform="translate(-647 -115.95)"/><path class="cls-1" d="M925.33,151.68c9.18,33.35,43.35,82.5,86.94,128.55-45.23,38.92-98,87.76-147.8,137.32a21,21,0,0,1-5.28,4.18c-5.48-.83-6.72,3-7,4.24a5.46,5.46,0,0,0,8.23,5.8c2.23-1.48,2.91-3.85,2-7.07l4.51-4.5c50.63-50.45,104.17-100.45,149.46-140.2-43.83-45.95-78.33-95.3-87.51-128.64-6.66-24.19,1.22-35.54,19.45-34.51l-3-.15-1,0C926.36,115.93,918.66,127.47,925.33,151.68Z" transform="translate(-647 -115.95)"/><path class="cls-1" d="M698.15,475.39c6.79-2.69,19.42-7.71,69.13-3.5,2.2,4,5.14,3,6,2.29,0,0,3.33-2.94,0-7.5-3.06-2.94-5.7-1.56-6.48,1.48-41.89-2-54.78-1.2-69,4.21C684.47,452.47,675,434,670.8,419a64,64,0,0,1-2-10.52l.44,4.16a64.33,64.33,0,0,0,1.92,9.51C675.25,437.12,684.8,455.53,698.15,475.39Z" transform="translate(-647 -115.95)"/><path class="cls-1" d="M896.42,155.81c9,32.77,39.91,79.36,80.53,125.05A1339.39,1339.39,0,0,0,844.83,396.14a21.31,21.31,0,0,1-5.24,4.19c-5.32-.86-6.61,3-6.88,4.25-1,4.45,3.41,8.57,7.88,5.87,2.21-1.49,2.93-3.89,2.14-7.12l4.5-4.5A1430.43,1430.43,0,0,1,981.51,280.89C940.43,235,909.08,188.05,900,155.15c-6.78-24.61,0-37.21,16.87-38.18l-3.94.27C896.33,118.46,889.64,131.19,896.42,155.81Z" transform="translate(-647 -115.95)"/><path class="cls-1" d="M696.14,450.17c12.8-4.4,23.37-5.34,46.73-5.78,1.46,3.75,4.17,3.88,5.56,2.52,0,0,3-3.24,0-7.81-2.78-2.92-5.06-1.19-5.8,1.9-26,.48-33.68,1.75-46.53,5.87-12.71-19.8-21.82-38.11-26-53.3a60,60,0,0,1-2.49-16.66l-.06,4A60.7,60.7,0,0,0,670,396.76C674.16,412,683.33,430.31,696.14,450.17Z" transform="translate(-647 -115.95)"/><path class="cls-1" d="M696.42,423c11.1-3.2,14.7-3.68,28.16-5.2,1,3.41,3.47,4,5,2.26a7.28,7.28,0,0,0,.07-8.07c-2.64-3.05-4.7-.39-5.25,2.36-15.32,1.7-17.46,2.29-27.73,5.14C685,400.43,676.55,382.85,672.46,368c-2.47-9-3.22-16.42-2.42-22.38l-.51,3.86c-.7,5.82.07,13,2.46,21.71C676.1,386.11,684.6,403.81,696.42,423Z" transform="translate(-647 -115.95)"/><path class="cls-1" d="M702.92,390.94c18.32-4,31.94-5,61.11-5.65a487.84,487.84,0,0,1,37.59-41.86,448.29,448.29,0,0,1,47.11-41.14,6.15,6.15,0,0,0,4.65-.56s5-3.14,2.34-7.79a7.28,7.28,0,0,0-.67-.69c-2.49-2.07-9.52-.71-8.9,6.15a565.46,565.46,0,0,0-46.49,41.4A473.74,473.74,0,0,0,763,381.63c-31.32.72-41.32,1.91-59.45,5.64-11.25-18.94-19.38-36.44-23.5-51.39-3.32-12.07-3.79-21.62-1.74-28.68l-1.06,3.72c-1.92,7-1.42,16.34,1.83,28.12C683.21,354.12,691.47,371.8,702.92,390.94Z" transform="translate(-647 -115.95)"/><path class="cls-1" d="M705.63,376.17c17.61-4.08,34.65-4.75,54.38-5.53a446.16,446.16,0,0,1,33.91-37.7q8.64-8.61,17.72-16.82a5,5,0,0,0,5.15-.42c3.26-2.18,4.05-6.76,1.53-8.91-3-2.56-9.53.56-8.54,6.74q-9.06,8.19-17.73,16.81a436.28,436.28,0,0,0-33,36.65c-29.08.89-39,2.81-52.65,5.45-10.45-18.05-18-34.73-22-49.12-3.65-13.23-3.95-23.52-1.33-30.9l-1.28,3.67c-2.48,7.31-2.13,17.42,1.43,30.36C687.26,341,695,357.88,705.63,376.17Z" transform="translate(-647 -115.95)"/><path class="cls-1" d="M718.06,331c11.82-2.14,15-2.42,32.56-4Q761,314.53,773.3,302.3A410.16,410.16,0,0,1,820.54,262a5.08,5.08,0,0,0,5-.18h0s5.09-2.93,3.12-7.33c-.17-.2-.36-.48-.54-.65-2.57-2.39-9.36.28-9.11,5.76a401.78,401.78,0,0,0-47.28,40.25q-11.7,11.64-21.72,23.59c-13.25,1.05-13.9,1.15-30.63,3.79-7.84-14.79-13.65-28.53-17-40.72-4.55-16.52-4.2-28.71.35-36.65l-1.95,3.46c-4.38,7.91-4.66,20-.19,36.21C704.05,301.92,710,315.92,718.06,331Z" transform="translate(-647 -115.95)"/><path class="cls-1" d="M1099.42,335.81c-1.57-.91-2.47-.11-3.84,1.1l-2.9-2.19A565.93,565.93,0,0,1,1048.41,297c-39.49,48.12-91.7,105.66-145.31,159.08q-8.51,8.48-16.69,16.45c.92,36.41,3.87,72.74,4.05,109.19a8.28,8.28,0,0,0-3.17,2.24c.7,4.72,7,6.07,10.46,2.25-.34-2.42-.4-2.86-3.45-4.24-.34-36-3.08-72-4.13-108q7.68-7.47,15.63-15.4c52.72-52.52,103.75-109.36,142.46-157.49,14,13.05,28.48,25.42,43.12,36.59a9.8,9.8,0,0,1,2.85,3c.32,3.51.69,3.7,2.78,4.75a6.71,6.71,0,0,0,3-2.11h0C1101.9,339.66,1100.53,337.53,1099.42,335.81Z" transform="translate(-647 -115.95)"/><path class="cls-1" d="M1064.13,370.72c2.75.49,7.79-4.49,3.71-9.63-1.89-1-2.56-1-4.81.5q-7-5.67-14-11.61a955.62,955.62,0,0,1-112.9,135.71l-3.66,3.63c.72,27.63.72,27.63.57,43.21a4.92,4.92,0,0,0-2.76,3.27c-.75,3.83,4.25,7.11,9,4.68h0c3.19-1.81,3.78-6.45-1.56-8.35-.71-19-.71-19-1.38-41.53l2.55-2.53a912.54,912.54,0,0,0,110.38-133.39q6,5,12,9.86C1060.49,369.51,1063,370.52,1064.13,370.72Z" transform="translate(-647 -115.95)"/><path class="cls-1" d="M1115.19,202.31a1.92,1.92,0,0,0-.18-.22c.77.95,1.51,1.93,2.31,2.86C1117.13,204.69,1116.38,203.75,1115.19,202.31Z" transform="translate(-647 -115.95)"/><path class="cls-1" d="M1172.51,323.7l-35.08-79a11.32,11.32,0,0,0-1.7-3.09l-.09,0c0,.35,2.11,8.48,3.73,9,18.53,38.93,26.84,59.89,33.52,76.72a23.3,23.3,0,0,0,6.44-.35c.8,2.62,1.05,2.86,1.62,3.39.21-.43.55-1.16-.14-4.55a22.23,22.23,0,0,0-2-5.88h-.61a12.38,12.38,0,0,0,.28,3.43A22.85,22.85,0,0,1,1172.51,323.7Z" transform="translate(-647 -115.95)"/><path class="cls-1" d="M1104.08,178a20,20,0,0,0-2.32-2.05l-1.37-1.11,0,0-.08-.07-1.56-1.24c1.7,1.37,3.3,2.86,5,4.25C1104,178,1104,178,1104.08,178Z" transform="translate(-647 -115.95)"/><path class="cls-1" d="M1025.18,132.78c5.92,2.36,6,2.38,6.6,2.51,12.5,5.13,13.88,5.88,30.78,15a117.57,117.57,0,0,1,15.27,8.34,125.44,125.44,0,0,0-17.46-9.74c-18.72-10.51-36-16.76-37.42-17,.74.31,1.48.61,2.23.9Z" transform="translate(-647 -115.95)"/><path class="cls-1" d="M1084.85,163.34c-2.41-1.69-4.75-3.24-7-4.68.82.53,1.65,1.08,2.48,1.64Z" transform="translate(-647 -115.95)"/><path class="cls-1" d="M910.83,153.4c9.14,33.21,41.8,81.27,84.12,127.4A1818.12,1818.12,0,0,0,854.51,406.86c-10.45,10.41-20.31,20.5-30.25,29.89-1.67-.17-5.57-.57-6.32,3.94-.72,4.32,3.6,8.33,7.81,5.81,2-1.37,2.59-3.66,1.66-6.8q13.86-14.52,29.56-30.17c47.06-46.88,97.62-92.32,142.37-128.82-42.68-46.16-75.74-94.53-84.9-127.8-6.73-24.45.62-36.46,18.16-36.46l-3.92,0C911.3,116.73,904.08,128.9,910.83,153.4Z" transform="translate(-647 -115.95)"/><path class="cls-1" d="M882.08,158.91c8.83,32.06,37.73,76.81,76.26,121.57a1064,1064,0,0,0-122.93,104.9C825,395.79,815.2,406,805.46,415.58c-4.89-.9-5.93,2.87-6.13,4.05-.76,4.39,3.34,8.41,7.41,5.82,2-1.4,2.55-3.72,1.72-6.88q13.6-14.83,29.3-30.48A1120.29,1120.29,0,0,1,963.05,280.63c-39.1-45-68.52-90.29-77.41-122.56-6.77-24.6-.52-37.7,15.46-39.65l-3.83.5C881.44,121.06,875.29,134.28,882.08,158.91Z" transform="translate(-647 -115.95)"/><path class="cls-1" d="M853.85,167.15C862.08,197,886.59,237.21,920,278.73a757.21,757.21,0,0,0-102.46,85.19c-10.45,10.41-20.12,20.71-29.66,30.51-4.67-.87-5.74,3-6,4.17-.81,4.43,3,8.42,7,5.75,1.91-1.44,2.51-3.79,1.79-7q13.35-15.13,29-30.78A785.6,785.6,0,0,1,924.87,279c-34.1-42-59.18-82.82-67.5-113-6.77-24.6-1.43-38.5,13.18-42l-3.82,1C852.31,128.61,847.09,142.59,853.85,167.15Z" transform="translate(-647 -115.95)"/><path class="cls-1" d="M709.06,361.19c16-3.21,23.29-3.84,47.33-5.18a414.8,414.8,0,0,1,30.21-33.45,479,479,0,0,1,46.86-40.89,5.25,5.25,0,0,0,5.19-.2c.05,0,5.06-3,2.72-7.57a7.68,7.68,0,0,0-.6-.68c-2.29-2-9.2-.7-9,6A467.78,467.78,0,0,0,784.84,320a408.24,408.24,0,0,0-29.28,32.38c-24.46,1.24-31.95,2.6-45.54,5.06-9.6-17.05-16.61-32.83-20.39-46.57-4-14.39-4.07-25.37-.82-33l-.81,1.93-.69,1.67c-3.1,7.58-2.94,18.39,1,32.5C692.09,327.87,699.24,343.88,709.06,361.19Z" transform="translate(-647 -115.95)"/><path class="cls-1" d="M753.26,341.47a388.86,388.86,0,0,1,26.47-29.12q8.65-8.62,17.79-16.73a4.77,4.77,0,0,0,5-.46c3.25-2.16,4.26-6.64,2-8.71-2.74-2.48-9.18.63-8.56,6.66q-9.14,8.08-17.79,16.72-13.92,13.86-25.54,28c-20.55,1.52-23.24,2-38.21,4.51-28.19-52.42-22-70.13-19-78.65l-1.72,3.51c-9.74,22.86,10,60.72,19.56,78.92C727.43,343.67,730.82,343.08,753.26,341.47Z" transform="translate(-647 -115.95)"/><path class="cls-1" d="M723.73,315.88c7.42-1.14,17.36-2.35,24.82-3.15q8.78-10.25,18.81-20.25,8.64-8.62,17.84-16.64a4.55,4.55,0,0,0,4.75-.52c3.23-2.15,4.47-6.51,2.42-8.47-2.46-2.36-8.79.75-8.58,6.58q-9.18,8-17.84,16.63-9.48,9.44-17.82,19.13c-6.88.71-16,1.93-22.87,2.93-7-13.55-12.14-26.17-15.26-37.48-4.83-17.53-4.21-30.25,1-38.25l-2.15,3.32c-5.08,8-5.63,20.58-.87,37.87C711.21,289.11,716.55,302,723.73,315.88Z" transform="translate(-647 -115.95)"/><path class="cls-1" d="M730.16,300.86c5.05-.8,11.83-1.58,16.91-2.21q7-8,14.83-15.76a361.42,361.42,0,0,1,47.56-39.77,5,5,0,0,0,4.84-.24h0c.05,0,5.1-2.84,3.54-7a5.73,5.73,0,0,0-.47-.63c-2.28-2.26-9,.35-9.17,5.58a357,357,0,0,0-47.59,39.71q-7.26,7.23-13.83,14.63c-4.48.49-10.42,1.39-14.88,2a194.29,194.29,0,0,1-13.51-34.08c-5.09-18.48-4.19-31.66,1.77-39.66l-2.36,3.21c-5.78,8-6.61,21.08-1.58,39.32A196.25,196.25,0,0,0,730.16,300.86Z" transform="translate(-647 -115.95)"/><path class="cls-1" d="M777.66,195a9,9,0,0,0-2.55,3.6c-.61,2.29,1.7,2.37,4.16,1a11.45,11.45,0,0,0,4.87-5.07c.42-1.21.26-3.11-3.4-1.63-3-17.39.42-28.87,9.32-34.55l-3.32,2.16C778,166.24,774.63,177.7,777.66,195Z" transform="translate(-647 -115.95)"/><path class="cls-1" d="M816,205.3c-5.33,4.64-3.62,8.45.1,8.65a9.76,9.76,0,0,0,3.77-.75h0c3-1.26,7.88-5.34,5.55-9.09-1.49-1.35-3.22-1.53-6.17-.63a157.19,157.19,0,0,1-6.56-18.69c-6.57-23.85-2.67-38.45,9.52-44l-3.56,1.67c-12,5.72-15.78,20.34-9.24,44.09A159.44,159.44,0,0,0,816,205.3Zm5.73.47c1.89.77.85,3.54-1.82,4.85-1,.52-3,1-3.82-.4C815.23,207.74,819.53,204.87,821.73,205.77Z" transform="translate(-647 -115.95)"/><path class="cls-1" d="M770.64,222.54a9.21,9.21,0,0,0-1.93,3.43c-.67,2.86,1.66,3.85,4.7,2h0a9.93,9.93,0,0,0,4.08-4.82c.73-2.14,0-4.53-3.89-2.9-1.07-3.09-2-6.1-2.82-9-6.14-22.28-3.55-36.86,6.13-43.91l-3.21,2.37c-9.49,7.14-12,21.68-5.89,43.82Q769,217.9,770.64,222.54Z" transform="translate(-647 -115.95)"/><path class="cls-1" d="M755.58,217.82a12.65,12.65,0,0,0,4.49-5.66c.38-1.3.2-3.25-3.22-1.39-2.86-16.28-.09-27.46,7.41-33.65l-3.08,2.59c-7.34,6.23-10,17.37-7.19,33.49a10.33,10.33,0,0,0-2.32,3.92C751.15,219.53,753.31,219.42,755.58,217.82Z" transform="translate(-647 -115.95)"/><path class="cls-1" d="M1083,366.71c.56,3.9,4.11,4.73,6.44,1.52a6.29,6.29,0,0,0-.46-7.85c-2-.64-2.41-.79-4.38.9l-3.23-2.45c-11.17-8.52-22.28-17.69-33.16-27.29C1014.73,378.39,971.44,429.73,925,476q-4.07,4.07-8.08,8c.57,21.13,1.52,42.25,2,63.38-1.15.5-2.88,1.26-3.28,3.16-.77,3.74,4.85,6.71,8.86,4.66,2.06-1.05,4.76-5.38-1.51-7.83-1.65-43.34-1.65-43.34-2.2-62q3.48-3.4,7-6.9c45.56-45.4,87.82-95.87,120.62-142.36,10.34,9.05,20.88,17.7,31.47,25.78a11,11,0,0,1,3.15,3.26C1083,365.63,1083,366.25,1083,366.71Z" transform="translate(-647 -115.95)"/><path class="cls-1" d="M901.14,560.6c-.73,3.22,4.14,6.43,8.63,4.64,2-1,4.68-4.88-1.45-7.4-1-26-2.2-52-3-78q5.61-5.46,11.35-11.17c49.15-49,95.64-102.77,131.32-150.44,8.77,7.93,17.72,15.59,26.75,22.86-.62,4.63,1.4,5.63,2.66,5.82,2.47.36,6.93-4.63,3.23-9.4-1.89-1-2.45-.57-4.32.68-9.57-7.7-19-15.86-28.32-24.31C1011.6,361.71,964,416.3,914,466.15q-6.29,6.27-12.43,12.23c.35,13.67.35,13.67,3.07,79.27C903.31,558.15,901.54,558.82,901.14,560.6Z" transform="translate(-647 -115.95)"/><path class="cls-1" d="M846.76,625.12c-.17-.46-.17-.46-.7-.84-2.76-1.52-6.77-2.11-7.87-1.46-.08,1.34,3.95,2.27,5.18,2.52,24.48,15,36.54,17.75,44.53,19.6l4,.66c-11.86-2-27.57-8.68-46.06-20.07C846.43,625.44,846.43,625.44,846.76,625.12Z" transform="translate(-647 -115.95)"/><path class="cls-1" d="M869.06,640.27a1.66,1.66,0,0,0-.33-.15,68.46,68.46,0,0,0-9.15-2.14,29.6,29.6,0,0,0,4.82,1.43,76.88,76.88,0,0,0,7.53,2.25l2.35.55,1.8.4a74.47,74.47,0,0,1-8.7-2.53C868.81,640.35,868.88,640.33,869.06,640.27Z" transform="translate(-647 -115.95)"/><path class="cls-1" d="M833,625.91c0-.25,0-.25-.49-.54A23,23,0,0,0,825,623l-.14.16c.7.72,3.48,1.69,4.64,2.07A132.65,132.65,0,0,0,854.71,637l4.27,1.29c-7.71-2.32-16.8-6.44-27-12.34A2.13,2.13,0,0,0,833,625.91Z" transform="translate(-647 -115.95)"/><path class="cls-1" d="M838.45,631.35h0l7,2.57.11,0-.25-.1C843.05,633,840.74,632.21,838.45,631.35Z" transform="translate(-647 -115.95)"/><path class="cls-1" d="M810.31,613.47a16.85,16.85,0,0,0-3.95-1.81q-4.87-3.45-10-7.34c-7.93-6.05-15.81-12.57-23.52-19.4-17.93-7.66-23.87-11.32-29.73-16.18l.82.84.18.18c6,5.6,15.06,9.91,28.15,15.83,7.35,6.5,14.86,12.69,22.4,18.45q5,3.8,9.75,7.17H804c0,.13,0,.29,0,.42a16.36,16.36,0,0,0,4.77,2.37c1.45.45,1.51.43,2.28.17A3.6,3.6,0,0,0,810.31,613.47Z" transform="translate(-647 -115.95)"/><path class="cls-1" d="M696.87,463.06c6.32-2.55,21.11-8.53,82.69-3.66,2.26,4.24,5.63,2.94,6.41,2.36,0,0,3.71-3.09.21-7.86-3.17-3-6.08-1.55-7.07,1.57-52.41-2.39-67.17-.93-82.48,4.4-13.06-19.94-22.42-38.39-26.6-53.57a61.41,61.41,0,0,1-2.33-13.55l.18,4a61.5,61.5,0,0,0,2.27,12.78C674.32,424.65,683.73,443.11,696.87,463.06Z" transform="translate(-647 -115.95)"/><path class="cls-1" d="M696,436.81c13.5-4.37,28.79-6.81,63.31-5.52,2,4.24,5.07,3,6,2.22,0,0,3.53-3.34.32-8.14-2.62-2.67-5.54-1.83-6.66,1.91-42-.11-51.2,2.64-62.89,6.12-12.23-19.51-21-37.51-25.17-52.59-2.14-7.75-2.94-14.32-2.51-19.73l-.23,3.08,0,.8c-.34,5.26.46,11.6,2.51,19C674.74,399.12,683.62,417.21,696,436.81Z" transform="translate(-647 -115.95)"/><path class="cls-1" d="M1114.72,225.08c-1.77.86-2.37,8.46-.67,8.66.58.06,1.15-1,1.44-2.62a12.76,12.76,0,0,0-.26-5.63,93.54,93.54,0,0,0-.22-23.4A91.88,91.88,0,0,1,1114.72,225.08ZM1115,230c-.11.67-.41,1.73-.87,1.44-.79-.81-.13-4.29.49-4.28.4,0,.59,1.47.38,2.84Z" transform="translate(-647 -115.95)"/><path class="cls-1" d="M965,150.52a98.65,98.65,0,0,0,3.56,10.38c5.38,1.61,12.55,3.76,17.92,5.39-1.91,1.84,2.33,3.33,6.22,3.6h0c2.36.16,8.6-.17,6.75-2.59-2.89-2.13-7.93-2.09-8.5-2.08-2.87.06-2.87.06-19.06-4.87a93.05,93.05,0,0,1-3.28-9.68c-5.24-19,.27-28.53,13.61-28.88l16,3.32c.08,0,8.61,2.69,11,3.11-1-1.26-11.9-4.19-30.06-7.14C965.34,121.29,959.6,131,965,150.52Zm30.71,16.56c1,.5.94,1.09-.15,1.43a8,8,0,0,1-2.4.23h0c-1.11-.05-3.13-.36-3.65-1.22C989,166.13,993.62,166,995.68,167.08Zm4-41.84a41.23,41.23,0,0,1,6.5,1.92,41.17,41.17,0,0,1-4.41-1.15,16.53,16.53,0,0,1-2.19-.75A.18.18,0,0,1,999.65,125.24Z" transform="translate(-647 -115.95)"/><path class="cls-1" d="M1098.35,185.57c.41.44.68.71,3.21,3.08,1.61,1.52,3.21,3,4.83,4.56q4.39,4.31,8.62,8.88-4.2-4.58-8.57-8.9A92.5,92.5,0,0,0,1098.35,185.57Z" transform="translate(-647 -115.95)"/><path class="cls-1" d="M1111.2,198.31c.43.43.88.84,1.31,1.27l-.39-.39C1111.81,198.89,1111.5,198.61,1111.2,198.31Z" transform="translate(-647 -115.95)"/><path class="cls-1" d="M1112.51,199.58l2.5,2.51-1.73-1.76C1113,200.08,1112.76,199.84,1112.51,199.58Z" transform="translate(-647 -115.95)"/><path class="cls-1" d="M1097.7,185.94c1,1,8.28,7.4,8.35,7.46,1.74,1.61,3.44,3.26,5.15,4.91-1.7-1.66-3.39-3.33-5.11-4.94C1104.15,191.46,1098.78,186.52,1097.7,185.94Z" transform="translate(-647 -115.95)"/><path class="cls-1" d="M1090.44,183.12c-1.39-1.12-8.11-5.82-9-5.73a32.63,32.63,0,0,0,3.7,2.58c.16.1,3.85,2.5,5.35,3.32a266,266,0,0,1,22.47,17l2.1,1.8-3.31-2.83Q1101.41,190.61,1090.44,183.12Z" transform="translate(-647 -115.95)"/><path class="cls-1" d="M1106.25,193.27c-1.88-1.92-7.14-6.91-8.25-7.54.43.45.71.72,3.28,3.06,1.65,1.5,3.28,3,4.93,4.5q4.47,4.28,8.8,8.8C1112.14,199.06,1109.22,196.13,1106.25,193.27Z" transform="translate(-647 -115.95)"/><path class="cls-1" d="M1081.43,178.35a30.66,30.66,0,0,0,3.72,2.51c.39.24,3.88,2.41,5.32,3.15,3.57,2.42,7.62,5.34,11.66,8.33q-5.7-4-11.58-7.74c-1.43-1.08-8.2-5.47-9-5.19a27,27,0,0,0,3.73,2.42c.16.1,3.79,2.26,5.28,3q7.7,4.78,15.06,10.16c3.31,2.49,6.53,4.94,9.36,7.12a258.85,258.85,0,0,0-24.55-18.26C1089.05,182.72,1082.29,178.17,1081.43,178.35Z" transform="translate(-647 -115.95)"/><path class="cls-1" d="M1173.19,365.24c-1.87-6.17-4.35-14.41-6.3-20.56.44-4.68-1-11.39-2.93-11.23-2.45,2.29-.57,13.84,1.37,14.31.42.1.63-.17.89-.52,2,6.46,4.75,15.07,6.63,21.58,9.41,1.59,16.46.25,20.64-4.08l2.09,8.36c0,1.2.14,7.28,1,9.59l.32.08c.59-1.6.47-5.71.41-6.93-.06-1.56-.3-5.39-1-7.2l-.32-.09a4.76,4.76,0,0,0-.29,1.62l-2.4-9.2C1189.24,365.32,1182.38,366.72,1173.19,365.24Zm-8-21.07c-1.45-.67-1.53-6.76-.69-7.16.61-.29,1.37,1.88,1.48,4.21h0C1166,342.35,1165.89,344.25,1165.15,344.17Zm31.23,27.94a9.69,9.69,0,0,1,.52,3.3h0a13.78,13.78,0,0,1-.17,3.81c-.31.34-.53-1.78-.6-2.94C1196,374.1,1196.07,371.8,1196.38,372.11Z" transform="translate(-647 -115.95)"/><path class="cls-1" d="M1172.73,401.75c.5.08,1.74-.26,2.6-5.21,6.43.69,11.73,0,15.74-2.09.2,3.41.52,4.34,1,4.74,1.27-.2,1.47-6.38,1.48-6.64h0c0-.66.15-6.49-1.06-7.88h-.25l-.2.23c-.43.95-.73,2.27-.93,5.92-4,2.06-9.18,2.74-15.53,2.06-.33-6.46-2.06-6-2.7-5.31C1170.66,390,1170,401.29,1172.73,401.75Zm19.44-13.31c.12-.21.29-.33.48.25a12.37,12.37,0,0,1,.29,3.2h0c0,1.08-.16,3.23-.62,3.66C1191.42,395.86,1191.62,389.46,1192.17,388.44Zm-18.85,2.39c.77-.39,1.31,1.71,1.08,4.16-.11,1.15-.52,3.11-1.35,3.12C1171.46,397.61,1172.28,391.34,1173.32,390.83Z" transform="translate(-647 -115.95)"/><path class="cls-1" d="M1056.68,416.24a3.94,3.94,0,0,0,3,2.35c3.23.51,8.49-4.69,4-10-5.11-2.15-6.91,2.65-7.33,4.17-9.58,2.43-22.45,5.26-32.13,7.25a740.58,740.58,0,0,1-53.56,64c.82,18.58.82,18.58,1.5,41.17q6.84,5,13.44,9.67a405.65,405.65,0,0,1-32.64,28.24c-5.36-1-7.22,1.62-7.67,2.43-2.06,3.77,3.62,7,8.22,4.62,3.48-1.76,2.43-4.37,2.08-5.23a400.2,400.2,0,0,0,35.38-30.79q-7.35-5.08-15-10.69c-.35-11.5-.93-26.83-1.44-38.32a713,713,0,0,0,51.36-61.83C1035.16,421.45,1047.47,418.54,1056.68,416.24Z" transform="translate(-647 -115.95)"/><path class="cls-1" d="M1022.31,491.54c-.64,4.65,4.65,6.78,8.44,3.41h0a5.56,5.56,0,0,0,1.47-6.81c35.81-45.54,62.86-96.6,78.24-145.24,0-.23-4-23.5-3.09-25.6a6.21,6.21,0,0,0-1-6.27,3,3,0,0,0-2.14,0c-1.94,1.19-4,8.15.36,9.25,1.07,6.82,2.56,15.9,3.68,22.71-15.88,47.94-43.07,98.29-78.68,143.33C1023.17,485.9,1022.34,491.31,1022.31,491.54Z" transform="translate(-647 -115.95)"/><path class="cls-1" d="M727.78,220.7c2.21-2.31,5.24-6.43,4.73-7.18-.41,0-.88.29-2.09,1.43a23.78,23.78,0,0,1,5.32-10.52l-2.69,3a23.93,23.93,0,0,0-5.1,10.28c-2.48,3.2-2.79,4.23-2.78,4.78l.15.1C725.56,222.56,726.14,222.41,727.78,220.7Z" transform="translate(-647 -115.95)"/><path class="cls-1" d="M868.48,575.12a3.82,3.82,0,0,0,1.88-1.42c1.42-2.43-2-6.34-7.16-5.5q-8.67-7.08-17.23-14.52c-2.94-40.77-2.94-40.77-4-57.56q8.38-8,17.36-16.73a6.74,6.74,0,0,0,2.38.58c3.6.09,7.55-4.05,3.47-8.86a8.68,8.68,0,0,0-1.82-1.2c-3.86-1.61-8.9,1.62-6.63,6.94q-9.45,9.22-18.24,17.69c1.12,17.78,1.12,17.78,4.28,59.82q9,7.83,18.12,15.28c-.08.15-.2.34-.26.49C859.42,573.23,864.55,576.5,868.48,575.12Z" transform="translate(-647 -115.95)"/><path class="cls-1" d="M958.06,583.61a5.92,5.92,0,0,0-2.6-2.11c-7.27-2.27-13.2,2.57-11.37,6.1a6.24,6.24,0,0,0,.46.68,257.39,257.39,0,0,1-34.11,17.93q10.18,6.64,19.61,12c-3.67,2.58,0,4.12,1.76,4.5a16.25,16.25,0,0,0,6.54-.16c4.06-1,5.45-3.34,2.87-4.82-.87-.49-3.41-1.54-8.34-.6q-8.43-4.83-17.48-10.65A258.34,258.34,0,0,0,947,589.87C954.34,592,960,587.12,958.06,583.61Zm-7.49-.22c2.9-.47,5.09,1.3,3.85,3.1a3.57,3.57,0,0,1-1.18,1,5.31,5.31,0,0,1-4.92,0C946.28,586,947.89,583.81,950.57,583.39Zm-16.21,35.16c2.62-.54,5.26.39,4.56,1.62a3,3,0,0,1-1.67,1,7,7,0,0,1-4.62-.18C931.06,620.05,932.58,618.93,934.36,618.55Z" transform="translate(-647 -115.95)"/><path class="cls-1" d="M1074.52,597.37A255.2,255.2,0,0,0,1096,578.24c1.49-1.48,3-3,4.4-4.49a14.23,14.23,0,0,0,4.47-3.11c.05,0,4.29-4.31,2.19-5-3,.22-8.72,5.82-8.16,8q-2.17,2.26-4.41,4.5c-6,6-12.23,11.6-18.6,16.83a90.86,90.86,0,0,1-12.76-2.4c2-5.48,3.69-13.06,5.65-18.54.22-.61.89-.6,1.3-1,1.73-1.44,2.83-3.23,2.74-4.45-.19-2.82-5.61-1.27-8.63,2.48-1.92,2.36-1.84,4.66,1.31,4.31-1.52,5.85-4,13.54-5.92,19.26A87.86,87.86,0,0,0,1074.52,597.37Z" transform="translate(-647 -115.95)"/><path class="cls-1" d="M1144.08,535.82c-2.41,1-7.34,8-6.52,9.16.37,0,.49,0,1.32-.63-6,14.09-10.17,20.26-20.1,30l3-3h0l4.09-4.18c3.53-4.23,8.38-9.94,10.64-15,1.39-3.08,2.85-7.38,4.62-10.25.63-1,1.48-1.87,2.08-2.9,1.43-2.42,1.34-2.92,1.11-3.25Z" transform="translate(-647 -115.95)"/><path class="cls-1" d="M1126.82,566.26l-.91.93h0Z" transform="translate(-647 -115.95)"/><path class="cls-1" d="M777.52,576.88h0c1.6-.29,2.66-2.29-.92-5.23-3.3-2.13-5.44-1.59-5.84,0-29.17-9.17-36.11-12.59-37.65-13.8L734,559c6.62,4.46,30,12,37,14.27C772.44,575.88,775.86,577.18,777.52,576.88ZM773.75,572c1.76,0,3.84,2.13,2.92,3.06a1,1,0,0,1-.36.21h0a3.12,3.12,0,0,1-2.75-.94C772.28,573,772.62,572,773.75,572Z" transform="translate(-647 -115.95)"/><path class="cls-1" d="M803.17,487.25c2.41,4.06,5.84,3.11,6.86,2.46,0,0,3.94-2.86.21-7.5-3.43-3-6.58-1.66-7.54,1.29-66.4-4.89-86.44-6.36-103.25.74-13.42-19.67-23-37.93-27.09-52.7q-.95-3.46-1.47-6.54l.69,4.08c.33,1.76.76,3.63,1.3,5.58,4,14.68,13.65,32.87,27.06,52.45C706,484,717.18,478.1,803.17,487.25Z" transform="translate(-647 -115.95)"/><path class="cls-1" d="M900.52,277.51a661,661,0,0,0-91.42,75.72c-1.52,1.51-3,3-4.49,4.52-5.71-2-7.26,3.78-7.33,4-1.16,4.54,2.62,8.56,7,5.79,2.14-1.52,3-3.92,2.41-7.15q2.22-2.25,4.49-4.52a683.84,683.84,0,0,1,94.22-78.07c-31.23-39.87-54-78.06-61.92-106.89-6.73-24.43-1.85-38.62,12-42.83l-3.69,1.15c-13.67,4.38-18.45,18.63-11.73,43C847.87,200.72,870,238.23,900.52,277.51Z" transform="translate(-647 -115.95)"/><path class="cls-1" d="M867.9,162.69c8.56,31.09,35.33,73.69,71.43,117.05a883.73,883.73,0,0,0-113,94.9,22.15,22.15,0,0,1-5.21,4.19c-5.13-.85-6.48,3.06-6.77,4.28-1.06,4.45,3.08,8.58,7.46,5.87,2.18-1.51,2.94-3.91,2.27-7.15q2.22-2.25,4.49-4.51A922.85,922.85,0,0,1,944.12,280c-36.74-43.75-64-86.91-72.69-118.27-6.79-24.67-1-38.21,14.36-40.94l-3.82.72C866.81,124.39,861.11,138,867.9,162.69Z" transform="translate(-647 -115.95)"/><g id="Layer_2" data-name="Layer 2"><polygon class="cls-2" points="370.92 179.36 362.04 193.69 361.88 244.05 362.13 396.17 391.49 396.17 391.49 179.36 370.92 179.36"/><polygon class="cls-3" points="370.92 179.36 362.04 193.69 361.88 244.05 362.13 396.17 391.49 396.17 391.49 179.36 370.92 179.36"/></g><g id="Layer_3" data-name="Layer 3"><polygon class="cls-2" points="361.88 194.32 286.05 318.48 286.05 351.82 296.21 351.79 361.93 244.03 361.88 194.32"/><polygon class="cls-3" points="361.88 194.32 286.05 318.48 286.05 351.82 296.21 351.79 361.93 244.03 361.88 194.32"/></g><g id="Layer_6" data-name="Layer 6"><polygon class="cls-2" points="210.06 193.69 201.18 179.36 180.61 179.36 180.61 396.17 209.97 396.17 210.22 244.05 210.06 193.69"/><polygon class="cls-3" points="210.06 193.69 201.18 179.36 180.61 179.36 180.61 396.17 209.97 396.17 210.22 244.05 210.06 193.69"/></g><g id="Layer_7" data-name="Layer 7"><polygon class="cls-2" points="210.22 194.32 210.17 244.03 275.89 351.79 286.05 351.82 286.05 318.48 210.22 194.32"/><polygon class="cls-3" points="210.22 194.32 210.17 244.03 275.89 351.79 286.05 351.82 286.05 318.48 210.22 194.32"/></g><path class="cls-1" d="M718.33,732.73v-72A4.69,4.69,0,0,1,723,656h0a5.85,5.85,0,0,1,5,2.81l33.76,55.46h-5.43l33.91-55.72a5.32,5.32,0,0,1,4.54-2.55h0a5,5,0,0,1,5,5v73.06a5.67,5.67,0,0,1-5.67,5.67h0a5.66,5.66,0,0,1-5.67-5.66V675.93l2.65.72L764.65,720a5.35,5.35,0,0,1-4.58,2.57h0a8.81,8.81,0,0,1-7.52-4.22l-25.41-41.74,2.53-.72v59.49a4.32,4.32,0,0,1-4.32,4.32h0A7,7,0,0,1,718.33,732.73Z" transform="translate(-647 -115.95)"/><path class="cls-1" d="M831.12,741a25.26,25.26,0,0,1-12.73-3.2,22.56,22.56,0,0,1-8.74-8.86,26.65,26.65,0,0,1-3.14-13.15v-33.3h10.86v32.82A18.8,18.8,0,0,0,819,723.4a11.56,11.56,0,0,0,4.76,5.24,14.42,14.42,0,0,0,7.36,1.81q6.39,0,10-4t3.62-11.15V682.44h10.86v33.3a26.75,26.75,0,0,1-3.14,13.15,22.81,22.81,0,0,1-8.62,8.86A24.87,24.87,0,0,1,831.12,741Z" transform="translate(-647 -115.95)"/><path class="cls-1" d="M881.18,741a31.84,31.84,0,0,1-9.11-1.27,30,30,0,0,1-7.9-3.62,26.71,26.71,0,0,1-6.27-5.61l7-7a20.07,20.07,0,0,0,7.23,5.73,21.85,21.85,0,0,0,9.17,1.87q5.07,0,7.84-1.75a5.49,5.49,0,0,0,2.78-4.89,5.86,5.86,0,0,0-2.23-4.88,18.73,18.73,0,0,0-5.73-2.9q-3.51-1.14-7.42-2.29a40.58,40.58,0,0,1-7.42-3,15.83,15.83,0,0,1-5.73-4.94,14.07,14.07,0,0,1-2.23-8.33,15.8,15.8,0,0,1,2.53-9,16.34,16.34,0,0,1,7.06-5.85,26.23,26.23,0,0,1,10.91-2,29.05,29.05,0,0,1,12,2.35,21.06,21.06,0,0,1,8.62,7.06l-7,7a16.26,16.26,0,0,0-6-4.82,18.47,18.47,0,0,0-8-1.69q-4.71,0-7.17,1.63a5.12,5.12,0,0,0-2.48,4.52,5.18,5.18,0,0,0,2.17,4.46,19.62,19.62,0,0,0,5.73,2.66c2.37.72,4.85,1.47,7.42,2.23a36.93,36.93,0,0,1,7.36,3.08,16.48,16.48,0,0,1,5.73,5.18,14.89,14.89,0,0,1,2.23,8.57q0,8.09-5.73,12.78T881.18,741Z" transform="translate(-647 -115.95)"/><path class="cls-1" d="M901.93,692.33v-9.89H941v9.89ZM916,739.74v-81.3H926.9v81.3Z" transform="translate(-647 -115.95)"/><path class="cls-1" d="M969.36,741A26.7,26.7,0,0,1,955.13,737a27.9,27.9,0,0,1-10.07-10.68,33.23,33.23,0,0,1,0-30.4,28.56,28.56,0,0,1,10-10.73,26.24,26.24,0,0,1,14.29-4A24.44,24.44,0,0,1,981,684a21.76,21.76,0,0,1,11.77,18.52v17.25a22.64,22.64,0,0,1-3.44,11,21.57,21.57,0,0,1-8.2,7.54A24.92,24.92,0,0,1,969.36,741Zm1.81-10.25a16.7,16.7,0,0,0,13-5.49q4.95-5.49,4.95-14.06a22.48,22.48,0,0,0-2.24-10.31,16.58,16.58,0,0,0-6.33-6.88,19.53,19.53,0,0,0-19.12.06A17.83,17.83,0,0,0,955,701,21,21,0,0,0,952.59,711a21.33,21.33,0,0,0,2.36,10.2,17.67,17.67,0,0,0,6.57,6.93A18.39,18.39,0,0,0,971.17,730.7Zm17.25,9V724.3l2.05-14-2.05-13.87v-14h11v57.3Z" transform="translate(-647 -115.95)"/><path class="cls-1" d="M1030,741a27,27,0,0,1-14.36-3.92,27.9,27.9,0,0,1-10.07-10.68,33.23,33.23,0,0,1,0-30.4,28.4,28.4,0,0,1,10.07-10.73,26.37,26.37,0,0,1,14.24-4,24.76,24.76,0,0,1,11.76,2.71,21.58,21.58,0,0,1,8.2,7.48,22.27,22.27,0,0,1,3.44,11v17.25a22.43,22.43,0,0,1-3.44,11,21.49,21.49,0,0,1-8.2,7.54A24.62,24.62,0,0,1,1030,741Zm1.69-10.25a16.7,16.7,0,0,0,13-5.49q4.93-5.49,4.94-14.06a22.48,22.48,0,0,0-2.23-10.31,16.78,16.78,0,0,0-6.27-6.88,19.41,19.41,0,0,0-19.06.06,18.23,18.23,0,0,0-6.58,6.94,20.6,20.6,0,0,0-2.41,10.07,20.89,20.89,0,0,0,2.41,10.2,17.86,17.86,0,0,0,16.17,9.47Zm17.37,33V725.39l1.93-14-1.93-13.87V682.44H1060v81.31Z" transform="translate(-647 -115.95)"/><path class="cls-1" d="M1068.64,739.74V653.61h10.86v42.83l-2,13.87,2,14v15.44ZM1098.8,741a25.34,25.34,0,0,1-11.76-2.71,21.65,21.65,0,0,1-8.38-7.54,22.08,22.08,0,0,1-3.5-11V702.47a21.67,21.67,0,0,1,3.55-11,22.39,22.39,0,0,1,8.45-7.48,25,25,0,0,1,11.64-2.71,26.06,26.06,0,0,1,14.18,4,28.1,28.1,0,0,1,10,10.73,33.72,33.72,0,0,1,0,30.4A27.6,27.6,0,0,1,1113,737,26.45,26.45,0,0,1,1098.8,741ZM1097,730.7a17.74,17.74,0,0,0,9.53-2.54,18.33,18.33,0,0,0,6.51-6.93,22.56,22.56,0,0,0,0-20.33,17.73,17.73,0,0,0-6.51-6.94,17.93,17.93,0,0,0-9.41-2.47,18.16,18.16,0,0,0-9.53,2.47,16.9,16.9,0,0,0-6.39,6.94,24,24,0,0,0-.06,20.33,17,17,0,0,0,6.39,6.93A17.85,17.85,0,0,0,1097,730.7Z" transform="translate(-647 -115.95)"/><path class="cls-1" d="M1158.39,741a26.76,26.76,0,0,1-14.24-3.92,27.9,27.9,0,0,1-10.07-10.68,33.23,33.23,0,0,1,0-30.4,28.56,28.56,0,0,1,10-10.73,26.28,26.28,0,0,1,14.3-4A24.5,24.5,0,0,1,1170,684a21.78,21.78,0,0,1,11.76,18.52v17.25a22.53,22.53,0,0,1-3.43,11,21.59,21.59,0,0,1-8.21,7.54A24.88,24.88,0,0,1,1158.39,741Zm1.81-10.25a16.7,16.7,0,0,0,13-5.49q4.95-5.49,4.94-14.06a22.48,22.48,0,0,0-2.23-10.31,16.65,16.65,0,0,0-6.33-6.88,19.53,19.53,0,0,0-19.12.06A17.79,17.79,0,0,0,1144,701a21,21,0,0,0-2.35,10.07,21.33,21.33,0,0,0,2.35,10.2,17.62,17.62,0,0,0,6.58,6.93A18.37,18.37,0,0,0,1160.2,730.7Zm17.25,9V724.3l2-14-2-13.87v-14h11v57.3Z" transform="translate(-647 -115.95)"/><path class="cls-1" d="M1199.4,739.74V653.61h10.86v86.13Z" transform="translate(-647 -115.95)"/><path class="cls-4" d="M990,834.25s.63-43.83,46.31-26.2c3.43-17.75,15.16-27.92,33.09-28.59s38.26,25.26,38.26,25.26,4.78-12.24,16.39-13,18.2,15.83,18.2,15.83l-17.68,29.22-27.29,28.38-47.55,4.68-18.56-3.46" transform="translate(-647 -115.95)"/><path class="cls-2" d="M1095.37,963.55h-1c-9.85-.23-17.2-3-24.31-5.62-7.43-2.76-14.43-5.37-23.42-4.42-6,.65-10.78,1.52-14.61,2.22-7.72,1.42-12.83,2.35-19-.25-17.32-7.26-24.22-22.85-30.31-36.6-2.64-6-5.13-11.59-8.2-15.75-11.45-15.49-15.82-27.25-4.21-41.54,12.25-15.09,35.21-9,36.18-8.74l-1,3.73c-.21-.06-21.51-5.68-32.16,7.44-9.07,11.18-8,20.13,4.32,36.81,3.32,4.5,5.9,10.32,8.63,16.49,5.79,13.09,12.36,27.93,28.26,34.59,5.15,2.16,9.31,1.4,16.86,0,3.9-.72,8.74-1.6,14.91-2.26,9.88-1.06,17.3,1.71,25.17,4.64,6.81,2.53,13.85,5.15,23,5.37,8.25.21,13-2.39,18-5.13,6.53-3.57,13.27-7.27,27.36-3.88,2.15.51,4.16,1,6.05,1.49,19,4.75,24.79,6.19,38.78-9,3.43-3.72,6.44-7.18,9.1-10.23,10.09-11.59,16.76-19.24,29.42-22.78,14.72-4.11,25.11-17.32,29.27-37.2,4.12-19.64-4.31-36.93-4.4-37.1l-.54-1.09.75-1c.09-.11,9-11.5,17.48-21.82,8.82-10.73-2-38-6.87-46.66a79.87,79.87,0,0,1-4.06-9.43c-4.38-11.26-10.38-26.68-21.84-32.29l1.7-3.48c12.82,6.28,19.13,22.52,23.74,34.37a79.83,79.83,0,0,0,3.82,8.93c4.17,7.37,17.49,37.64,6.5,51-7.06,8.59-14.4,17.9-16.69,20.83,1.89,4.31,8,20.25,4.2,38.49-4.47,21.35-15.84,35.6-32,40.12-11.56,3.23-17.58,10.15-27.55,21.6-2.68,3.07-5.71,6.55-9.17,10.31-15.55,16.92-23.46,14.94-42.57,10.17-1.88-.47-3.88-1-6-1.48-12.62-3-18.17,0-24.59,3.52C1109.31,960.7,1104.1,963.55,1095.37,963.55Z" transform="translate(-647 -115.95)"/><path class="cls-2" d="M1199.81,912.29l-2.87-.64c-1.88-.44-4.66-1.07-8.21-2a93.78,93.78,0,0,1-12.7-4.43A46.41,46.41,0,0,1,1161.15,895a82,82,0,0,1-6.5-8.19,57.41,57.41,0,0,0-7.3-8c-2.77-2.6-5.78-5.45-8.53-8.6s-5.43-6.48-8.09-9.93c-5.28-6.9-10.76-14.07-16.46-21.68a62.25,62.25,0,0,1-7.66-12.92c-2-4.83-3.07-10.62-1.62-16.23a26.4,26.4,0,0,1,8.77-13.77,34.65,34.65,0,0,1,13.79-7.11,35.82,35.82,0,0,1,14.86-.54,52.22,52.22,0,0,1,13.31,4.08,62.72,62.72,0,0,1,11.33,6.63,61.28,61.28,0,0,1,4.87,4l4.32,4c5.64,5.25,10.87,10.15,15.72,14.54,9.67,8.78,17.85,15.5,23.64,20s9.08,6.86,9.08,6.86-3.48-2.07-9.61-6.13-14.8-10.22-25-18.51c-5.11-4.13-10.6-8.78-16.46-13.78l-4.46-3.79c-1.48-1.22-3-2.4-4.67-3.5a59.56,59.56,0,0,0-10.7-5.77c-7.6-3.16-16.52-5-24.8-2.67A29.63,29.63,0,0,0,1117.5,800a21,21,0,0,0-6.87,10.79c-1.09,4.14-.36,8.6,1.3,12.72a59.12,59.12,0,0,0,6.85,11.82l15.88,22c2.52,3.49,5,6.85,7.55,10s5.21,5.88,7.94,8.68a59.28,59.28,0,0,1,7.3,8.8,82,82,0,0,0,5.85,8.24,45.19,45.19,0,0,0,13.54,10.48,95.65,95.65,0,0,0,12.17,5.21c3.44,1.23,6.16,2.08,8,2.67Z" transform="translate(-647 -115.95)"/><path class="cls-2" d="M1237.62,759.12h-.93c-.61,0-1.5,0-2.64.06a39.67,39.67,0,0,0-9.34,1.73,41.56,41.56,0,0,0-12.21,6.15c-4,3-7.8,7.38-11.46,12.17s-6.89,9.73-8.83,14.32a47.61,47.61,0,0,0-3.15,13.38c-.4,4-.46,7.35-.52,9.66s-.07,3.59-.07,3.59-.34-1.24-.83-3.51a73,73,0,0,1-1.48-9.77,41.26,41.26,0,0,1,1.44-15,55.29,55.29,0,0,1,8.81-16.18c3.95-5.14,8.32-9.65,13.4-12.75a37.51,37.51,0,0,1,14.29-4.91,33.48,33.48,0,0,1,10,.21c1.16.22,2,.42,2.62.59Z" transform="translate(-647 -115.95)"/><path class="cls-2" d="M1222.21,748.5s-.21,1.2-.67,2.82a21.88,21.88,0,0,1-2.26,5.53,22.46,22.46,0,0,1-3.86,4.58c-1.22,1.15-2.19,1.9-2.19,1.9a10.44,10.44,0,0,1-.51-3,11.22,11.22,0,0,1,6.64-11A10.64,10.64,0,0,1,1222.21,748.5Z" transform="translate(-647 -115.95)"/><path class="cls-2" d="M1215.48,841.71l.38.33c.29.25.77.66,1.57,1.27s1.94,1.39,3.49,2.48c.78.55,1.66,1.19,2.61,2s1.87,2.1,2.91,2.37c-.09-.3.46-.21,1.3-.76.47-.27,1.2-.81,2.09-1.42s1.84-1.34,2.9-2.18c4.28-3.3,9.5-8.75,15-15,4.08-4.6,8-8.82,11.37-12.81a74.36,74.36,0,0,0,8-11.18,30.57,30.57,0,0,0,3.4-8.63,17.89,17.89,0,0,0,.45-2.54c.08-.6.13-.91.13-.91l.12.91a18.23,18.23,0,0,1,.21,2.63,27.42,27.42,0,0,1-1.65,9.7,56.36,56.36,0,0,1-6.72,13,138.91,138.91,0,0,1-11,13.72,98.21,98.21,0,0,1-8.61,8.68,50.52,50.52,0,0,1-8.36,6,35.68,35.68,0,0,1-3.55,1.74,14.89,14.89,0,0,1-2.93,1,3.68,3.68,0,0,1-2.22-.15c-.43-.2-.52-.38-.34-.42a4.83,4.83,0,0,1-2-1.5c-.45-.53-.85-1-1.28-1.4-.84-.84-1.66-1.53-2.37-2.14-1.45-1.22-2.52-2.13-3.25-2.84a17.53,17.53,0,0,1-1.38-1.49Z" transform="translate(-647 -115.95)"/><path class="cls-2" d="M1112,942.12s-.4-.8-1.15-2.33c-.4-.75-1-1.63-1.61-2.69s-1.52-2.19-2.59-3.39a73.43,73.43,0,0,0-8.3-8.22c-3.44-3-7.54-6.3-11.73-10.46a54.5,54.5,0,0,1-6-7.18,63.32,63.32,0,0,1-4.83-8.91c-2.78-6.22-5.74-12.87-8.87-19.86s-6.28-14.38-9.61-22c-1.65-3.82-3.32-7.72-5-11.67s-3.35-8-5.23-11.82a68.5,68.5,0,0,0-6.43-10.81c-2.45-3.48-5.24-7.51-6.08-12.34A23.85,23.85,0,0,1,1036,796.9a28.53,28.53,0,0,1,7.32-10.47,26.08,26.08,0,0,1,10.57-5.94A35.49,35.49,0,0,1,1065,779.2a51.66,51.66,0,0,1,19,4.35,42.78,42.78,0,0,1,13.17,9,73.87,73.87,0,0,1,7.57,9.19c3.74,5.29,5.8,8.22,5.8,8.22s-2.35-2.71-6.51-7.66a76.85,76.85,0,0,0-8.11-8.41,41.74,41.74,0,0,0-13-7.68,50.16,50.16,0,0,0-17.92-3.08c-6.49.11-13.36,1.83-18.28,6.84-5,4.75-8.19,12.31-6.69,19.33.64,3.46,2.8,6.64,5.31,10.12,1.25,1.73,2.59,3.62,3.75,5.58s2.24,4,3.23,6c2,4.08,3.64,8.17,5.29,12.13s3.26,7.89,4.84,11.74c3.13,7.72,6.14,15.16,9,22.26s5.5,13.86,8,20.19a61.09,61.09,0,0,0,4.09,8.63,52.87,52.87,0,0,0,5.24,7c3.76,4.25,7.63,7.8,10.86,11.1a71,71,0,0,1,7.77,9c1,1.31,1.67,2.6,2.33,3.66s1,2.07,1.37,2.86Z" transform="translate(-647 -115.95)"/><path class="cls-2" d="M1057.56,947.29l-1.94-.69a17.12,17.12,0,0,1-2.33-1,27,27,0,0,1-3.06-1.56,47.91,47.91,0,0,1-15.76-15.23,82.6,82.6,0,0,1-7.28-13.41,148.88,148.88,0,0,1-5.84-16.41c-3.59-11.57-6.72-24.53-13.4-36.15a59.52,59.52,0,0,0-5.62-8.1c-2.08-2.53-4.35-5-6.52-7.6a48.63,48.63,0,0,1-5.83-8.41,22.86,22.86,0,0,1,3.74-27.14,27.57,27.57,0,0,1,13.41-8.23,33.66,33.66,0,0,1,12.71-.82,41.89,41.89,0,0,1,9.21,2.16,50,50,0,0,1,5.46,2.33l1.82,1-1.92-.74a52.75,52.75,0,0,0-5.61-1.69,43.15,43.15,0,0,0-9.09-1.2,32.49,32.49,0,0,0-11.72,1.76,24.86,24.86,0,0,0-11.25,8A20.62,20.62,0,0,0,992,828.54a20.13,20.13,0,0,0,2.58,7.74,46.24,46.24,0,0,0,5.43,7.32c2.11,2.41,4.43,4.84,6.7,7.52A61.53,61.53,0,0,1,1013,860a91.69,91.69,0,0,1,8.13,19.32c2,6.39,3.47,12.59,5,18.43s3,11.29,4.81,16.26a85.94,85.94,0,0,0,6.07,13.35,48.85,48.85,0,0,0,13.78,16,28.52,28.52,0,0,0,2.82,1.85,17.18,17.18,0,0,0,2.18,1.19Z" transform="translate(-647 -115.95)"/><path class="cls-2" d="M1116.09,941.12l-11-10.12-11-10.19s1.54.72,3.89,2.15a53.54,53.54,0,0,1,15.63,14.45C1115.25,939.64,1116.09,941.12,1116.09,941.12Z" transform="translate(-647 -115.95)"/><path class="cls-2" d="M1191.89,916.28l-6.49-5.14-6.44-5.22a15.22,15.22,0,0,1,2.46.62,17.19,17.19,0,0,1,9.34,7.48A14.43,14.43,0,0,1,1191.89,916.28Z" transform="translate(-647 -115.95)"/><path class="cls-2" d="M1112.38,823.07l.73,1c.47.69,1.21,1.67,2.22,2.88a45.11,45.11,0,0,0,9.88,8.84,44.17,44.17,0,0,0,18.08,7,19.17,19.17,0,0,0,10.92-1.39c3.4-1.63,6.3-4.86,6.56-8.81a14,14,0,0,0-4.21-10.53,22.56,22.56,0,0,0-9.71-5.42,60.41,60.41,0,0,0-10.29-1.91,40.23,40.23,0,0,0-9.1,0,42.34,42.34,0,0,0-7.31,1.84,15.14,15.14,0,0,0-5.05,2.53,8.2,8.2,0,0,0-2.23,2.8,8.88,8.88,0,0,0-.49,1.17,9.54,9.54,0,0,1,.41-1.21,8.22,8.22,0,0,1,2.08-3,15.51,15.51,0,0,1,5-2.93,40,40,0,0,1,7.39-2.26,39.38,39.38,0,0,1,9.39-.36,57.44,57.44,0,0,1,10.66,1.63,23.9,23.9,0,0,1,10.69,5.71,15.92,15.92,0,0,1,4.9,12.18,11.82,11.82,0,0,1-2.59,6.44,14.8,14.8,0,0,1-5.24,4.07,20.76,20.76,0,0,1-12.08,1.33,44.53,44.53,0,0,1-28-17.46c-.94-1.29-1.61-2.32-2-3Z" transform="translate(-647 -115.95)"/><path class="cls-2" d="M1049.21,825.05a9.33,9.33,0,0,0,.4,1,12.62,12.62,0,0,0,1.67,2.58c1.67,2.1,4.67,4.55,8.58,7.36a58.44,58.44,0,0,0,6.49,4.3,19.7,19.7,0,0,0,8.21,2.57,11.42,11.42,0,0,0,8.54-2.78,24.22,24.22,0,0,0,5.8-8.3,10.55,10.55,0,0,0,.86-4.81,6.67,6.67,0,0,0-1.72-4.13,7.91,7.91,0,0,0-4-2c-1.57-.36-3.18-.68-4.73-.94a58.16,58.16,0,0,0-16.63-.78,34.7,34.7,0,0,0-10.85,3c-1.19.6-2.12,1.08-2.72,1.46l-.93.56.88-.63a27.5,27.5,0,0,1,2.62-1.69,33.23,33.23,0,0,1,10.84-3.76,54.52,54.52,0,0,1,17.08,0c1.6.22,3.2.48,4.89.83a9.73,9.73,0,0,1,5,2.45c2.92,3,2.93,7.68,1.38,11.21a25.79,25.79,0,0,1-2.77,4.95,20.49,20.49,0,0,1-3.7,4.13,13.2,13.2,0,0,1-4.83,2.6,14.24,14.24,0,0,1-5.2.42,20.85,20.85,0,0,1-8.8-3.11,56,56,0,0,1-6.42-4.73c-3.74-3-6.65-5.75-8.18-8a11.94,11.94,0,0,1-1.48-2.75A7.32,7.32,0,0,1,1049.21,825.05Z" transform="translate(-647 -115.95)"/><path class="cls-2" d="M1009.88,852.56a8.17,8.17,0,0,0,.55,1.05,11.16,11.16,0,0,0,2.15,2.6,14.75,14.75,0,0,0,4.52,2.75,22.46,22.46,0,0,0,6.87,1.34,50.14,50.14,0,0,0,8.53-.32,13.81,13.81,0,0,0,4.36-1.31,15.08,15.08,0,0,0,3.83-2.94,24,24,0,0,0,5.61-8.84,14.42,14.42,0,0,0,.8-5.33c-.13-1.78-.48-3.88-1.69-4.2-1.3-.5-3.48,0-5.36.23s-3.8.68-5.66,1.06c-3.72.78-7.34,1.61-10.84,2.16-7,1.11-13.43.84-18.58,1.65-1.25.15-1.8,1-1.36,2a8.39,8.39,0,0,0,1.93,2.55,38.49,38.49,0,0,1,3.57,4.09,19.7,19.7,0,0,1,1.79,2.93c.34.71.49,1.09.49,1.09s-.18-.37-.57-1a20.75,20.75,0,0,0-2-2.77,41,41,0,0,0-3.8-3.81,8.9,8.9,0,0,1-2.25-2.7,2.37,2.37,0,0,1,0-2.2,2.9,2.9,0,0,1,1.94-1.23c5.32-1.11,11.69-1.1,18.48-2.38,3.42-.64,7-1.54,10.71-2.39,1.88-.42,3.8-.83,5.77-1.15,1-.16,2-.31,3-.43a7.31,7.31,0,0,1,3.5.3,4,4,0,0,1,1.65,1.22,5,5,0,0,1,.85,1.68,13.62,13.62,0,0,1,.53,3.22,16.57,16.57,0,0,1-1,6.11A25.05,25.05,0,0,1,1042,857a16.54,16.54,0,0,1-4.38,3.14,15.55,15.55,0,0,1-4.91,1.29,47.52,47.52,0,0,1-8.81-.08,22.46,22.46,0,0,1-7-1.79,15,15,0,0,1-4.49-3.13,11.3,11.3,0,0,1-2-2.81A8,8,0,0,1,1009.88,852.56Z" transform="translate(-647 -115.95)"/><path class="cls-2" d="M978.23,896l-2.37-2.13-1.27-1.14a2.51,2.51,0,0,1-.65-.87,1.61,1.61,0,0,1,.06-1.27,2.59,2.59,0,0,1,2.16-1.44,26.53,26.53,0,0,1,2.68,0,49.62,49.62,0,0,0,12.51-1.65l7.37-1.76c1.3-.29,2.6-.56,4-.81a7.42,7.42,0,0,1,2.41,0,3.89,3.89,0,0,1,2.38,1.45c2,3,1.32,6.43-.11,8.91a12.61,12.61,0,0,1-6.26,5.09,21.69,21.69,0,0,1-20.95-3,19.12,19.12,0,0,1-1.78-1.56l-.58-.58.65.51a17,17,0,0,0,1.91,1.35,22,22,0,0,0,7.91,3,20.86,20.86,0,0,0,12.11-1.41,11.13,11.13,0,0,0,5.19-4.45,7.76,7.76,0,0,0,1-3.34,5.07,5.07,0,0,0-.8-3.19c-.52-.73-1.48-.82-2.76-.63s-2.61.46-3.88.72l-7.43,1.52a45.82,45.82,0,0,1-13,.94c-.93-.07-1.8-.26-2.53-.23a1.88,1.88,0,0,0-1.63.86,1.2,1.2,0,0,0,.35,1.49c.41.46.8.88,1.14,1.25Z" transform="translate(-647 -115.95)"/><path class="cls-2" d="M1234.46,840.69s.29-.3.78-.92a23.11,23.11,0,0,0,1.88-2.9,48.75,48.75,0,0,0,4.44-11.83,76.7,76.7,0,0,0,2.46-18.51,25.09,25.09,0,0,0-2.46-10.37,18.13,18.13,0,0,0-3.19-4.55,12.18,12.18,0,0,0-4.55-3.14,3.91,3.91,0,0,0-4.44.85,6.11,6.11,0,0,0-1.29,4.7,21.23,21.23,0,0,0,1.51,5.21c.67,1.76,1.29,3.51,1.79,5.24a70.33,70.33,0,0,1,3,18.84c.16,5.44-.6,9.78-.51,12.77a17.66,17.66,0,0,0,.33,3.43,9.25,9.25,0,0,0,.29,1.18,9.42,9.42,0,0,1-.38-1.16,17.64,17.64,0,0,1-.58-3.43c-.29-3,.19-7.41-.24-12.74a74.93,74.93,0,0,0-3.62-18.34c-.54-1.67-1.18-3.35-1.88-5.07a22.42,22.42,0,0,1-1.74-5.69,8.13,8.13,0,0,1,1.76-6.37,5.5,5.5,0,0,1,3.19-1.81,6.88,6.88,0,0,1,3.56.34,13.93,13.93,0,0,1,5.39,3.7,19.91,19.91,0,0,1,3.51,5.13,26,26,0,0,1,2.43,11.26,72,72,0,0,1-3.25,18.82,46.33,46.33,0,0,1-5.2,11.72,21.23,21.23,0,0,1-2.1,2.78C1234.77,840.41,1234.46,840.69,1234.46,840.69Z" transform="translate(-647 -115.95)"/><path class="cls-2" d="M1208.86,884.05s-.23.52-.71,1.42a25.56,25.56,0,0,1-2.36,3.66,27.81,27.81,0,0,1-25.69,10.78,27.93,27.93,0,0,1-4.27-.88c-1-.3-1.51-.5-1.51-.5l1.57.16a36.32,36.32,0,0,0,4.26.13A36.9,36.9,0,0,0,1205,888.41a37.57,37.57,0,0,0,2.89-3.13Z" transform="translate(-647 -115.95)"/><path class="cls-2" d="M1203.2,894.18a9.6,9.6,0,0,1-1.07,2,11.93,11.93,0,0,1-9.39,5.3,10.14,10.14,0,0,1-2.29-.14l2-.92c1.22-.57,2.81-1.41,4.51-2.36s3.24-1.89,4.36-2.65Z" transform="translate(-647 -115.95)"/><path class="cls-2" d="M1208.49,894.4a8.38,8.38,0,0,1-.66,1.6,10.06,10.06,0,0,1-6.16,5.09,8,8,0,0,1-1.69.35s.43-.53,1.12-1.27a32.26,32.26,0,0,1,2.79-2.67,30.39,30.39,0,0,1,3.14-2.23C1207.89,894.72,1208.49,894.4,1208.49,894.4Z" transform="translate(-647 -115.95)"/><path class="cls-2" d="M1147.76,902s-.37.52-1.13,1.41a26.89,26.89,0,0,1-3.58,3.45,37,37,0,0,1-14.83,7,64.58,64.58,0,0,1-16.27,1.35c-4.16-.14-6.72-.4-6.72-.4l6.68-.69a127.77,127.77,0,0,0,15.82-2.38,49.68,49.68,0,0,0,14.69-5.76,35.1,35.1,0,0,0,4-2.8Z" transform="translate(-647 -115.95)"/><path class="cls-2" d="M1142.16,910.27a19.12,19.12,0,0,1-2.47,2.33,22.42,22.42,0,0,1-7.26,3.83,22.82,22.82,0,0,1-8.15.9,9.55,9.55,0,0,0-2.36.06,3.81,3.81,0,0,0-.85.24,3.06,3.06,0,0,1,.73-.56,8,8,0,0,1,2.39-.83,72.45,72.45,0,0,0,7.6-1.89,68.58,68.58,0,0,0,7.34-2.69C1141,910.85,1142.16,910.27,1142.16,910.27Z" transform="translate(-647 -115.95)"/><path class="cls-2" d="M1142.82,913.64a10,10,0,0,1-1.13,1.41,11.06,11.06,0,0,1-7.6,3.47,8.81,8.81,0,0,1-1.8-.06s.57-.41,1.48-1a32.2,32.2,0,0,1,3.56-1.94,32.54,32.54,0,0,1,3.78-1.42C1142.13,913.8,1142.82,913.64,1142.82,913.64Z" transform="translate(-647 -115.95)"/><path class="cls-2" d="M1079.6,919.11a148.67,148.67,0,0,1-16.62,6.81l-3.55,1a19.09,19.09,0,0,1-3.38.72,29.93,29.93,0,0,1-5.82,0c-3.27-.3-5.24-.7-5.24-.7l5.24-.39a47,47,0,0,0,5.53-.76,25,25,0,0,0,3.15-.92l3.37-1A149.29,149.29,0,0,1,1079.6,919.11Z" transform="translate(-647 -115.95)"/><path class="cls-2" d="M1070.87,926.31a12.86,12.86,0,0,1-1.71,1.42,15.36,15.36,0,0,1-10,2.88,12.93,12.93,0,0,1-2.19-.29s.79-.33,2-.79,2.92-1,4.8-1.58,3.61-.93,4.9-1.21S1070.87,926.31,1070.87,926.31Z" transform="translate(-647 -115.95)"/><path class="cls-2" d="M1075.58,929.16a10.7,10.7,0,0,1-1.45,1.08,12.4,12.4,0,0,1-3.93,1.62,12.19,12.19,0,0,1-4.25.13,9.62,9.62,0,0,1-1.77-.39,25.88,25.88,0,0,1,11.4-2.44Z" transform="translate(-647 -115.95)"/><path class="cls-2" d="M1020.39,927.46l-3.47,1.1a62,62,0,0,1-8.46,2.34,19.88,19.88,0,0,1-9-.31,12.68,12.68,0,0,1-2.53-1c-.56-.31-.85-.51-.85-.51l1,.19a20.39,20.39,0,0,0,2.6.28,39.38,39.38,0,0,0,8.41-.76,86.91,86.91,0,0,1,8.63-1.26A22.77,22.77,0,0,1,1020.39,927.46Z" transform="translate(-647 -115.95)"/><path class="cls-2" d="M1020.39,933.32a67.69,67.69,0,0,1-16.79,1.85,18.39,18.39,0,0,1,2.31-1.08,22.47,22.47,0,0,1,12-1.32A19,19,0,0,1,1020.39,933.32Z" transform="translate(-647 -115.95)"/><path class="cls-2" d="M1211.68,847.57s-7.83-5.65-17.25-12.78-16.94-13.19-16.94-13.19,2.17,1.06,5.56,3a124.35,124.35,0,0,1,12.7,8.43,122.89,122.89,0,0,1,11.53,10C1210.08,845.76,1211.68,847.57,1211.68,847.57Z" transform="translate(-647 -115.95)"/><path class="cls-2" d="M1196.16,842a14.7,14.7,0,0,1-7.84-7.79,14.52,14.52,0,0,1,7.84,7.79Z" transform="translate(-647 -115.95)"/><path class="cls-2" d="M1195.54,845a11,11,0,0,1-4.5-1.41,10.81,10.81,0,0,1-3.39-3.28,10.23,10.23,0,0,1,7.89,4.69Z" transform="translate(-647 -115.95)"/><path class="cls-2" d="M1238.21,857.1s-1.6-.46-4.08-1.44a59.56,59.56,0,0,1-17.7-10.85c-2-1.77-3.14-3-3.14-3s5.81,3.16,12.65,7.34S1238.21,857.1,1238.21,857.1Z" transform="translate(-647 -115.95)"/><path class="cls-2" d="M1249.4,874s-.07.62-.22,1.73a29.27,29.27,0,0,1-1,4.66,35.92,35.92,0,0,1-2.71,6.6,39.12,39.12,0,0,1-5,7.18,38.5,38.5,0,0,1-6.61,5.76,35.32,35.32,0,0,1-6.27,3.4,30.07,30.07,0,0,1-4.52,1.52l-1.7.4,1.58-.72a40,40,0,0,0,4.16-2.18,46.74,46.74,0,0,0,5.66-3.89,56.3,56.3,0,0,0,6.08-5.74,56.94,56.94,0,0,0,5.06-6.66,47.19,47.19,0,0,0,3.28-6,39.82,39.82,0,0,0,1.71-4.36Z" transform="translate(-647 -115.95)"/><path class="cls-2" d="M1231.83,893.56l1.83-2.41c1.11-1.47,2.54-3.51,4.07-5.77s2.87-4.37,3.82-6l1.54-2.59a17.79,17.79,0,0,1-.54,3,22,22,0,0,1-3,6.74,21.72,21.72,0,0,1-5.12,5.33A18.09,18.09,0,0,1,1231.83,893.56Z" transform="translate(-647 -115.95)"/><path class="cls-2" d="M1228.15,887.91l1.58-1.84c1-1.12,2.28-2.63,3.75-4.23s2.87-3,3.9-4.09l1.71-1.73a14.13,14.13,0,0,1-.8,2.33,17.39,17.39,0,0,1-7.89,8.57A14.42,14.42,0,0,1,1228.15,887.91Z" transform="translate(-647 -115.95)"/><path class="cls-2" d="M1225.11,881.52a21.55,21.55,0,0,1,3.68-4.73,21.14,21.14,0,0,1,4.9-3.44,14.73,14.73,0,0,1-3.4,5A14.58,14.58,0,0,1,1225.11,881.52Z" transform="translate(-647 -115.95)"/><path class="cls-2" d="M1222.09,876.68a9.09,9.09,0,0,1,6-6.23,9.09,9.09,0,0,1-6,6.23Z" transform="translate(-647 -115.95)"/><path class="cls-2" d="M1218.4,870.55a1.52,1.52,0,0,1,2.14-2.12s0,1.24-.45,1.68S1218.42,870.53,1218.4,870.55Z" transform="translate(-647 -115.95)"/><path class="cls-2" d="M1086.2,848.27a11.89,11.89,0,0,1-2.29,1.46,14.49,14.49,0,0,1-12.8.16,12,12,0,0,1-2.32-1.4s1,.17,2.62.35a50.35,50.35,0,0,0,6.09.28,48.89,48.89,0,0,0,6.09-.43C1085.17,848.47,1086.2,848.27,1086.2,848.27Z" transform="translate(-647 -115.95)"/><path class="cls-2" d="M1009.65,945.38a13.36,13.36,0,0,1-1.44-.37,16.15,16.15,0,0,1-3.72-1.74c-3-1.81-6.41-5.41-9.22-9.82A79.72,79.72,0,0,1,989,921.69c-1.35-3.13-2-5.15-2-5.15l3,4.64,7.17,11.08c2.76,4.32,5.5,8,8,10.13a19.36,19.36,0,0,0,3.21,2.3C1009.17,945.16,1009.65,945.38,1009.65,945.38Z" transform="translate(-647 -115.95)"/><path class="cls-2" d="M1020.54,946.3a5,5,0,0,1-1.45.93,6.54,6.54,0,0,1-7.69-1.81,5.13,5.13,0,0,1-.89-1.47s.62.27,1.53.59a33.79,33.79,0,0,0,3.4,1,32.94,32.94,0,0,0,3.48.65C1019.87,946.27,1020.54,946.3,1020.54,946.3Z" transform="translate(-647 -115.95)"/><path class="cls-2" d="M1032.92,946.74a10.45,10.45,0,0,1-8.54.71,7.92,7.92,0,0,1,8.54-.71Z" transform="translate(-647 -115.95)"/><path class="cls-2" d="M1094.15,954.08a14.64,14.64,0,0,1-2.5.79,17.43,17.43,0,0,1-12.32-1.67,14,14,0,0,1-2.2-1.42l2.55.39,6,.85,5.95.76Z" transform="translate(-647 -115.95)"/><path class="cls-2" d="M1104.18,953.69a5.09,5.09,0,0,1-.85,1,5.48,5.48,0,0,1-5.59,1.15,4.78,4.78,0,0,1-1.16-.56s.45-.24,1.13-.53a14.42,14.42,0,0,1,2.55-.83,14.24,14.24,0,0,1,2.67-.24C1103.66,953.65,1104.18,953.69,1104.18,953.69Z" transform="translate(-647 -115.95)"/><path class="cls-2" d="M1109.37,952.21a2.43,2.43,0,1,1-2.22-.6A3.11,3.11,0,0,1,1109.37,952.21Z" transform="translate(-647 -115.95)"/><path class="cls-2" d="M1180.41,935.8s-.35.62-1.07,1.68a32.45,32.45,0,0,1-3.47,4.25,32.84,32.84,0,0,1-6.4,5.12,16.57,16.57,0,0,1-4.59,2,11.62,11.62,0,0,1-5.5,0c-6.82-1.78-12.87-3-17.4-3.77s-7.33-1.05-7.33-1.05a66.34,66.34,0,0,1,7.44,0,86,86,0,0,1,17.73,2.72,10.21,10.21,0,0,0,4.59.1,16.56,16.56,0,0,0,4.16-1.58,40,40,0,0,0,6.57-4.32,41.94,41.94,0,0,0,3.94-3.66Z" transform="translate(-647 -115.95)"/><path class="cls-2" d="M1189.5,927.85A5.29,5.29,0,0,1,1189,929a6.41,6.41,0,0,1-1.82,2.17,6.28,6.28,0,0,1-2.61,1.07,5.51,5.51,0,0,1-1.25.09,9,9,0,0,1,6.14-4.49Z" transform="translate(-647 -115.95)"/><path class="cls-2" d="M1195.89,922.68a3.14,3.14,0,0,1-1.06,2.08,1.32,1.32,0,1,1,1.06-2.08Z" transform="translate(-647 -115.95)"/><path class="cls-2" d="M1205.91,914.4a7.13,7.13,0,0,1-2.49,3.17,7.21,7.21,0,0,1-3.86,1.17,8.94,8.94,0,0,1,2.63-3A9.07,9.07,0,0,1,1205.91,914.4Z" transform="translate(-647 -115.95)"/><path class="cls-2" d="M1082.22,898.28s-.67-2.37-1.76-6.18-2.75-9-4.75-14.66-4-10.74-5.5-14.4l-2.5-5.92s1.46,2,3.48,5.44a81.65,81.65,0,0,1,10.33,29.3C1082.11,895.81,1082.22,898.28,1082.22,898.28Z" transform="translate(-647 -115.95)"/><path class="cls-2" d="M1086.7,892.85a64.9,64.9,0,0,1-8.83-26.52s2.6,5.77,5,13S1086.7,892.85,1086.7,892.85Z" transform="translate(-647 -115.95)"/><path class="cls-2" d="M1091.08,884a33,33,0,0,1-6.41-15.53,33,33,0,0,1,6.41,15.53Z" transform="translate(-647 -115.95)"/><path class="cls-2" d="M1096.79,882.18a17.31,17.31,0,0,1-5.59-12.27,29.89,29.89,0,0,1,3.53,5.8A30.2,30.2,0,0,1,1096.79,882.18Z" transform="translate(-647 -115.95)"/><path class="cls-2" d="M1101.75,879.7a14,14,0,0,1-3-10.36,14.61,14.61,0,0,1,2.56,4.87A14.41,14.41,0,0,1,1101.75,879.7Z" transform="translate(-647 -115.95)"/><path class="cls-2" d="M1099,806s-1.93-1.59-5.15-4a76.62,76.62,0,0,0-13.25-7.85,49.34,49.34,0,0,0-14.69-4.17,41.7,41.7,0,0,0-4.71-.25l-1.74,0s.6-.16,1.71-.37a28.44,28.44,0,0,1,4.78-.5,36,36,0,0,1,15.55,3.26,47.64,47.64,0,0,1,13,9A50.16,50.16,0,0,1,1099,806Z" transform="translate(-647 -115.95)"/><path class="cls-2" d="M1089.38,804.61s-1-.84-2.75-2a43.36,43.36,0,0,0-6.92-3.78,74.68,74.68,0,0,0-7.51-2.68,15,15,0,0,1-3.13-1.44s1.29.22,3.36.37a23.6,23.6,0,0,1,8.16,1.75,19.43,19.43,0,0,1,6.76,5A14.76,14.76,0,0,1,1089.38,804.61Z" transform="translate(-647 -115.95)"/><path class="cls-2" d="M1084.25,806.2l-1.72-.7-3.89-1.48-3.89-1.47-1.75-.62a7.54,7.54,0,0,1,1.85-.46,9.27,9.27,0,0,1,8.32,3.15A7.87,7.87,0,0,1,1084.25,806.2Z" transform="translate(-647 -115.95)"/><path class="cls-2" d="M1153.19,805.91l-.86-.63c-.55-.39-1.37-.93-2.4-1.52a38.1,38.1,0,0,0-8.52-3.36c-3.46-.93-6.72-1.51-9.1-1.95l-3.89-.73s1.5-.24,4-.36a31.47,31.47,0,0,1,9.6.95,21.16,21.16,0,0,1,8.58,4.57,16.21,16.21,0,0,1,2,2.16C1153,805.59,1153.19,805.91,1153.19,805.91Z" transform="translate(-647 -115.95)"/><path class="cls-2" d="M1146.84,807.08l-7.26-2.55-7.29-2.48a12.19,12.19,0,0,1,2.35-.34,14.56,14.56,0,0,1,10.57,3.65A11.94,11.94,0,0,1,1146.84,807.08Z" transform="translate(-647 -115.95)"/><path class="cls-2" d="M1142.27,807.51a17.57,17.57,0,0,1-4.85-.42,17.34,17.34,0,0,1-4.48-1.9,7.54,7.54,0,0,1,1.48-.36,9.14,9.14,0,0,1,3.52.14,9.24,9.24,0,0,1,3.18,1.53A7.61,7.61,0,0,1,1142.27,807.51Z" transform="translate(-647 -115.95)"/><path class="cls-2" d="M1192.89,820.67l-.22-1.85c-.12-1.2-.26-2.94-.31-5.1a51.06,51.06,0,0,1,2.36-16.74,34.75,34.75,0,0,1,8.83-14.46,17,17,0,0,1,4.28-2.89,11.51,11.51,0,0,1,1.76-.66,13.25,13.25,0,0,0-1.59,1,18.52,18.52,0,0,0-3.67,3.35,44.27,44.27,0,0,0-7.54,14.39,78.4,78.4,0,0,0-3.34,16.1c-.23,2.12-.36,3.85-.44,5S1192.89,820.67,1192.89,820.67Z" transform="translate(-647 -115.95)"/><path class="cls-2" d="M1198.19,808.42a15.6,15.6,0,0,1-.54-2.9,18.55,18.55,0,0,1,3.94-13.46,15.2,15.2,0,0,1,2-2.16l-1.07,2.7c-.64,1.65-1.41,3.91-2.15,6.41s-1.3,4.83-1.65,6.56S1198.19,808.42,1198.19,808.42Z" transform="translate(-647 -115.95)"/><path class="cls-2" d="M1203.29,805.85a9.11,9.11,0,0,1-.48-1.76,10.64,10.64,0,0,1,1.89-8.24,9.08,9.08,0,0,1,1.2-1.37s-.05.71-.19,1.78-.34,2.49-.69,4a40.58,40.58,0,0,1-1.12,3.91C1203.55,805.19,1203.29,805.85,1203.29,805.85Z" transform="translate(-647 -115.95)"/><path class="cls-2" d="M1208.72,804.23a3.83,3.83,0,0,1-.75-1.07,4.82,4.82,0,0,1,1-5.73,4,4,0,0,1,1.08-.73l-.12,1.24c-.07.72-.14,1.63-.31,2.57s-.43,1.81-.62,2.52Z" transform="translate(-647 -115.95)"/><path class="cls-2" d="M1011.12,879.64s-1-.56-2.41-1.54l-5.49-3.82a36.62,36.62,0,0,0-5.62-3.34,18.05,18.05,0,0,0-1.89-.78l-.73-.27.78-.07a10.13,10.13,0,0,1,2.13.07,14.82,14.82,0,0,1,6.56,2.59,23.68,23.68,0,0,1,5,4.82C1010.54,878.7,1011.12,879.64,1011.12,879.64Z" transform="translate(-647 -115.95)"/><path class="cls-2" d="M1008,871.76s-.68-.34-1.69-.9-2.35-1.31-3.76-2.2-2.67-1.76-3.62-2.42-1.55-1.12-1.55-1.12a9.8,9.8,0,0,1,2,.11,11.17,11.17,0,0,1,7.72,4.83A9,9,0,0,1,1008,871.76Z" transform="translate(-647 -115.95)"/><path class="cls-2" d="M1007.48,862.88l-1.16-.45a19.92,19.92,0,0,1-2.36-1.07,21.6,21.6,0,0,1-2.17-1.42l-1-.74a4.07,4.07,0,0,1,1.25-.32,5.16,5.16,0,0,1,3,.57,5.09,5.09,0,0,1,2.07,2.2A4.41,4.41,0,0,1,1007.48,862.88Z" transform="translate(-647 -115.95)"/><path class="cls-2" d="M1218.16,708.25l2.15.62c1.38.43,3.36,1.06,5.76,2.06a39.48,39.48,0,0,1,8.11,4.47,31.31,31.31,0,0,1,7.89,8.49,83.64,83.64,0,0,1,5.22,9.73c1.43,3,2.61,5.83,3.55,8.2,1.89,4.74,2.82,7.82,2.82,7.82s-2.19-2.35-5.33-6.38c-1.57-2-3.38-4.44-5.28-7.2s-3.84-5.92-5.83-9a47.42,47.42,0,0,0-6.22-7.94,78.19,78.19,0,0,0-6.41-5.7l-4.71-3.75Z" transform="translate(-647 -115.95)"/><path class="cls-4" d="M930,832s-.63-43.82-46.31-26.19c-3.43-17.75-15.16-27.92-33.09-28.59s-38.26,25.26-38.26,25.26-4.78-12.25-16.39-13.05-18.2,15.83-18.2,15.83l17.68,29.22,27.29,28.39,47.55,4.68,18.56-3.46" transform="translate(-647 -115.95)"/><path class="cls-2" d="M824.63,961.31h1c9.85-.24,17.2-3,24.31-5.62,7.43-2.76,14.43-5.37,23.41-4.42,6,.64,10.79,1.52,14.62,2.22,7.72,1.41,12.83,2.35,19-.26,17.32-7.25,24.22-22.84,30.31-36.59,2.64-6,5.13-11.59,8.2-15.75,11.45-15.49,15.82-27.25,4.21-41.54-12.25-15.1-35.21-9-36.18-8.75l1,3.73c.21-.05,21.51-5.67,32.16,7.45,9.07,11.18,8,20.12-4.32,36.81-3.32,4.5-5.9,10.32-8.63,16.49C928,928.16,921.41,943,905.51,949.66c-5.15,2.16-9.31,1.4-16.86,0-3.9-.72-8.74-1.61-14.91-2.26-9.88-1.06-17.3,1.71-25.17,4.64-6.81,2.53-13.85,5.15-23.05,5.37-8.25.2-13-2.39-18-5.13-6.53-3.58-13.27-7.28-27.36-3.89-2.15.52-4.16,1-6,1.5-19.05,4.75-24.79,6.19-38.78-9-3.43-3.72-6.44-7.18-9.1-10.24-10.09-11.58-16.76-19.23-29.42-22.77-14.72-4.12-25.11-17.33-29.27-37.2-4.12-19.64,4.31-36.93,4.4-37.1l.54-1.09-.75-1c-.09-.12-9-11.5-17.48-21.83-8.82-10.72,2-37.95,6.87-46.65a80.62,80.62,0,0,0,4.06-9.43c4.38-11.26,10.38-26.68,21.84-32.3l-1.7-3.47c-12.82,6.28-19.13,22.51-23.74,34.37a79.54,79.54,0,0,1-3.82,8.92c-4.17,7.38-17.49,37.65-6.5,51,7.06,8.58,14.4,17.9,16.69,20.82-1.89,4.32-8,20.26-4.2,38.49,4.47,21.36,15.84,35.61,32,40.13,11.56,3.23,17.58,10.14,27.55,21.59,2.68,3.07,5.71,6.55,9.17,10.32C748,960.4,755.93,958.43,775,953.66c1.88-.47,3.88-1,6-1.48,12.62-3,18.17,0,24.59,3.51C810.69,958.46,815.9,961.31,824.63,961.31Z" transform="translate(-647 -115.95)"/><path class="cls-2" d="M720.19,910.05l2.87-.64c1.88-.44,4.66-1.08,8.21-2a92.21,92.21,0,0,0,12.7-4.42,46.29,46.29,0,0,0,14.88-10.19,80.76,80.76,0,0,0,6.5-8.18,56.85,56.85,0,0,1,7.3-8c2.77-2.6,5.78-5.45,8.53-8.6s5.43-6.49,8.09-9.93c5.28-6.91,10.76-14.08,16.46-21.69a62.17,62.17,0,0,0,7.66-12.91c2-4.83,3.07-10.62,1.62-16.23a26.36,26.36,0,0,0-8.77-13.77,34.65,34.65,0,0,0-13.79-7.11,36,36,0,0,0-14.86-.55,52.24,52.24,0,0,0-13.31,4.09A62.69,62.69,0,0,0,753,796.5a61.39,61.39,0,0,0-4.87,4l-4.32,4c-5.64,5.25-10.87,10.15-15.72,14.53-9.67,8.79-17.85,15.51-23.64,20s-9.08,6.87-9.08,6.87,3.48-2.08,9.61-6.13,14.8-10.23,25-18.51c5.11-4.14,10.6-8.78,16.46-13.78l4.46-3.79a56.9,56.9,0,0,1,4.67-3.51,59.56,59.56,0,0,1,10.7-5.77c7.6-3.15,16.52-5,24.8-2.66a29.43,29.43,0,0,1,11.48,6.08,21,21,0,0,1,6.87,10.78c1.09,4.15.36,8.61-1.3,12.73a59.4,59.4,0,0,1-6.85,11.82l-15.88,22c-2.52,3.5-5,6.86-7.55,10s-5.21,5.88-7.94,8.67a59.87,59.87,0,0,0-7.3,8.81,82,82,0,0,1-5.85,8.24,45.35,45.35,0,0,1-13.54,10.48A97.12,97.12,0,0,1,731,906.5c-3.44,1.22-6.16,2.07-8,2.66Z" transform="translate(-647 -115.95)"/><path class="cls-2" d="M682.38,756.87h.93c.61,0,1.5,0,2.64.06a39.06,39.06,0,0,1,9.34,1.72,41.85,41.85,0,0,1,12.21,6.16c4,3,7.8,7.38,11.46,12.17s6.89,9.73,8.83,14.31a47.75,47.75,0,0,1,3.15,13.39c.4,4,.46,7.35.52,9.65s.07,3.6.07,3.6.34-1.24.83-3.51a72.91,72.91,0,0,0,1.48-9.78,41.22,41.22,0,0,0-1.44-15,55.33,55.33,0,0,0-8.81-16.19c-4-5.14-8.32-9.64-13.4-12.75a37.65,37.65,0,0,0-14.29-4.9,33.55,33.55,0,0,0-10,.2c-1.16.23-2,.42-2.62.6Z" transform="translate(-647 -115.95)"/><path class="cls-2" d="M697.79,746.25s.21,1.21.67,2.83a19.15,19.15,0,0,0,6.12,10.1c1.22,1.16,2.19,1.9,2.19,1.9a10.42,10.42,0,0,0,.51-2.94,11.24,11.24,0,0,0-6.64-11A10.64,10.64,0,0,0,697.79,746.25Z" transform="translate(-647 -115.95)"/><path class="cls-2" d="M704.52,839.47l-.38.33c-.29.25-.77.66-1.57,1.27s-1.94,1.39-3.49,2.48c-.78.55-1.66,1.19-2.61,2s-1.87,2.1-2.91,2.37c.09-.29-.46-.2-1.3-.75-.47-.27-1.2-.81-2.09-1.43s-1.84-1.34-2.9-2.17c-4.28-3.3-9.5-8.75-15-15-4.08-4.6-8-8.81-11.37-12.81a73.86,73.86,0,0,1-8-11.18,30.53,30.53,0,0,1-3.4-8.62,17.89,17.89,0,0,1-.45-2.54c-.08-.6-.13-.91-.13-.91l-.12.9a18.53,18.53,0,0,0-.21,2.64,27.45,27.45,0,0,0,1.65,9.7,56.36,56.36,0,0,0,6.72,13,138.91,138.91,0,0,0,11,13.72,96.71,96.71,0,0,0,8.61,8.67,51.23,51.23,0,0,0,8.36,6,35.68,35.68,0,0,0,3.55,1.74,15.58,15.58,0,0,0,2.93,1,3.85,3.85,0,0,0,2.22-.15c.43-.2.52-.38.34-.43a4.66,4.66,0,0,0,2-1.5c.45-.53.85-1,1.28-1.39.84-.84,1.66-1.53,2.37-2.14,1.45-1.22,2.52-2.13,3.25-2.85a16.08,16.08,0,0,0,1.38-1.49Z" transform="translate(-647 -115.95)"/><path class="cls-2" d="M808,939.88l1.15-2.33c.4-.75,1-1.63,1.61-2.69s1.52-2.19,2.59-3.4a73.44,73.44,0,0,1,8.3-8.21c3.44-3,7.54-6.3,11.73-10.47a54.5,54.5,0,0,0,6-7.18,63.2,63.2,0,0,0,4.83-8.9c2.78-6.23,5.74-12.87,8.87-19.87l9.61-22q2.47-5.75,5-11.67c1.7-4,3.35-8,5.23-11.82a68.59,68.59,0,0,1,6.43-10.82c2.45-3.47,5.24-7.5,6.08-12.33A23.89,23.89,0,0,0,884,794.65a28.49,28.49,0,0,0-7.32-10.46,26.22,26.22,0,0,0-10.57-6A35.79,35.79,0,0,0,855,777a51.86,51.86,0,0,0-19,4.36,42.78,42.78,0,0,0-13.17,9,73.86,73.86,0,0,0-7.57,9.18l-5.8,8.23s2.35-2.71,6.51-7.67a77.76,77.76,0,0,1,8.11-8.4,41.74,41.74,0,0,1,13-7.68,49.94,49.94,0,0,1,17.92-3.08c6.49.11,13.36,1.83,18.28,6.83,5,4.76,8.19,12.32,6.69,19.33-.64,3.47-2.8,6.65-5.31,10.12-1.25,1.73-2.59,3.63-3.75,5.59s-2.24,4-3.23,6c-2,4.09-3.64,8.17-5.29,12.13s-3.26,7.9-4.84,11.75c-3.13,7.72-6.14,15.16-9,22.26s-5.5,13.86-8,20.18a61.09,61.09,0,0,1-4.09,8.63,53.64,53.64,0,0,1-5.24,7.06c-3.76,4.25-7.63,7.8-10.86,11.1a71,71,0,0,0-7.77,9c-1,1.31-1.67,2.6-2.33,3.67s-1,2.07-1.37,2.86Z" transform="translate(-647 -115.95)"/><path class="cls-2" d="M862.44,945.05l1.94-.69a17.66,17.66,0,0,0,2.33-1,27,27,0,0,0,3.06-1.56,47.91,47.91,0,0,0,15.76-15.23,82.6,82.6,0,0,0,7.28-13.41,149.62,149.62,0,0,0,5.84-16.41c3.59-11.57,6.72-24.54,13.4-36.16a60,60,0,0,1,5.62-8.09c2.08-2.53,4.35-5,6.52-7.6a48.63,48.63,0,0,0,5.83-8.41,22.86,22.86,0,0,0-3.74-27.14,27.57,27.57,0,0,0-13.41-8.23,33.89,33.89,0,0,0-12.71-.83,41.84,41.84,0,0,0-9.21,2.17,48.11,48.11,0,0,0-5.46,2.33l-1.82,1,1.92-.74a52.75,52.75,0,0,1,5.61-1.69,43.75,43.75,0,0,1,9.09-1.21A32.73,32.73,0,0,1,912,803.94a24.84,24.84,0,0,1,11.25,8A20.63,20.63,0,0,1,928,826.3a20.09,20.09,0,0,1-2.58,7.73,45.79,45.79,0,0,1-5.43,7.32c-2.11,2.42-4.43,4.84-6.7,7.53a61.43,61.43,0,0,0-6.22,8.84A92.13,92.13,0,0,0,898.91,877c-2,6.4-3.47,12.6-5,18.44s-3,11.29-4.81,16.25a85.51,85.51,0,0,1-6.07,13.35,48.8,48.8,0,0,1-13.78,16,30.44,30.44,0,0,1-2.82,1.85,17.18,17.18,0,0,1-2.18,1.19Z" transform="translate(-647 -115.95)"/><path class="cls-2" d="M803.91,938.87l11-10.12,11-10.18s-1.54.72-3.89,2.15a53.54,53.54,0,0,0-15.63,14.45C804.75,937.4,803.91,938.87,803.91,938.87Z" transform="translate(-647 -115.95)"/><path class="cls-2" d="M728.11,914l6.49-5.15,6.44-5.21a14,14,0,0,0-2.46.62,17.19,17.19,0,0,0-9.34,7.48A14.43,14.43,0,0,0,728.11,914Z" transform="translate(-647 -115.95)"/><path class="cls-2" d="M807.62,820.82l-.73,1c-.46.69-1.21,1.67-2.22,2.89a45.63,45.63,0,0,1-9.88,8.84,44.31,44.31,0,0,1-18.08,7,19.17,19.17,0,0,1-10.92-1.39c-3.4-1.63-6.3-4.86-6.56-8.81a14.07,14.07,0,0,1,4.21-10.54,22.54,22.54,0,0,1,9.71-5.41,59.45,59.45,0,0,1,10.29-1.91,39.65,39.65,0,0,1,9.1,0,40.59,40.59,0,0,1,7.31,1.84,15,15,0,0,1,5,2.53,8.2,8.2,0,0,1,2.23,2.8,9.22,9.22,0,0,1,.49,1.16,9.83,9.83,0,0,0-.41-1.2,8.24,8.24,0,0,0-2.08-3,15.39,15.39,0,0,0-5-2.92,40,40,0,0,0-7.39-2.26,39.38,39.38,0,0,0-9.39-.36,57.39,57.39,0,0,0-10.66,1.62A23.92,23.92,0,0,0,762,818.4a15.89,15.89,0,0,0-4.9,12.18,11.76,11.76,0,0,0,2.59,6.43,14.68,14.68,0,0,0,5.24,4.07A20.69,20.69,0,0,0,777,842.42a44.64,44.64,0,0,0,28-17.46c.94-1.29,1.61-2.32,2-3Z" transform="translate(-647 -115.95)"/><path class="cls-2" d="M870.79,822.8a9.33,9.33,0,0,1-.4,1,12.36,12.36,0,0,1-1.67,2.58c-1.67,2.11-4.67,4.56-8.58,7.37a58.44,58.44,0,0,1-6.49,4.3,19.84,19.84,0,0,1-8.21,2.57,11.46,11.46,0,0,1-8.54-2.78,24.17,24.17,0,0,1-5.8-8.31,10.53,10.53,0,0,1-.86-4.81,6.72,6.72,0,0,1,1.72-4.13,7.9,7.9,0,0,1,4-2c1.57-.36,3.18-.68,4.73-.94a57.8,57.8,0,0,1,16.63-.78,35,35,0,0,1,10.85,3c1.19.61,2.12,1.09,2.72,1.47l.93.56-.88-.64c-.57-.43-1.45-1-2.62-1.69a33.46,33.46,0,0,0-10.84-3.76,55.13,55.13,0,0,0-17.08,0c-1.6.23-3.2.49-4.89.84a9.73,9.73,0,0,0-5,2.45c-2.92,3-2.93,7.67-1.38,11.21a26.1,26.1,0,0,0,2.77,4.95,20.49,20.49,0,0,0,3.7,4.13,13.18,13.18,0,0,0,4.83,2.59,14.47,14.47,0,0,0,5.2.43,20.85,20.85,0,0,0,8.8-3.12,54.87,54.87,0,0,0,6.42-4.72c3.74-3,6.65-5.76,8.18-8a11.94,11.94,0,0,0,1.48-2.75A7.15,7.15,0,0,0,870.79,822.8Z" transform="translate(-647 -115.95)"/><path class="cls-2" d="M910.12,850.31a7.79,7.79,0,0,1-.55,1.06,11.59,11.59,0,0,1-2.15,2.6,14.75,14.75,0,0,1-4.52,2.74,22.1,22.1,0,0,1-6.87,1.35,50.14,50.14,0,0,1-8.53-.32,14.07,14.07,0,0,1-4.36-1.31,15.31,15.31,0,0,1-3.83-2.94,24,24,0,0,1-5.61-8.84,14.47,14.47,0,0,1-.8-5.34c.13-1.77.48-3.87,1.69-4.2,1.3-.5,3.48,0,5.36.24s3.8.67,5.66,1.06c3.72.78,7.34,1.61,10.84,2.16,7,1.11,13.43.83,18.58,1.64,1.25.16,1.8,1,1.36,2a8.23,8.23,0,0,1-1.93,2.54,39.49,39.49,0,0,0-3.57,4.1,19.7,19.7,0,0,0-1.79,2.93c-.34.71-.49,1.09-.49,1.09s.18-.37.57-1a20.75,20.75,0,0,1,2-2.77,42.17,42.17,0,0,1,3.8-3.82,8.73,8.73,0,0,0,2.25-2.69,2.37,2.37,0,0,0,0-2.2,2.9,2.9,0,0,0-1.94-1.23c-5.32-1.11-11.69-1.11-18.48-2.39-3.42-.64-7-1.54-10.71-2.38-1.88-.42-3.8-.83-5.77-1.16-1-.16-2-.3-3-.42a7.43,7.43,0,0,0-3.5.29,4,4,0,0,0-1.65,1.23,5,5,0,0,0-.85,1.68,13.54,13.54,0,0,0-.53,3.21,16.5,16.5,0,0,0,1,6.11,25.09,25.09,0,0,0,6.29,9.47,16.54,16.54,0,0,0,4.38,3.14,15.55,15.55,0,0,0,4.91,1.29,48.41,48.41,0,0,0,8.81-.08,22.74,22.74,0,0,0,7-1.79,15,15,0,0,0,4.49-3.14,11.28,11.28,0,0,0,2-2.8A7.76,7.76,0,0,0,910.12,850.31Z" transform="translate(-647 -115.95)"/><path class="cls-2" d="M941.77,893.78s.85-.75,2.37-2.12l1.27-1.15a2.49,2.49,0,0,0,.65-.86,1.61,1.61,0,0,0-.06-1.27,2.59,2.59,0,0,0-2.16-1.44,23.89,23.89,0,0,0-2.68,0,50.08,50.08,0,0,1-12.51-1.65l-7.37-1.76c-1.3-.29-2.6-.57-4-.81a7.15,7.15,0,0,0-2.41,0,3.84,3.84,0,0,0-2.38,1.45c-2,3-1.32,6.43.11,8.91a12.66,12.66,0,0,0,6.26,5.09,21.22,21.22,0,0,0,13.07.79,21.5,21.5,0,0,0,7.88-3.8,19.12,19.12,0,0,0,1.78-1.56l.58-.58-.65.51a17,17,0,0,1-1.91,1.35,22.13,22.13,0,0,1-7.91,3,20.94,20.94,0,0,1-12.11-1.41A11.19,11.19,0,0,1,914.4,892a7.76,7.76,0,0,1-1-3.35,5.05,5.05,0,0,1,.8-3.18c.52-.73,1.48-.82,2.76-.63s2.61.46,3.88.71l7.43,1.52a45.85,45.85,0,0,0,13,.95c.93-.07,1.8-.26,2.53-.23a1.83,1.83,0,0,1,1.63.86,1.18,1.18,0,0,1-.35,1.48l-1.14,1.26Z" transform="translate(-647 -115.95)"/><path class="cls-2" d="M685.54,838.44a10.87,10.87,0,0,1-.78-.92,22.13,22.13,0,0,1-1.88-2.89,48.69,48.69,0,0,1-4.44-11.84,76.55,76.55,0,0,1-2.46-18.5,25.05,25.05,0,0,1,2.46-10.37,18.37,18.37,0,0,1,3.19-4.56,12.27,12.27,0,0,1,4.55-3.13,3.91,3.91,0,0,1,4.44.85,6.1,6.1,0,0,1,1.29,4.7A21.35,21.35,0,0,1,690.4,797c-.67,1.75-1.29,3.51-1.79,5.24a70.27,70.27,0,0,0-3,18.84c-.16,5.44.6,9.78.51,12.77a17.75,17.75,0,0,1-.33,3.43,8.72,8.72,0,0,1-.29,1.17,8.78,8.78,0,0,0,.38-1.15,16.89,16.89,0,0,0,.58-3.44c.29-3-.19-7.4.24-12.74a74.86,74.86,0,0,1,3.62-18.33c.54-1.68,1.18-3.35,1.88-5.07A22.37,22.37,0,0,0,694,792a8.12,8.12,0,0,0-1.76-6.36,5.57,5.57,0,0,0-3.19-1.82,7.09,7.09,0,0,0-3.56.34,14.14,14.14,0,0,0-5.39,3.7,20,20,0,0,0-3.51,5.14,26,26,0,0,0-2.43,11.26,72,72,0,0,0,3.25,18.82,46.5,46.5,0,0,0,5.2,11.72,20.33,20.33,0,0,0,2.1,2.77A12,12,0,0,0,685.54,838.44Z" transform="translate(-647 -115.95)"/><path class="cls-2" d="M711.14,881.81s.23.51.71,1.42a25.56,25.56,0,0,0,2.36,3.66,27.81,27.81,0,0,0,25.69,10.78,26.57,26.57,0,0,0,4.27-.89c1-.29,1.51-.49,1.51-.49l-1.57.16a38.68,38.68,0,0,1-4.26.13A37.14,37.14,0,0,1,712.13,883Z" transform="translate(-647 -115.95)"/><path class="cls-2" d="M716.8,891.94a9.6,9.6,0,0,0,1.07,2,11.89,11.89,0,0,0,9.39,5.29,9.86,9.86,0,0,0,2.29-.13l-2-.92c-1.22-.57-2.81-1.41-4.51-2.36s-3.24-1.9-4.36-2.65Z" transform="translate(-647 -115.95)"/><path class="cls-2" d="M711.51,892.16a8.69,8.69,0,0,0,.66,1.6,10.06,10.06,0,0,0,6.16,5.09,8.87,8.87,0,0,0,1.69.35s-.43-.53-1.12-1.28a32.32,32.32,0,0,0-2.79-2.66A30.66,30.66,0,0,0,713,893C712.11,892.48,711.51,892.16,711.51,892.16Z" transform="translate(-647 -115.95)"/><path class="cls-2" d="M772.24,899.73s.37.52,1.13,1.41a27.54,27.54,0,0,0,3.58,3.45,37,37,0,0,0,14.83,7,64.19,64.19,0,0,0,16.27,1.36c4.16-.14,6.72-.4,6.72-.4l-6.68-.69a127.77,127.77,0,0,1-15.82-2.38,49.68,49.68,0,0,1-14.69-5.76,35.1,35.1,0,0,1-4-2.8Z" transform="translate(-647 -115.95)"/><path class="cls-2" d="M777.84,908a18.73,18.73,0,0,0,2.47,2.32,21.85,21.85,0,0,0,15.41,4.73,10,10,0,0,1,2.36.07,3.81,3.81,0,0,1,.85.24,3.06,3.06,0,0,0-.73-.56,8,8,0,0,0-2.39-.83,72.45,72.45,0,0,1-7.6-1.89,70.83,70.83,0,0,1-7.34-2.69C779,908.6,777.84,908,777.84,908Z" transform="translate(-647 -115.95)"/><path class="cls-2" d="M777.18,911.4a9.61,9.61,0,0,0,1.13,1.4,11.35,11.35,0,0,0,3.46,2.49,11.5,11.5,0,0,0,4.14,1,8.81,8.81,0,0,0,1.8-.06s-.57-.42-1.48-1a30,30,0,0,0-7.34-3.36C777.87,911.56,777.18,911.4,777.18,911.4Z" transform="translate(-647 -115.95)"/><path class="cls-2" d="M840.4,916.87a147.59,147.59,0,0,0,16.62,6.8l3.55,1a19.09,19.09,0,0,0,3.38.72,30.66,30.66,0,0,0,5.82,0,50.19,50.19,0,0,0,5.24-.7l-5.24-.38a47.23,47.23,0,0,1-5.53-.77,22.07,22.07,0,0,1-3.15-.92l-3.37-1A150.35,150.35,0,0,0,840.4,916.87Z" transform="translate(-647 -115.95)"/><path class="cls-2" d="M849.13,924.07a13.88,13.88,0,0,0,1.71,1.42,15.36,15.36,0,0,0,10,2.88,12.21,12.21,0,0,0,2.19-.3s-.79-.33-2-.78-2.93-1-4.8-1.58-3.61-.93-4.9-1.22S849.13,924.07,849.13,924.07Z" transform="translate(-647 -115.95)"/><path class="cls-2" d="M844.42,926.91a9.76,9.76,0,0,0,1.45,1.08,12.17,12.17,0,0,0,3.93,1.63,12.44,12.44,0,0,0,4.25.13,10.77,10.77,0,0,0,1.77-.39,28.26,28.26,0,0,0-5.56-1.87A29,29,0,0,0,844.42,926.91Z" transform="translate(-647 -115.95)"/><path class="cls-2" d="M899.61,925.22l3.47,1.1a62,62,0,0,0,8.46,2.34,20.17,20.17,0,0,0,9-.31,13.31,13.31,0,0,0,2.53-1c.56-.31.85-.51.85-.51l-1,.19a20.7,20.7,0,0,1-2.6.27,39.94,39.94,0,0,1-8.41-.75c-3.28-.58-6.36-1.12-8.63-1.27A23.35,23.35,0,0,0,899.61,925.22Z" transform="translate(-647 -115.95)"/><path class="cls-2" d="M899.61,931.08a72.25,72.25,0,0,0,8.33,1.45,75.66,75.66,0,0,0,8.46.4,18.39,18.39,0,0,0-2.31-1.08,22.22,22.22,0,0,0-12-1.32A19,19,0,0,0,899.61,931.08Z" transform="translate(-647 -115.95)"/><path class="cls-2" d="M708.32,845.33s7.83-5.66,17.25-12.79,16.94-13.18,16.94-13.18-2.17,1.06-5.56,3a126.38,126.38,0,0,0-12.7,8.44,122.89,122.89,0,0,0-11.53,10C709.92,843.52,708.32,845.33,708.32,845.33Z" transform="translate(-647 -115.95)"/><path class="cls-2" d="M723.84,839.8a14.67,14.67,0,0,0,7.84-7.8,14.58,14.58,0,0,0-7.84,7.8Z" transform="translate(-647 -115.95)"/><path class="cls-2" d="M724.46,842.78a10.18,10.18,0,0,0,7.89-4.68,10.25,10.25,0,0,0-7.89,4.68Z" transform="translate(-647 -115.95)"/><path class="cls-2" d="M681.79,854.85s1.6-.45,4.09-1.44a59.13,59.13,0,0,0,17.69-10.85c2-1.76,3.14-3,3.14-3s-5.81,3.16-12.65,7.33S681.79,854.85,681.79,854.85Z" transform="translate(-647 -115.95)"/><path class="cls-2" d="M670.6,871.71s.07.62.22,1.73a29.27,29.27,0,0,0,1,4.66,35.92,35.92,0,0,0,2.71,6.6,39,39,0,0,0,5,7.18,38.5,38.5,0,0,0,6.61,5.76,35.32,35.32,0,0,0,6.27,3.4,28.73,28.73,0,0,0,4.52,1.51l1.7.41-1.58-.73a39.59,39.59,0,0,1-4.16-2.17,46.92,46.92,0,0,1-5.66-3.9,55.32,55.32,0,0,1-6.08-5.74,56,56,0,0,1-5.06-6.65,47.87,47.87,0,0,1-3.28-6,39.82,39.82,0,0,1-1.71-4.36Z" transform="translate(-647 -115.95)"/><path class="cls-2" d="M688.17,891.31l-1.83-2.4c-1.11-1.47-2.54-3.51-4.07-5.77s-2.87-4.37-3.82-5.95l-1.54-2.6a17.8,17.8,0,0,0,.54,3,21.5,21.5,0,0,0,8.13,12.07A17.34,17.34,0,0,0,688.17,891.31Z" transform="translate(-647 -115.95)"/><path class="cls-2" d="M691.85,885.67l-1.58-1.85c-1-1.11-2.28-2.62-3.75-4.22s-2.87-3-3.9-4.09l-1.71-1.73a14.13,14.13,0,0,0,.8,2.33,18.1,18.1,0,0,0,3.21,5,17.82,17.82,0,0,0,4.68,3.61A14.42,14.42,0,0,0,691.85,885.67Z" transform="translate(-647 -115.95)"/><path class="cls-2" d="M694.89,879.28a20.21,20.21,0,0,0-8.58-8.17,14.31,14.31,0,0,0,8.58,8.17Z" transform="translate(-647 -115.95)"/><path class="cls-2" d="M697.91,874.43a9.1,9.1,0,0,0-6-6.22,10.06,10.06,0,0,0,2.2,3.87A10,10,0,0,0,697.91,874.43Z" transform="translate(-647 -115.95)"/><path class="cls-2" d="M701.6,868.31a1.84,1.84,0,0,0-.15-2,1.82,1.82,0,0,0-2-.13s0,1.24.45,1.68S701.58,868.28,701.6,868.31Z" transform="translate(-647 -115.95)"/><path class="cls-2" d="M833.8,846a11.89,11.89,0,0,0,2.29,1.46,14.53,14.53,0,0,0,12.8.15,12,12,0,0,0,2.32-1.4s-1,.18-2.62.36a52.5,52.5,0,0,1-6.09.28,50.89,50.89,0,0,1-6.09-.43C834.83,846.23,833.8,846,833.8,846Z" transform="translate(-647 -115.95)"/><path class="cls-2" d="M910.35,943.14a12.39,12.39,0,0,0,1.44-.38,16,16,0,0,0,3.72-1.73c3-1.81,6.41-5.42,9.22-9.82A78.6,78.6,0,0,0,931,919.45c1.36-3.14,2-5.15,2-5.15l-3,4.64L922.91,930c-2.76,4.32-5.5,8-8,10.13a20,20,0,0,1-3.21,2.3C910.83,942.91,910.35,943.14,910.35,943.14Z" transform="translate(-647 -115.95)"/><path class="cls-2" d="M899.46,944.06a4.88,4.88,0,0,0,1.45.92,6.55,6.55,0,0,0,7.69-1.8,5.29,5.29,0,0,0,.89-1.47s-.62.27-1.53.59a33.79,33.79,0,0,1-3.4,1,32.94,32.94,0,0,1-3.48.65C900.13,944,899.46,944.06,899.46,944.06Z" transform="translate(-647 -115.95)"/><path class="cls-2" d="M887.08,944.49a10.4,10.4,0,0,0,8.54.72,7.95,7.95,0,0,0-8.54-.72Z" transform="translate(-647 -115.95)"/><path class="cls-2" d="M825.85,951.84a14.64,14.64,0,0,0,2.5.79,18,18,0,0,0,6.32.3,17.64,17.64,0,0,0,6-2,14.4,14.4,0,0,0,2.2-1.43l-2.55.4-6,.85-6,.76Z" transform="translate(-647 -115.95)"/><path class="cls-2" d="M815.82,951.44a4.94,4.94,0,0,0,.85,1,5.77,5.77,0,0,0,2.63,1.36,5.71,5.71,0,0,0,3-.21,4.55,4.55,0,0,0,1.16-.57s-.45-.24-1.13-.52a13.64,13.64,0,0,0-2.55-.83,14.24,14.24,0,0,0-2.67-.24C816.34,951.4,815.82,951.44,815.82,951.44Z" transform="translate(-647 -115.95)"/><path class="cls-2" d="M810.63,950a2.44,2.44,0,1,0,2.22-.59A3.11,3.11,0,0,0,810.63,950Z" transform="translate(-647 -115.95)"/><path class="cls-2" d="M739.59,933.56s.35.61,1.07,1.68a32.76,32.76,0,0,0,9.87,9.37,16.87,16.87,0,0,0,4.59,2,11.5,11.5,0,0,0,5.5,0c6.82-1.77,12.87-3,17.4-3.76s7.33-1.05,7.33-1.05a66.34,66.34,0,0,0-7.44,0,85.31,85.31,0,0,0-17.73,2.72,10.21,10.21,0,0,1-4.59.1,16.56,16.56,0,0,1-4.16-1.58,39.37,39.37,0,0,1-6.57-4.33,42.08,42.08,0,0,1-3.94-3.65Z" transform="translate(-647 -115.95)"/><path class="cls-2" d="M730.5,925.61a5.29,5.29,0,0,0,.46,1.16,6.3,6.3,0,0,0,1.82,2.16,6.18,6.18,0,0,0,2.61,1.08,5.51,5.51,0,0,0,1.25.09,9,9,0,0,0-6.14-4.49Z" transform="translate(-647 -115.95)"/><path class="cls-2" d="M724.11,920.43a3.16,3.16,0,0,0,1.06,2.09,1.32,1.32,0,1,0-1.06-2.09Z" transform="translate(-647 -115.95)"/><path class="cls-2" d="M714.09,912.16a6.68,6.68,0,0,0,6.35,4.33,9,9,0,0,0-2.63-3A9.14,9.14,0,0,0,714.09,912.16Z" transform="translate(-647 -115.95)"/><path class="cls-2" d="M837.78,896s.67-2.37,1.76-6.19,2.75-9,4.75-14.66,4-10.73,5.5-14.39l2.5-5.92s-1.46,2-3.48,5.44a81.65,81.65,0,0,0-10.33,29.3C837.89,893.57,837.78,896,837.78,896Z" transform="translate(-647 -115.95)"/><path class="cls-2" d="M833.3,890.6a64.79,64.79,0,0,0,8.83-26.51s-2.6,5.77-5,13S833.3,890.6,833.3,890.6Z" transform="translate(-647 -115.95)"/><path class="cls-2" d="M828.92,881.72a33,33,0,0,0,6.41-15.53,33,33,0,0,0-6.41,15.53Z" transform="translate(-647 -115.95)"/><path class="cls-2" d="M823.21,879.94a17.31,17.31,0,0,0,5.59-12.27,29.89,29.89,0,0,0-3.53,5.8A30.2,30.2,0,0,0,823.21,879.94Z" transform="translate(-647 -115.95)"/><path class="cls-2" d="M818.25,877.45a14,14,0,0,0,3-10.35,14.61,14.61,0,0,0-2.56,4.87A14.36,14.36,0,0,0,818.25,877.45Z" transform="translate(-647 -115.95)"/><path class="cls-2" d="M821,803.73s1.93-1.6,5.15-4a76,76,0,0,1,13.25-7.86,49.29,49.29,0,0,1,14.69-4.16,41.7,41.7,0,0,1,4.71-.25l1.74,0s-.6-.16-1.71-.38a28.62,28.62,0,0,0-4.78-.49,35.83,35.83,0,0,0-15.55,3.26,47.42,47.42,0,0,0-13,9A50.16,50.16,0,0,0,821,803.73Z" transform="translate(-647 -115.95)"/><path class="cls-2" d="M830.62,802.36s1-.84,2.75-2a44.12,44.12,0,0,1,6.92-3.79c2.77-1.26,5.47-2,7.51-2.68a14.7,14.7,0,0,0,3.13-1.43s-1.29.22-3.36.37a23.6,23.6,0,0,0-8.16,1.75,19.55,19.55,0,0,0-6.76,5A15.14,15.14,0,0,0,830.62,802.36Z" transform="translate(-647 -115.95)"/><path class="cls-2" d="M835.75,804l1.72-.7,3.89-1.49,3.89-1.46,1.75-.62a7.78,7.78,0,0,0-1.85-.47,9.31,9.31,0,0,0-8.32,3.16A7.56,7.56,0,0,0,835.75,804Z" transform="translate(-647 -115.95)"/><path class="cls-2" d="M766.81,803.67l.86-.63a27.45,27.45,0,0,1,2.4-1.52,38.1,38.1,0,0,1,8.52-3.36c3.46-.94,6.72-1.52,9.1-1.95l3.89-.73a36.58,36.58,0,0,0-4-.36,31.74,31.74,0,0,0-9.6.94,21.17,21.17,0,0,0-8.58,4.58,15.61,15.61,0,0,0-2,2.16C767,803.35,766.81,803.67,766.81,803.67Z" transform="translate(-647 -115.95)"/><path class="cls-2" d="M773.16,804.83l7.26-2.54,7.29-2.48a12.19,12.19,0,0,0-2.35-.34,14.45,14.45,0,0,0-10.57,3.65A12.26,12.26,0,0,0,773.16,804.83Z" transform="translate(-647 -115.95)"/><path class="cls-2" d="M777.73,805.26a17.13,17.13,0,0,0,4.85-.42,17,17,0,0,0,4.48-1.9,8.1,8.1,0,0,0-1.48-.35,9.14,9.14,0,0,0-3.52.14,8.89,8.89,0,0,0-3.18,1.53A8,8,0,0,0,777.73,805.26Z" transform="translate(-647 -115.95)"/><path class="cls-2" d="M727.11,818.43l.22-1.85c.12-1.2.26-2.94.31-5.1a51,51,0,0,0-2.36-16.74,34.75,34.75,0,0,0-8.83-14.46,17,17,0,0,0-4.28-2.89,11.51,11.51,0,0,0-1.76-.66,13.83,13.83,0,0,1,1.59.95,19,19,0,0,1,3.67,3.36,44.27,44.27,0,0,1,7.54,14.39,78.14,78.14,0,0,1,3.34,16.1c.23,2.12.36,3.84.44,5S727.11,818.43,727.11,818.43Z" transform="translate(-647 -115.95)"/><path class="cls-2" d="M721.81,806.18a15.61,15.61,0,0,0,.54-2.91,18.59,18.59,0,0,0-3.94-13.46,15.4,15.4,0,0,0-2-2.15s.42,1,1.07,2.69,1.41,3.91,2.15,6.42,1.3,4.82,1.65,6.56S721.81,806.18,721.81,806.18Z" transform="translate(-647 -115.95)"/><path class="cls-2" d="M716.71,803.61a9.11,9.11,0,0,0,.48-1.76,10.61,10.61,0,0,0-1.89-8.24,8.47,8.47,0,0,0-1.2-1.37s0,.71.19,1.78.34,2.49.69,4a39.48,39.48,0,0,0,1.12,3.9C716.45,802.94,716.71,803.61,716.71,803.61Z" transform="translate(-647 -115.95)"/><path class="cls-2" d="M711.28,802a3.83,3.83,0,0,0,.75-1.07,4.8,4.8,0,0,0-1-5.72,4,4,0,0,0-1.08-.73l.12,1.24c.07.72.14,1.63.31,2.57s.43,1.81.62,2.51S711.28,802,711.28,802Z" transform="translate(-647 -115.95)"/><path class="cls-2" d="M908.88,877.4s1-.56,2.41-1.55l5.49-3.82a38.33,38.33,0,0,1,5.62-3.34,20,20,0,0,1,1.89-.77l.73-.27-.78-.07a10.13,10.13,0,0,0-2.13.07,14.82,14.82,0,0,0-6.56,2.59,23.43,23.43,0,0,0-5,4.82A27.24,27.24,0,0,0,908.88,877.4Z" transform="translate(-647 -115.95)"/><path class="cls-2" d="M912,869.52s.68-.35,1.69-.91,2.35-1.31,3.76-2.19,2.67-1.76,3.62-2.42,1.55-1.12,1.55-1.12a9.24,9.24,0,0,0-2,.1,11.26,11.26,0,0,0-7.72,4.83A9.26,9.26,0,0,0,912,869.52Z" transform="translate(-647 -115.95)"/><path class="cls-2" d="M912.52,860.64l1.16-.45a16.87,16.87,0,0,0,4.53-2.49l1-.74a4.07,4.07,0,0,0-1.25-.32,5,5,0,0,0-3,.57,5.09,5.09,0,0,0-2.07,2.2A4.41,4.41,0,0,0,912.52,860.64Z" transform="translate(-647 -115.95)"/><path class="cls-2" d="M701.84,706l-2.15.62c-1.38.43-3.36,1.06-5.76,2.06a39.48,39.48,0,0,0-8.11,4.47,31.31,31.31,0,0,0-7.89,8.49,83.64,83.64,0,0,0-5.22,9.73c-1.43,3-2.61,5.82-3.55,8.2-1.89,4.74-2.82,7.81-2.82,7.81s2.19-2.35,5.33-6.37c1.57-2,3.38-4.44,5.28-7.21s3.84-5.92,5.83-9a47.42,47.42,0,0,1,6.22-7.94,76.37,76.37,0,0,1,6.41-5.7l4.71-3.75Z" transform="translate(-647 -115.95)"/></svg>